<?xml version="1.0" encoding="UTF-8" standalone="no"?>
<svg
   width="76"
   height="74"
   viewBox="0 0 76 74"
   fill="none"
   version="1.1"
   id="svg3"
   sodipodi:docname="Score.svg"
   inkscape:version="1.3.2 (091e20e, 2023-11-25)"
   xmlns:inkscape="http://www.inkscape.org/namespaces/inkscape"
   xmlns:sodipodi="http://sodipodi.sourceforge.net/DTD/sodipodi-0.dtd"
   xmlns="http://www.w3.org/2000/svg"
   xmlns:svg="http://www.w3.org/2000/svg">
  <defs
     id="defs3" />
  <sodipodi:namedview
     id="namedview3"
     pagecolor="#ffffff"
     bordercolor="#000000"
     borderopacity="0.25"
     inkscape:showpageshadow="2"
     inkscape:pageopacity="0.0"
     inkscape:pagecheckerboard="0"
     inkscape:deskcolor="#d1d1d1"
     inkscape:zoom="3.1891892"
     inkscape:cx="38.097458"
     inkscape:cy="37"
     inkscape:window-width="1312"
     inkscape:window-height="449"
     inkscape:window-x="0"
     inkscape:window-y="25"
     inkscape:window-maximized="0"
     inkscape:current-layer="svg3" />
  <path
     fill-rule="evenodd"
     clip-rule="evenodd"
     d="M9.36521 4.86719C7.08813 4.86719 5.24219 6.71313 5.24219 8.99021V62.5935C5.24219 64.8706 7.08813 66.7166 9.36521 66.7166H65.882L75.3298 73.133V60.5332H75.3291V8.99021C75.3291 6.71313 73.4831 4.86719 71.2061 4.86719H9.36521Z"
     fill="#66BE65"
     id="path1" />
  <path
     d="M3.15712 3.35347L3.89376 4.19525L3.15712 3.35347C2.05177 4.32076 1.5611 5.67108 1.5611 7.23081C1.5611 8.81401 2.04554 10.186 3.15712 11.1587C4.23647 12.1033 5.68178 12.498 7.33369 12.498C8.95531 12.498 10.3771 12.1016 11.4512 11.1662C12.5975 10.1984 13.1063 8.82494 13.1063 7.23081C13.1063 5.65987 12.5909 4.30818 11.4512 3.34605C10.3771 2.41057 8.95531 2.01422 7.33369 2.01422C5.68178 2.01422 4.23647 2.40894 3.15712 3.35347Z"
     fill="#FF343E"
     stroke="white"
     stroke-width="2.23718"
     id="path2" />
</svg>
