<svg width="18" height="18" viewBox="0 0 18 18" fill="none" xmlns="http://www.w3.org/2000/svg">
<path fill-rule="evenodd" clip-rule="evenodd" d="M14.8902 14.8929C12.3434 17.4399 8.57221 17.9902 5.48608 16.563C5.03048 16.3796 4.65697 16.2313 4.30187 16.2313C3.3128 16.2372 2.0817 17.1962 1.44186 16.5571C0.802024 15.9172 1.76178 14.6851 1.76178 13.6901C1.76178 13.335 1.61941 12.9681 1.436 12.5116C0.00808812 9.42599 0.559153 5.65354 3.10594 3.10731C6.35706 -0.145005 11.6391 -0.145004 14.8902 3.10647C18.1472 6.36381 18.1413 11.6414 14.8902 14.8929Z" stroke="#222222" stroke-linecap="round" stroke-linejoin="round"/>
<path d="M12.2801 9.3444H12.2876" stroke="#222222" stroke-width="1.66667" stroke-linecap="round" stroke-linejoin="round"/>
<path d="M8.93635 9.3444H8.94385" stroke="#222222" stroke-width="1.66667" stroke-linecap="round" stroke-linejoin="round"/>
<path d="M5.60042 9.3444H5.60792" stroke="#222222" stroke-width="1.66667" stroke-linecap="round" stroke-linejoin="round"/>
</svg>
