<svg width="18" height="18" viewBox="0 0 18 18" fill="none" xmlns="http://www.w3.org/2000/svg">
<path d="M9.35515 17.6004C8.06117 17.6004 6.8984 17.3995 5.86683 16.9978C4.83527 16.5961 3.95527 16.0164 3.22684 15.2587C2.50293 14.5055 1.94643 13.5971 1.55733 12.5335C1.17276 11.4699 0.980469 10.2808 0.980469 8.96616C0.980469 7.67889 1.17502 6.51032 1.56412 5.46042C1.95774 4.41053 2.51651 3.50899 3.24041 2.75581C3.96884 2.00262 4.83753 1.4229 5.84647 1.01663C6.85994 0.605805 7.98652 0.400391 9.22621 0.400391C10.4388 0.400391 11.5246 0.614934 12.4838 1.04402C13.443 1.46854 14.2596 2.04827 14.9338 2.78319C15.6079 3.51812 16.1214 4.35575 16.4743 5.29609C16.8317 6.23187 17.0105 7.21101 17.0105 8.23351C17.0105 8.88171 16.9607 9.52077 16.8612 10.1507C16.7661 10.7806 16.601 11.3512 16.3657 11.8625C16.1305 12.3737 15.8047 12.7823 15.3885 13.0881C14.9722 13.3894 14.4451 13.54 13.8072 13.54C13.4724 13.54 13.1421 13.4853 12.8163 13.3757C12.4951 13.2616 12.2191 13.0767 11.9884 12.8211C11.7621 12.5609 11.6309 12.214 11.5947 11.7803H11.5269C11.3821 12.109 11.1785 12.4103 10.9161 12.6842C10.6537 12.9535 10.3302 13.168 9.94559 13.3278C9.56554 13.4875 9.12441 13.5606 8.6222 13.5469C8.05212 13.5332 7.5386 13.4054 7.08164 13.1634C6.6292 12.9215 6.24236 12.5906 5.92113 12.1706C5.60442 11.7507 5.36236 11.2645 5.19496 10.7122C5.02755 10.1553 4.94385 9.55501 4.94385 8.91138C4.94385 8.29057 5.0366 7.7177 5.2221 7.19275C5.41213 6.6678 5.67228 6.20904 6.00256 5.81647C6.33737 5.4239 6.72873 5.11122 7.17665 4.87842C7.62457 4.64561 8.10642 4.51095 8.6222 4.47444C9.08369 4.44248 9.50898 4.48813 9.89808 4.61138C10.2872 4.73006 10.6175 4.90352 10.8889 5.13176C11.1604 5.36 11.3549 5.61791 11.4726 5.90549H11.5404V4.66616H12.6467V11.0134C12.6467 11.4927 12.7394 11.8671 12.9249 12.1364C13.1149 12.4011 13.4136 12.5335 13.8207 12.5335C14.3139 12.5335 14.7143 12.3715 15.022 12.0474C15.3342 11.7187 15.5626 11.2348 15.7074 10.5958C15.8522 9.95214 15.9246 9.16016 15.9246 8.21982C15.9246 7.50772 15.8251 6.81844 15.626 6.15198C15.4314 5.48096 15.1464 4.86016 14.7709 4.28956C14.3953 3.7144 13.9339 3.21228 13.3864 2.78319C12.839 2.34954 12.2123 2.01175 11.5065 1.76982C10.8052 1.52789 10.027 1.40692 9.17192 1.40692C8.1132 1.40692 7.15177 1.58723 6.2876 1.94784C5.42344 2.30846 4.67917 2.82428 4.05481 3.4953C3.43496 4.16631 2.95764 4.96743 2.62283 5.89864C2.28802 6.82529 2.12062 7.8592 2.12062 9.00039C2.12062 10.1553 2.28802 11.1983 2.62283 12.1295C2.95764 13.0607 3.43949 13.8573 4.06838 14.5192C4.7018 15.1811 5.46642 15.69 6.36226 16.0461C7.25809 16.4021 8.26703 16.5802 9.38909 16.5802C9.88677 16.5802 10.3754 16.53 10.855 16.4295C11.3391 16.3337 11.778 16.215 12.1716 16.0735C12.5697 15.932 12.891 15.7928 13.1353 15.6558L13.4814 16.6144C13.1466 16.797 12.7485 16.9636 12.287 17.1142C11.83 17.2649 11.3459 17.3836 10.8346 17.4703C10.3279 17.557 9.83474 17.6004 9.35515 17.6004ZM8.76472 12.4719C9.38004 12.4719 9.89808 12.3281 10.3189 12.0405C10.7396 11.7529 11.0563 11.3398 11.269 10.8012C11.4862 10.2625 11.5947 9.61435 11.5947 8.8566C11.5947 8.09429 11.4794 7.46663 11.2486 6.97364C11.0224 6.48065 10.6989 6.11547 10.2781 5.8781C9.86189 5.63617 9.36873 5.5152 8.79865 5.5152C8.24667 5.5152 7.76256 5.66812 7.34631 5.97396C6.93459 6.27523 6.6111 6.67921 6.37583 7.1859C6.14508 7.69259 6.02971 8.24949 6.02971 8.8566C6.02971 9.50023 6.13151 10.0959 6.33511 10.6437C6.54323 11.1915 6.84863 11.6343 7.2513 11.972C7.6585 12.3053 8.16297 12.4719 8.76472 12.4719Z" fill="black"/>
</svg>
