<svg width="37" height="228" viewBox="0 0 37 228" fill="none" xmlns="http://www.w3.org/2000/svg">
<circle cx="18.5" cy="18" r="18" fill="white"/>
<path d="M19.755 12.8182V23H17.6023V14.8615H17.5426L15.2109 16.3232V14.4141L17.7315 12.8182H19.755Z" fill="black"/>
<circle cx="18.5" cy="114" r="17.5" fill="#265FBD" stroke="#84A5DC" stroke-dasharray="2 2"/>
<path d="M15.4794 119V117.886L18.9247 114.317C19.2926 113.929 19.5959 113.589 19.8345 113.298C20.0765 113.003 20.2571 112.723 20.3764 112.457C20.4957 112.192 20.5554 111.911 20.5554 111.612C20.5554 111.274 20.4759 110.982 20.3168 110.737C20.1577 110.489 19.9406 110.298 19.6655 110.165C19.3904 110.03 19.0805 109.962 18.7358 109.962C18.3712 109.962 18.053 110.036 17.7812 110.185C17.5095 110.335 17.3007 110.545 17.1548 110.817C17.009 111.089 16.9361 111.407 16.9361 111.771H15.4695C15.4695 111.152 15.612 110.61 15.897 110.146C16.1821 109.682 16.5732 109.322 17.0703 109.067C17.5675 108.808 18.1326 108.679 18.7656 108.679C19.4053 108.679 19.9688 108.807 20.456 109.062C20.9465 109.314 21.3293 109.658 21.6044 110.096C21.8795 110.53 22.017 111.021 22.017 111.567C22.017 111.945 21.9458 112.315 21.8033 112.676C21.6641 113.037 21.4205 113.44 21.0724 113.884C20.7244 114.325 20.2405 114.86 19.6207 115.49L17.5973 117.608V117.683H22.1811V119H15.4794Z" fill="#B2CCF5"/>
<circle cx="18.5" cy="210" r="17.5" fill="#265FBD" stroke="#84A5DC" stroke-dasharray="2 2"/>
<path d="M19.0241 215.139C18.3414 215.139 17.7315 215.022 17.1946 214.786C16.661 214.551 16.2384 214.224 15.9268 213.807C15.6186 213.386 15.4529 212.899 15.4297 212.345H16.9908C17.0107 212.647 17.1117 212.909 17.294 213.131C17.4796 213.349 17.7216 213.518 18.0199 213.638C18.3182 213.757 18.6496 213.817 19.0142 213.817C19.4152 213.817 19.7699 213.747 20.0781 213.608C20.3897 213.469 20.6333 213.275 20.8089 213.026C20.9846 212.774 21.0724 212.484 21.0724 212.156C21.0724 211.815 20.9846 211.515 20.8089 211.256C20.6366 210.995 20.383 210.789 20.0483 210.64C19.7169 210.491 19.3158 210.416 18.8452 210.416H17.9851V209.163H18.8452C19.223 209.163 19.5545 209.095 19.8395 208.96C20.1278 208.824 20.3532 208.635 20.5156 208.393C20.678 208.147 20.7592 207.861 20.7592 207.533C20.7592 207.218 20.688 206.944 20.5455 206.712C20.4063 206.477 20.2074 206.293 19.9489 206.161C19.6937 206.028 19.392 205.962 19.044 205.962C18.7126 205.962 18.4027 206.023 18.1143 206.146C17.8293 206.265 17.5973 206.437 17.4183 206.663C17.2393 206.885 17.1432 207.152 17.13 207.463H15.6435C15.66 206.913 15.8224 206.429 16.1307 206.011C16.4422 205.594 16.8532 205.267 17.3636 205.032C17.8741 204.797 18.4408 204.679 19.0639 204.679C19.7169 204.679 20.2803 204.807 20.7543 205.062C21.2315 205.314 21.5994 205.65 21.858 206.071C22.1198 206.492 22.2491 206.953 22.2457 207.453C22.2491 208.023 22.09 208.507 21.7685 208.905C21.4503 209.303 21.026 209.569 20.4957 209.705V209.785C21.1719 209.888 21.6955 210.156 22.0668 210.59C22.4413 211.024 22.6269 211.563 22.6236 212.206C22.6269 212.766 22.4711 213.268 22.1562 213.712C21.8447 214.156 21.4188 214.506 20.8786 214.761C20.3383 215.013 19.7202 215.139 19.0241 215.139Z" fill="#B2CCF5"/>
<line x1="18" y1="46" x2="18" y2="86" stroke="#84A5DC" stroke-dasharray="1 2"/>
<line x1="18" y1="142" x2="18" y2="182" stroke="#84A5DC" stroke-dasharray="1 2"/>
</svg>
