<svg width="20" height="20" viewBox="0 0 20 20" fill="none" xmlns="http://www.w3.org/2000/svg">
<path fill-rule="evenodd" clip-rule="evenodd" d="M9.90749 10.5157H9.93416C12.3742 10.5157 14.3583 8.5315 14.3583 6.0915C14.3583 3.6515 12.3742 1.6665 9.93416 1.6665C7.49333 1.6665 5.50833 3.6515 5.50833 6.089C5.49999 8.52234 7.47249 10.5082 9.90749 10.5157ZM6.69833 6.0915C6.69833 4.30734 8.14999 2.8565 9.93416 2.8565C11.7175 2.8565 13.1683 4.30734 13.1683 6.0915C13.1683 7.87484 11.7175 9.3265 9.93416 9.3265H9.90999C8.13333 9.31984 6.69249 7.86984 6.69833 6.0915Z" fill="white" fill-opacity="0.55"/>
<path fill-rule="evenodd" clip-rule="evenodd" d="M3.33331 15.1443C3.33331 18.2251 8.30165 18.2251 9.93415 18.2251C12.7666 18.2251 16.5333 17.9076 16.5333 15.161C16.5333 12.0801 11.5666 12.0801 9.93415 12.0801C7.10081 12.0801 3.33331 12.3976 3.33331 15.1443ZM4.58331 15.1443C4.58331 13.9401 6.38331 13.3301 9.93415 13.3301C13.4841 13.3301 15.2833 13.946 15.2833 15.161C15.2833 16.3651 13.4841 16.9751 9.93415 16.9751C6.38331 16.9751 4.58331 16.3593 4.58331 15.1443Z" fill="white" fill-opacity="0.55"/>
</svg>
