<svg width="20" height="20" viewBox="0 0 20 20" fill="none" xmlns="http://www.w3.org/2000/svg">
    <path
        d="M16.6667 9.14133L9.969 15.4581C9.1485 16.2319 8.03562 16.6667 6.87523 16.6667C5.71485 16.6667 4.60199 16.2319 3.78147 15.4581C2.96096 14.6842 2.5 13.6347 2.5 12.5402C2.5 11.4459 2.96096 10.3963 3.78147 9.6225L10.4792 3.30573C11.0262 2.78983 11.7681 2.5 12.5417 2.5C13.3152 2.5 14.0572 2.78983 14.6042 3.30573C15.1512 3.82163 15.4585 4.52133 15.4585 5.25092C15.4585 5.98052 15.1512 6.68023 14.6042 7.19613L7.8992 13.5128C7.62569 13.7708 7.25474 13.9157 6.86795 13.9157C6.48115 13.9157 6.1102 13.7708 5.83669 13.5128C5.56319 13.2549 5.40953 12.9051 5.40953 12.5402C5.40953 12.1755 5.56319 11.8256 5.83669 11.5677L12.0242 5.73895"
        stroke="black" stroke-width="1.25" stroke-linecap="round" stroke-linejoin="round" />
</svg>