<svg width="20" height="20" viewBox="0 0 20 20" fill="none" xmlns="http://www.w3.org/2000/svg">
<g opacity="0.55">
<path d="M13.5355 6.46445C15.4881 8.41708 15.4881 11.5829 13.5355 13.5355M6.46443 13.5355C4.5118 11.5828 4.5118 8.417 6.46443 6.46441M4.1074 15.8925C0.853034 12.6382 0.853034 7.36179 4.1074 4.10742M15.8925 4.10746C19.1469 7.36183 19.1469 12.6382 15.8925 15.8926M11.6666 10C11.6666 10.9204 10.9205 11.6667 9.99996 11.6667C9.07946 11.6667 8.33329 10.9204 8.33329 10C8.33329 9.0795 9.07946 8.33331 9.99996 8.33331C10.9205 8.33331 11.6666 9.0795 11.6666 10Z" stroke="white" stroke-linecap="round" stroke-linejoin="round"/>
</g>
</svg>
