<svg width="20" height="20" viewBox="0 0 20 20" fill="none" xmlns="http://www.w3.org/2000/svg">
<path d="M17.8302 4.28482C17.7352 2.48546 12.8331 2 9.91508 2C6.99705 2 2 2.49073 2 4.33231V16.2524C2 18.094 6.97594 18.59 9.91508 18.59C12.8542 18.59 17.8302 18.0993 17.8302 16.2524V4.33231C17.8302 4.33231 17.8302 4.2901 17.8302 4.28482ZM16.7748 8.27402C16.6007 8.72782 14.1048 9.56681 9.91508 9.56681C7.95539 9.61682 5.99918 9.37496 4.11069 8.84918V9.94674C6.00862 10.4193 7.95935 10.6463 9.91508 10.6222C12.0258 10.6222 15.1549 10.3689 16.7748 9.56681V12.2949C16.6007 12.7487 14.1048 13.5877 9.91508 13.5877C7.95434 13.6308 5.99811 13.3818 4.11069 12.8489V13.9465C6.00862 14.419 7.95935 14.646 9.91508 14.6219C12.0258 14.6219 15.1549 14.3686 16.7748 13.5666V16.2577C16.5901 16.7115 14.0942 17.5505 9.91508 17.5505C5.73592 17.5505 3.21364 16.6904 3.05534 16.2524V4.35342C3.21364 3.92073 5.6937 3.05534 9.91508 3.05534C14.0151 3.05534 16.4899 3.86268 16.7748 4.30593C16.5004 4.765 14.0256 5.56706 9.91508 5.56706C7.95545 5.6159 5.99941 5.37406 4.11069 4.84943V5.95226C6.00907 6.42182 7.95964 6.64702 9.91508 6.6224C12.0258 6.6224 15.1549 6.36912 16.7748 5.56706V8.27402Z" fill="white" fill-opacity="0.55"/>
<path d="M16.7248 5.64679C15.91 6.03197 14.7491 6.28609 13.5355 6.44508C12.2844 6.60898 10.9724 6.67239 9.91536 6.6724C7.95579 6.69705 6.00108 6.47135 4.09868 6.0008L4.06069 5.9914V5.95226V4.84943V4.78365L4.12407 4.80125C6.00803 5.32456 7.95914 5.56579 9.91383 5.51708L9.91508 5.51705C11.9673 5.51706 13.6099 5.31683 14.7727 5.05982C15.3542 4.93129 15.8147 4.78878 16.146 4.65051C16.3117 4.58135 16.4441 4.51367 16.5427 4.44992C16.6246 4.39707 16.6803 4.34876 16.7134 4.30689C16.6792 4.2662 16.6225 4.21905 16.5399 4.1673C16.4401 4.10478 16.3067 4.03811 16.1403 3.96978C15.8076 3.83317 15.3464 3.69145 14.7648 3.56325C13.602 3.30689 11.962 3.10534 9.91508 3.10534C7.80762 3.10534 6.1361 3.32138 4.97284 3.59083C4.39104 3.7256 3.93751 3.87347 3.62057 4.01377C3.46199 4.08397 3.33894 4.15169 3.25144 4.21411C3.16768 4.27387 3.1225 4.32461 3.10534 4.3631V16.2428C3.12249 16.2818 3.16815 16.3329 3.25306 16.3931C3.3416 16.4559 3.46612 16.5239 3.62636 16.5942C3.94662 16.7348 4.40413 16.8825 4.9886 17.017C6.15719 17.2858 7.82874 17.5005 9.91508 17.5005C12.0015 17.5005 13.6665 17.291 14.8318 17.0255C15.4146 16.8927 15.8712 16.7461 16.1927 16.6053C16.3535 16.5349 16.4792 16.4664 16.5696 16.4027C16.6558 16.3419 16.7046 16.289 16.7248 16.2471V13.6463C15.91 14.0315 14.7491 14.2856 13.5355 14.4446C12.2844 14.6085 10.9724 14.6719 9.91538 14.6719M16.7248 5.64679L9.91508 14.6219M16.7248 5.64679V8.26398C16.7058 8.30547 16.6583 8.35824 16.5729 8.41914C16.4835 8.48284 16.3587 8.55126 16.1986 8.62169C15.8785 8.76248 15.4225 8.90904 14.8397 9.04184C13.6744 9.30736 12.0068 9.51681 9.91508 9.5168L9.9138 9.51683C7.95908 9.56671 6.00781 9.32547 4.1241 8.80101L4.06069 8.78336V8.84918V9.94674V9.98581L4.09861 9.99526C6.00059 10.4688 7.95548 10.6963 9.91538 10.6722M16.7248 5.64679L4.11069 8.90108M9.91538 14.6719C9.91528 14.6719 9.91518 14.6719 9.91508 14.6719V14.6219M9.91538 14.6719C9.91549 14.6719 9.91559 14.6719 9.91569 14.6719L9.91508 14.6219M9.91538 14.6719C7.95548 14.696 6.00059 14.4685 4.09861 13.995L4.06069 13.9856V13.9465V12.8489V12.7829L4.12427 12.8008C6.00692 13.3324 7.9582 13.5807 9.91398 13.5377L9.91508 13.5377C12.0068 13.5377 13.6744 13.3282 14.8397 13.0627C15.4225 12.9299 15.8785 12.7833 16.1986 12.6426C16.3587 12.5721 16.4835 12.5037 16.5729 12.44C16.6583 12.3791 16.7058 12.3263 16.7248 12.2848M9.91508 14.6219C7.95935 14.646 6.00862 14.419 4.11069 13.9465V12.9009C4.10616 12.8996 4.10163 12.8983 4.0971 12.897L4.11069 12.8489H4.16069V12.863C6.03264 13.3862 7.97165 13.6304 9.91508 13.5877C14.1048 13.5877 16.6007 12.7487 16.7748 12.2949M16.7248 12.2848V12.2949H16.7748M16.7248 12.2848V9.64654M16.7248 12.2848C16.726 12.2822 16.7271 12.2795 16.7281 12.277L16.7748 12.2949M16.7748 12.2949V9.62253C16.7583 9.63059 16.7416 9.63859 16.7248 9.64654M4.16069 8.86303C6.0337 9.37921 7.97268 9.61638 9.91508 9.56681L4.16069 8.86303ZM4.16069 8.86303V8.84918H4.11069M4.16069 8.86303L4.11069 8.84918M4.11069 8.84918L4.09728 8.89735C4.10175 8.89859 4.10622 8.89984 4.11069 8.90108M4.11069 8.84918V8.90108M4.11069 8.90108V9.94674C6.00862 10.4193 7.95935 10.6463 9.91508 10.6222M9.91508 10.6222V10.6722C9.91518 10.6722 9.91528 10.6722 9.91538 10.6722M9.91508 10.6222C12.0042 10.6222 15.0912 10.374 16.7248 9.59117M9.91508 10.6222L9.91569 10.6722C9.91559 10.6722 9.91549 10.6722 9.91538 10.6722M9.91538 10.6722L16.7248 9.59117M16.7248 9.64654V9.59117M16.7248 9.64654V9.59117M17.8802 4.28482H17.8802L17.8801 4.28218C17.855 3.80702 17.5127 3.42709 16.9886 3.12538C16.4636 2.82306 15.7449 2.59235 14.9418 2.41878C13.3349 2.07146 11.376 1.95 9.91508 1.95C8.45416 1.95 6.47146 2.07278 4.8526 2.42672C4.0436 2.60359 3.32171 2.83897 2.80087 3.14797C2.28084 3.45648 1.95 3.84568 1.95 4.33231V16.2524C1.95 16.7389 2.27938 17.1285 2.79781 17.4375C3.31701 17.747 4.03694 17.9831 4.84463 18.1606C6.46087 18.5159 8.44359 18.64 9.91508 18.64C11.3865 18.64 13.3693 18.5172 14.9855 18.1626C15.7932 17.9854 16.5131 17.7495 17.0324 17.4397C17.5508 17.1304 17.8802 16.7402 17.8802 16.2524V4.33231V4.3323V4.33229V4.33227V4.33226V4.33225V4.33224V4.33223V4.33222V4.3322V4.33219V4.33217V4.33216V4.33214V4.33212V4.3321V4.33208V4.33206V4.33204V4.33202V4.33199V4.33197V4.33194V4.33192V4.33189V4.33186V4.33183V4.3318V4.33177V4.33174V4.33171V4.33168V4.33164V4.33161V4.33157V4.33154V4.3315V4.33146V4.33142V4.33138V4.33134V4.3313V4.33126V4.33122V4.33118V4.33113V4.33109V4.33104V4.33099V4.33095V4.3309V4.33085V4.3308V4.33075V4.3307V4.33065V4.33059V4.33054V4.33049V4.33043V4.33037V4.33032V4.33026V4.3302V4.33014V4.33009V4.33002V4.32996V4.3299V4.32984V4.32978V4.32971V4.32965V4.32959V4.32952V4.32945V4.32939V4.32932V4.32925V4.32918V4.32911V4.32904V4.32897V4.3289V4.32883V4.32875V4.32868V4.32861V4.32853V4.32845V4.32838V4.3283V4.32822V4.32815V4.32807V4.32799V4.32791V4.32783V4.32775V4.32767V4.32758V4.3275V4.32742V4.32733V4.32725V4.32716V4.32708V4.32699V4.3269V4.32682V4.32673V4.32664V4.32655V4.32646V4.32637V4.32628V4.32619V4.3261V4.32601V4.32591V4.32582V4.32573V4.32563V4.32554V4.32544V4.32534V4.32525V4.32515V4.32505V4.32496V4.32486V4.32476V4.32466V4.32456V4.32446V4.32436V4.32426V4.32415V4.32405V4.32395V4.32385V4.32374V4.32364V4.32353V4.32343V4.32332V4.32322V4.32311V4.32301V4.3229V4.32279V4.32268V4.32258V4.32247V4.32236V4.32225V4.32214V4.32203V4.32192V4.32181V4.32169V4.32158V4.32147V4.32136V4.32124V4.32113V4.32102V4.3209V4.32079V4.32067V4.32056V4.32044V4.32033V4.32021V4.3201V4.31998V4.31986V4.31974V4.31963V4.31951V4.31939V4.31927V4.31915V4.31903V4.31891V4.31879V4.31867V4.31855V4.31843V4.31831V4.31819V4.31807V4.31795V4.31783V4.3177V4.31758V4.31746V4.31733V4.31721V4.31709V4.31696V4.31684V4.31672V4.31659V4.31647V4.31634V4.31622V4.31609V4.31596V4.31584V4.31571V4.31559V4.31546V4.31533V4.31521V4.31508V4.31495V4.31482V4.3147V4.31457V4.31444V4.31431V4.31419V4.31406V4.31393V4.3138V4.31367V4.31354V4.31341V4.31328V4.31315V4.31302V4.31289V4.31276V4.31263V4.31251V4.31237V4.31224V4.31211V4.31198V4.31185V4.31172V4.31159V4.31146V4.31133V4.3112V4.31107V4.31094V4.31081V4.31067V4.31054V4.31041V4.31028V4.31015V4.31002V4.30989V4.30975V4.30962V4.30949V4.30936V4.30923V4.30909V4.30896V4.30883V4.3087V4.30857V4.30843V4.3083V4.30817V4.30804V4.30791V4.30778V4.30764V4.30751V4.30738V4.30725V4.30712V4.30698V4.30685V4.30672V4.30659V4.30646V4.30633V4.30619V4.30606V4.30593V4.3058V4.30567V4.30554V4.30541V4.30528V4.30515V4.30501V4.30488V4.30475V4.30462V4.30449V4.30436V4.30423V4.3041V4.30397V4.30384V4.30371V4.30358V4.30345V4.30332V4.30319V4.30306V4.30293V4.30281V4.30268V4.30255V4.30242V4.30229V4.30216V4.30204V4.30191V4.30178V4.30165V4.30153V4.3014V4.30127V4.30115V4.30102V4.30089V4.30077V4.30064V4.30051V4.30039V4.30026V4.30014V4.30001V4.29989V4.29977V4.29964V4.29952V4.29939V4.29927V4.29915V4.29902V4.2989V4.29878V4.29866V4.29854V4.29841V4.29829V4.29817V4.29805V4.29793V4.29781V4.29769V4.29757V4.29745V4.29733V4.29721V4.2971V4.29698V4.29686V4.29674V4.29662V4.29651V4.29639V4.29628V4.29616V4.29604V4.29593V4.29581V4.2957V4.29559V4.29547V4.29536V4.29525V4.29513V4.29502V4.29491V4.2948V4.29469V4.29458V4.29447V4.29436V4.29425V4.29414V4.29403V4.29392V4.29381V4.2937V4.2936V4.29349V4.29338V4.29328V4.29317V4.29307V4.29296V4.29286V4.29276V4.29265V4.29255V4.29245V4.29235V4.29224V4.29214V4.29204V4.29194V4.29184V4.29174V4.29165V4.29155V4.29145V4.29135V4.29126V4.29116V4.29107V4.29097V4.29088V4.29078V4.29069V4.2906V4.2905V4.29041V4.29032V4.29023V4.29014V4.29005V4.28996V4.28987V4.28978V4.2897V4.28961V4.28952V4.28944V4.28935V4.28927V4.28918V4.2891V4.28902V4.28893V4.28885V4.28877V4.28869V4.28861V4.28853V4.28845V4.28837V4.2883V4.28822V4.28814V4.28807V4.28799V4.28792V4.28785V4.28777V4.2877V4.28763V4.28756V4.28749V4.28742V4.28735V4.28728V4.28721V4.28714V4.28708V4.28701V4.28695V4.28688V4.28682V4.28676V4.28669V4.28663V4.28657V4.28651V4.28645V4.28639V4.28634V4.28628V4.28622V4.28617V4.28611V4.28606V4.286V4.28595V4.2859V4.28585V4.2858V4.28575V4.2857V4.28565V4.2856V4.28555V4.28551V4.28546V4.28542V4.28538V4.28533V4.28529V4.28525V4.28521V4.28517V4.28513V4.28509V4.28506V4.28502V4.28498V4.28495V4.28492V4.28488V4.28485V4.28482ZM16.7248 13.5909C16.7416 13.5829 16.7583 13.5747 16.7748 13.5666V13.6223L16.7248 13.5909Z" stroke="white" stroke-opacity="0.55" stroke-width="0.1"/>
</svg>
