<svg width="18" height="18" viewBox="0 0 18 18" fill="none" xmlns="http://www.w3.org/2000/svg">
<path fill-rule="evenodd" clip-rule="evenodd" d="M14.8929 14.8914C12.3461 17.4385 8.57489 17.9888 5.48876 16.5615C5.03317 16.3781 4.65965 16.2298 4.30456 16.2298C3.31549 16.2357 2.08439 17.1947 1.44455 16.5557C0.804709 15.9157 1.76447 14.6837 1.76447 13.6886C1.76447 13.3335 1.62209 12.9666 1.43869 12.5102C0.0107737 9.42452 0.561839 5.65208 3.10863 3.10584C6.35975 -0.146469 11.6418 -0.146469 14.8929 3.105C18.1499 6.36234 18.144 11.6399 14.8929 14.8914Z" stroke="white" stroke-opacity="0.55" stroke-width="1.25" stroke-linecap="round" stroke-linejoin="round"/>
<path d="M12.2828 9.3444H12.2903" stroke="white" stroke-opacity="0.55" stroke-width="1.66667" stroke-linecap="round" stroke-linejoin="round"/>
<path d="M8.94197 9.3444H8.94947" stroke="white" stroke-opacity="0.55" stroke-width="1.66667" stroke-linecap="round" stroke-linejoin="round"/>
<path d="M5.60115 9.3444H5.60865" stroke="white" stroke-opacity="0.55" stroke-width="1.66667" stroke-linecap="round" stroke-linejoin="round"/>
</svg>
