<svg width="24" height="25" viewBox="0 0 24 25" fill="none" xmlns="http://www.w3.org/2000/svg">
<g clip-path="url(#clip0_485_5695)">
<path d="M12 23.1667C18.2592 23.1667 23.3333 18.0926 23.3333 11.8333C23.3333 5.57411 18.2592 0.5 12 0.5C5.74073 0.5 0.666626 5.57411 0.666626 11.8333C0.666626 18.0926 5.74073 23.1667 12 23.1667Z" fill="#FFC73C"/>
<path d="M12 21.8332C17.1546 21.8332 21.3333 17.6545 21.3333 12.4998C21.3333 7.34518 17.1546 3.1665 12 3.1665C6.8453 3.1665 2.66663 7.34518 2.66663 12.4998C2.66663 17.6545 6.8453 21.8332 12 21.8332Z" fill="#FFE8B6"/>
<path d="M12 21.1667C17.1546 21.1667 21.3333 16.988 21.3333 11.8333C21.3333 6.67868 17.1546 2.5 12 2.5C6.8453 2.5 2.66663 6.67868 2.66663 11.8333C2.66663 16.988 6.8453 21.1667 12 21.1667Z" fill="#FFA928"/>
<path d="M12 6.06201C12 6.06201 8.36333 7.77601 8.00066 7.93068C7.63733 8.08468 7.75866 8.33801 8.00133 8.33801H15.9813C16.356 8.33801 16.2673 8.05201 15.97 7.89734C15.6727 7.74334 12 6.06201 12 6.06201Z" fill="#FFAC33"/>
<path d="M15.7983 10.2642L15.4503 11.4922H8.93253L9.28054 10.2642H15.7983ZM12.6264 18L9.06676 13.6797L9.05682 12.7102H10.8217C11.2625 12.7102 11.6354 12.6423 11.9403 12.5064C12.2453 12.3705 12.4773 12.1733 12.6364 11.9148C12.7955 11.6529 12.875 11.3348 12.875 10.9602C12.875 10.4034 12.7093 9.96094 12.3778 9.63281C12.0464 9.30469 11.5277 9.14062 10.8217 9.14062H8.93253L9.29545 7.81818H10.8217C11.6437 7.81818 12.3215 7.9491 12.8551 8.21094C13.3887 8.47277 13.7865 8.8357 14.0483 9.29972C14.3101 9.76373 14.4411 10.299 14.4411 10.9055C14.4411 11.4458 14.3333 11.9347 14.1179 12.3722C13.9025 12.8097 13.5594 13.166 13.0888 13.4411C12.6181 13.7161 12 13.8769 11.2344 13.9233L11.1896 13.9332L14.4411 17.9155V18H12.6264ZM15.8033 7.81818L15.4503 9.05611L10.2401 9.02628L10.593 7.81818H15.8033Z" fill="#F39C1D"/>
<path d="M15.2983 9.7642L14.9503 10.9922H8.43253L8.78054 9.7642H15.2983ZM12.1264 17.5L8.56676 13.1797L8.55682 12.2102H10.3217C10.7625 12.2102 11.1354 12.1423 11.4403 12.0064C11.7453 11.8705 11.9773 11.6733 12.1364 11.4148C12.2955 11.1529 12.375 10.8348 12.375 10.4602C12.375 9.90341 12.2093 9.46094 11.8778 9.13281C11.5464 8.80469 11.0277 8.64062 10.3217 8.64062H8.43253L8.79545 7.31818H10.3217C11.1437 7.31818 11.8215 7.4491 12.3551 7.71094C12.8887 7.97277 13.2865 8.3357 13.5483 8.79972C13.8101 9.26373 13.9411 9.79901 13.9411 10.4055C13.9411 10.9458 13.8333 11.4347 13.6179 11.8722C13.4025 12.3097 13.0594 12.666 12.5888 12.9411C12.1181 13.2161 11.5 13.3769 10.7344 13.4233L10.6896 13.4332L13.9411 17.4155V17.5H12.1264ZM15.3033 7.31818L14.9503 8.55611L9.74006 8.52628L10.093 7.31818H15.3033Z" fill="#FFFBF0"/>
</g>
<defs>
<clipPath id="clip0_485_5695">
<rect width="24" height="24" fill="white" transform="translate(0 0.5)"/>
</clipPath>
</defs>
</svg>
