<svg width="148" height="18" viewBox="0 0 148 18" fill="none" xmlns="http://www.w3.org/2000/svg">
    <path
        d="M143.098 5.65234C144.425 5.65234 145.465 6.0443 146.219 6.82822C146.972 7.61213 147.349 8.90107 147.349 10.695H140.09L140.068 10.2654H144.274C144.304 9.5267 144.274 8.84831 144.183 8.23022C144.093 7.59706 143.942 7.09204 143.731 6.71515C143.535 6.33827 143.271 6.14983 142.94 6.14983C142.487 6.14983 142.103 6.47395 141.786 7.12219C141.47 7.77043 141.274 8.87092 141.198 10.4237L141.289 10.582C141.259 10.7478 141.244 10.9212 141.244 11.1021C141.244 11.2679 141.244 11.4488 141.244 11.6448C141.244 12.685 141.379 13.5141 141.651 14.1322C141.937 14.7503 142.291 15.1875 142.713 15.4438C143.136 15.7 143.573 15.8282 144.025 15.8282C144.281 15.8282 144.568 15.7905 144.884 15.7151C145.201 15.6397 145.533 15.4815 145.879 15.2402C146.226 14.999 146.558 14.6448 146.874 14.1774L147.259 14.3131C147.093 14.9011 146.806 15.4815 146.399 16.0543C146.007 16.6121 145.502 17.0794 144.884 17.4563C144.266 17.8181 143.52 17.999 142.646 17.999C141.651 17.999 140.761 17.7955 139.977 17.3885C139.193 16.9664 138.568 16.3106 138.1 15.4212C137.648 14.5166 137.422 13.3408 137.422 11.8935C137.422 10.4614 137.671 9.2855 138.168 8.3659C138.666 7.44631 139.344 6.76792 140.203 6.33073C141.063 5.87847 142.027 5.65234 143.098 5.65234Z"
        fill="white" />
    <path
        d="M136.828 5.96875V6.44362C136.542 6.53407 136.27 6.72251 136.014 7.00895C135.758 7.29538 135.502 7.79286 135.245 8.5014L132.057 17.7049C131.755 17.6747 131.454 17.6597 131.152 17.6597C130.851 17.6597 130.542 17.6747 130.225 17.7049L126.245 7.70995C126.019 7.13709 125.785 6.78282 125.544 6.64714C125.303 6.51146 125.099 6.44362 124.934 6.44362V5.96875C125.476 5.9989 126.042 6.02905 126.63 6.0592C127.218 6.07428 127.858 6.08181 128.552 6.08181C129.019 6.08181 129.509 6.07428 130.022 6.0592C130.549 6.02905 131.039 5.9989 131.491 5.96875V6.44362C131.205 6.44362 130.941 6.4587 130.7 6.48885C130.474 6.519 130.308 6.60191 130.203 6.73759C130.112 6.87327 130.12 7.12201 130.225 7.48382L132.803 14.5165L132.554 14.9009L134.069 10.5366C134.386 9.61698 134.522 8.86321 134.476 8.27527C134.431 7.68734 134.258 7.24261 133.956 6.94111C133.67 6.6396 133.285 6.47377 132.803 6.44362V5.96875C133.029 5.98383 133.278 5.9989 133.549 6.01398C133.836 6.02905 134.115 6.04413 134.386 6.0592C134.672 6.0592 134.906 6.0592 135.087 6.0592C135.373 6.0592 135.69 6.05166 136.037 6.03659C136.384 6.02151 136.647 5.9989 136.828 5.96875Z"
        fill="white" />
    <path
        d="M121.354 0.0664062C122.063 0.0664062 122.613 0.224697 123.005 0.541279C123.412 0.85786 123.616 1.31766 123.616 1.92067C123.616 2.52368 123.412 2.98348 123.005 3.30006C122.613 3.61664 122.063 3.77493 121.354 3.77493C120.646 3.77493 120.088 3.61664 119.681 3.30006C119.289 2.98348 119.093 2.52368 119.093 1.92067C119.093 1.31766 119.289 0.85786 119.681 0.541279C120.088 0.224697 120.646 0.0664062 121.354 0.0664062ZM123.344 5.71965V15.5789C123.344 16.2121 123.442 16.6417 123.638 16.8678C123.849 17.094 124.204 17.207 124.701 17.207V17.6819C124.4 17.6668 123.955 17.6518 123.367 17.6367C122.779 17.6065 122.184 17.5915 121.581 17.5915C120.978 17.5915 120.359 17.6065 119.726 17.6367C119.108 17.6518 118.641 17.6668 118.324 17.6819V17.207C118.822 17.207 119.168 17.094 119.364 16.8678C119.575 16.6417 119.681 16.2121 119.681 15.5789V8.4332C119.681 7.75482 119.583 7.25733 119.387 6.94075C119.191 6.60909 118.837 6.44326 118.324 6.44326V5.96839C118.807 6.01362 119.274 6.03623 119.726 6.03623C120.405 6.03623 121.045 6.01362 121.648 5.96839C122.266 5.90809 122.832 5.82518 123.344 5.71965Z"
        fill="white" />
    <path
        d="M115.805 0V15.5803C115.805 16.2135 115.903 16.6431 116.099 16.8693C116.31 17.0954 116.665 17.2085 117.162 17.2085V17.6833C116.876 17.6683 116.439 17.6532 115.851 17.6381C115.263 17.608 114.66 17.5929 114.041 17.5929C113.438 17.5929 112.82 17.608 112.187 17.6381C111.569 17.6532 111.102 17.6683 110.785 17.6833V17.2085C111.283 17.2085 111.629 17.0954 111.825 16.8693C112.036 16.6431 112.142 16.2135 112.142 15.5803V2.69094C112.142 2.02763 112.044 1.53768 111.848 1.2211C111.667 0.889444 111.313 0.723615 110.785 0.723615V0.248744C111.268 0.29397 111.735 0.316583 112.187 0.316583C112.881 0.316583 113.529 0.29397 114.132 0.248744C114.735 0.188442 115.293 0.105528 115.805 0Z"
        fill="white" />
    <path
        d="M107.018 14.3145C107.666 14.3145 108.171 14.4727 108.533 14.7893C108.91 15.1059 109.098 15.5582 109.098 16.1461C109.098 16.7491 108.91 17.2089 108.533 17.5255C108.171 17.8421 107.666 18.0004 107.018 18.0004C106.355 18.0004 105.842 17.8421 105.48 17.5255C105.118 17.2089 104.938 16.7491 104.938 16.1461C104.938 15.5582 105.118 15.1059 105.48 14.7893C105.842 14.4727 106.355 14.3145 107.018 14.3145Z"
        fill="#FF343E" />
    <path
        d="M98.7463 5.65234C100.073 5.65234 101.113 6.0443 101.867 6.82822C102.621 7.61213 102.998 8.90107 102.998 10.695H95.7387L95.7161 10.2654H99.9222C99.9523 9.5267 99.9222 8.84831 99.8317 8.23022C99.7413 7.59706 99.5905 7.09204 99.3795 6.71515C99.1835 6.33827 98.9197 6.14983 98.588 6.14983C98.1357 6.14983 97.7513 6.47395 97.4347 7.12219C97.1181 7.77043 96.9221 8.87092 96.8468 10.4237L96.9372 10.582C96.9071 10.7478 96.892 10.9212 96.892 11.1021C96.892 11.2679 96.892 11.4488 96.892 11.6448C96.892 12.685 97.0277 13.5141 97.299 14.1322C97.5855 14.7503 97.9397 15.1875 98.3619 15.4438C98.784 15.7 99.2212 15.8282 99.6734 15.8282C99.9297 15.8282 100.216 15.7905 100.533 15.7151C100.849 15.6397 101.181 15.4815 101.528 15.2402C101.874 14.999 102.206 14.6448 102.523 14.1774L102.907 14.3131C102.741 14.9011 102.455 15.4815 102.048 16.0543C101.656 16.6121 101.151 17.0794 100.533 17.4563C99.9146 17.8181 99.1684 17.999 98.294 17.999C97.299 17.999 96.4096 17.7955 95.6256 17.3885C94.8417 16.9664 94.2161 16.3106 93.7487 15.4212C93.2965 14.5166 93.0703 13.3408 93.0703 11.8935C93.0703 10.4614 93.3191 9.2855 93.8166 8.3659C94.3141 7.44631 94.9925 6.76792 95.8518 6.33073C96.7111 5.87847 97.6759 5.65234 98.7463 5.65234Z"
        fill="white" />
    <path
        d="M89.7032 2.2832V5.96912H92.1454V6.42138H89.7032V15.6701C89.7032 16.047 89.771 16.3183 89.9067 16.4841C90.0424 16.6349 90.2459 16.7103 90.5172 16.7103C90.7434 16.7103 90.9771 16.6349 91.2183 16.4841C91.4746 16.3334 91.7082 16.0771 91.9193 15.7153L92.2811 15.9414C91.9947 16.5595 91.5952 17.057 91.0826 17.4339C90.5851 17.8108 89.9293 17.9992 89.1152 17.9992C88.6177 17.9992 88.173 17.9314 87.781 17.7957C87.4041 17.6751 87.0875 17.4867 86.8313 17.2304C86.4996 16.8987 86.281 16.4917 86.1755 16.0093C86.085 15.5118 86.0398 14.8711 86.0398 14.0872V6.42138H84.2307V5.96912H86.0398V3.1425C86.7483 3.1425 87.3966 3.07466 87.9845 2.93898C88.5876 2.8033 89.1604 2.58471 89.7032 2.2832Z"
        fill="white" />
    <path
        d="M75.8115 17.8407C75.118 17.8407 74.5451 17.7126 74.0928 17.4563C73.6406 17.185 73.3089 16.8307 73.0978 16.3935C72.8868 15.9563 72.7812 15.489 72.7812 14.9915C72.7812 14.3583 72.9245 13.8382 73.2109 13.4312C73.5124 13.0242 73.8969 12.7001 74.3642 12.4588C74.8315 12.2026 75.3215 11.9915 75.8341 11.8257C76.3466 11.6599 76.8366 11.5016 77.3039 11.3508C77.7713 11.185 78.1482 10.9965 78.4346 10.7855C78.721 10.5594 78.8643 10.2729 78.8643 9.92619V8.04932C78.8643 7.71766 78.8115 7.40862 78.706 7.12219C78.6155 6.82068 78.4422 6.57948 78.1859 6.39857C77.9447 6.20259 77.6055 6.1046 77.1683 6.1046C76.8969 6.1046 76.6331 6.14229 76.3768 6.21767C76.1205 6.29304 75.8944 6.41365 75.6984 6.57947C76.1808 6.7453 76.5351 6.99405 76.7612 7.3257C77.0024 7.65736 77.123 8.02671 77.123 8.43374C77.123 8.99153 76.9271 9.43625 76.5351 9.7679C76.1582 10.0845 75.7059 10.2428 75.1783 10.2428C74.6054 10.2428 74.1607 10.0619 73.8441 9.70007C73.5426 9.33826 73.3918 8.90107 73.3918 8.38851C73.3918 7.93625 73.5049 7.55937 73.731 7.25786C73.9572 6.94128 74.2888 6.65485 74.726 6.39857C75.1632 6.14229 75.6908 5.95385 76.3089 5.83325C76.9271 5.71264 77.5828 5.65234 78.2763 5.65234C78.9849 5.65234 79.6331 5.72772 80.2211 5.87847C80.8241 6.01415 81.3367 6.29304 81.7588 6.71515C82.0905 7.06189 82.3015 7.48399 82.392 7.98148C82.4824 8.47896 82.5277 9.11213 82.5277 9.88097V15.9865C82.5277 16.3634 82.5578 16.6272 82.6181 16.7779C82.6935 16.9136 82.8066 16.9814 82.9573 16.9814C83.093 16.9814 83.2211 16.9438 83.3417 16.8684C83.4623 16.793 83.5829 16.7101 83.7035 16.6196L83.9523 17.0041C83.6206 17.2754 83.2287 17.4865 82.7764 17.6372C82.3241 17.7729 81.8342 17.8407 81.3065 17.8407C80.7035 17.8407 80.2286 17.7654 79.8819 17.6146C79.5502 17.4488 79.309 17.2302 79.1582 16.9588C79.0226 16.6875 78.9472 16.386 78.9321 16.0543C78.6004 16.597 78.1859 17.0342 77.6884 17.3659C77.1909 17.6824 76.5652 17.8407 75.8115 17.8407ZM77.6884 16.2126C77.9296 16.2126 78.1406 16.1674 78.3215 16.0769C78.5175 15.9714 78.6984 15.798 78.8643 15.5568V10.8533C78.7437 11.0644 78.5778 11.2679 78.3668 11.4639C78.1708 11.6448 77.9597 11.8332 77.7336 12.0292C77.5075 12.2101 77.2889 12.4136 77.0778 12.6398C76.8818 12.8659 76.716 13.1372 76.5803 13.4538C76.4597 13.7553 76.3994 14.1247 76.3994 14.5619C76.3994 15.1498 76.52 15.5719 76.7612 15.8282C77.0024 16.0845 77.3115 16.2126 77.6884 16.2126Z"
        fill="white" />
    <path
        d="M70.2821 0V15.1959C70.2821 15.8743 70.3801 16.3793 70.576 16.711C70.7871 17.0276 71.1414 17.1859 71.6389 17.1859V17.6607C71.1715 17.6155 70.7042 17.5929 70.2368 17.5929C69.5584 17.5929 68.9177 17.6155 68.3147 17.6607C67.7117 17.706 67.1463 17.7889 66.6187 17.9095V2.71356C66.6187 2.03517 66.5207 1.53768 66.3247 1.2211C66.1438 0.889444 65.7895 0.723615 65.2619 0.723615V0.248744C65.7443 0.29397 66.2116 0.316583 66.6639 0.316583C67.3574 0.316583 68.0056 0.29397 68.6087 0.248744C69.2117 0.188442 69.7695 0.105528 70.2821 0ZM64.199 5.65324C64.8624 5.65324 65.4352 5.75123 65.9177 5.94721C66.4001 6.12812 66.7996 6.43716 67.1162 6.87434L66.8448 7.10047C66.6488 6.84419 66.4076 6.65575 66.1212 6.53515C65.8498 6.41455 65.5634 6.35425 65.2619 6.35425C64.5382 6.35425 63.9729 6.8065 63.5659 7.71102C63.1739 8.60047 62.9779 9.97232 62.9779 11.8266C62.9779 13.1231 63.0533 14.1482 63.2041 14.9019C63.3699 15.6406 63.5885 16.1607 63.8598 16.4622C64.1463 16.7638 64.4629 16.9145 64.8096 16.9145C65.277 16.9145 65.6915 16.7411 66.0534 16.3944C66.4302 16.0326 66.6262 15.5577 66.6413 14.9698L66.7091 15.9195C66.4378 16.613 66.0609 17.1331 65.5785 17.4798C65.1111 17.8266 64.5081 17.9999 63.7694 17.9999C62.895 17.9999 62.1035 17.7813 61.395 17.3441C60.7015 16.907 60.1512 16.2361 59.7442 15.3316C59.3522 14.412 59.1562 13.2211 59.1562 11.7587C59.1562 10.3869 59.3673 9.25624 59.7894 8.3668C60.2266 7.46228 60.8221 6.78389 61.5759 6.33163C62.3447 5.87937 63.2191 5.65324 64.199 5.65324Z"
        fill="white" />
    <path
        d="M54.413 0.0664062C55.1216 0.0664062 55.6718 0.224697 56.0638 0.541279C56.4708 0.85786 56.6744 1.31766 56.6744 1.92067C56.6744 2.52368 56.4708 2.98348 56.0638 3.30006C55.6718 3.61664 55.1216 3.77493 54.413 3.77493C53.7045 3.77493 53.1467 3.61664 52.7396 3.30006C52.3477 2.98348 52.1517 2.52368 52.1517 1.92067C52.1517 1.31766 52.3477 0.85786 52.7396 0.541279C53.1467 0.224697 53.7045 0.0664062 54.413 0.0664062ZM56.403 5.71965V15.5789C56.403 16.2121 56.501 16.6417 56.697 16.8678C56.908 17.094 57.2623 17.207 57.7598 17.207V17.6819C57.4583 17.6668 57.0136 17.6518 56.4256 17.6367C55.8377 17.6065 55.2422 17.5915 54.6391 17.5915C54.0361 17.5915 53.418 17.6065 52.7848 17.6367C52.1667 17.6518 51.6994 17.6668 51.3828 17.6819V17.207C51.8803 17.207 52.227 17.094 52.423 16.8678C52.6341 16.6417 52.7396 16.2121 52.7396 15.5789V8.4332C52.7396 7.75482 52.6416 7.25733 52.4456 6.94075C52.2497 6.60909 51.8954 6.44326 51.3828 6.44326V5.96839C51.8652 6.01362 52.3326 6.03623 52.7848 6.03623C53.4632 6.03623 54.104 6.01362 54.707 5.96839C55.3251 5.90809 55.8904 5.82518 56.403 5.71965Z"
        fill="white" />
    <path
        d="M48.9227 0V15.1959C48.9227 15.8743 49.0207 16.3793 49.2167 16.711C49.4277 17.0276 49.782 17.1859 50.2795 17.1859V17.6607C49.8122 17.6155 49.3448 17.5929 48.8775 17.5929C48.1991 17.5929 47.5583 17.6155 46.9553 17.6607C46.3523 17.706 45.787 17.7889 45.2593 17.9095V2.71356C45.2593 2.03517 45.1613 1.53768 44.9653 1.2211C44.7844 0.889444 44.4301 0.723615 43.9025 0.723615V0.248744C44.3849 0.29397 44.8523 0.316583 45.3045 0.316583C45.998 0.316583 46.6463 0.29397 47.2493 0.248744C47.8523 0.188442 48.4101 0.105528 48.9227 0ZM42.8397 5.65324C43.503 5.65324 44.0759 5.75123 44.5583 5.94721C45.0407 6.12812 45.4402 6.43716 45.7568 6.87434L45.4854 7.10047C45.2895 6.84419 45.0483 6.65575 44.7618 6.53515C44.4905 6.41455 44.204 6.35425 43.9025 6.35425C43.1789 6.35425 42.6135 6.8065 42.2065 7.71102C41.8145 8.60047 41.6185 9.97232 41.6185 11.8266C41.6185 13.1231 41.6939 14.1482 41.8447 14.9019C42.0105 15.6406 42.2291 16.1607 42.5005 16.4622C42.7869 16.7638 43.1035 16.9145 43.4502 16.9145C43.9176 16.9145 44.3322 16.7411 44.694 16.3944C45.0709 16.0326 45.2668 15.5577 45.2819 14.9698L45.3498 15.9195C45.0784 16.613 44.7015 17.1331 44.2191 17.4798C43.7517 17.8266 43.1487 17.9999 42.41 17.9999C41.5356 17.9999 40.7442 17.7813 40.0356 17.3441C39.3421 16.907 38.7919 16.2361 38.3848 15.3316C37.9929 14.412 37.7969 13.2211 37.7969 11.7587C37.7969 10.3869 38.0079 9.25624 38.4301 8.3668C38.8672 7.46228 39.4627 6.78389 40.2165 6.33163C40.9854 5.87937 41.8598 5.65324 42.8397 5.65324Z"
        fill="white" />
    <path
        d="M32.0125 5.65234C32.6758 5.65234 33.2035 5.73526 33.5955 5.90109C34.0025 6.06691 34.3115 6.27797 34.5226 6.53425C34.7638 6.82068 34.9372 7.19003 35.0427 7.64228C35.1633 8.09454 35.2236 8.70509 35.2236 9.47394V15.5794C35.2236 16.2126 35.3216 16.6422 35.5176 16.8684C35.7287 17.0945 36.0829 17.2076 36.5804 17.2076V17.6824C36.2789 17.6674 35.8266 17.6523 35.2236 17.6372C34.6357 17.6071 34.0628 17.592 33.505 17.592C32.8869 17.592 32.2914 17.6071 31.7185 17.6372C31.1457 17.6523 30.716 17.6674 30.4296 17.6824V17.2076C30.8517 17.2076 31.1457 17.0945 31.3115 16.8684C31.4773 16.6422 31.5602 16.2126 31.5602 15.5794V8.38851C31.5602 8.04178 31.5226 7.74781 31.4472 7.50661C31.3718 7.25033 31.2437 7.06188 31.0628 6.94128C30.8818 6.8056 30.6256 6.73777 30.2939 6.73777C29.9472 6.73777 29.623 6.82822 29.3215 7.00912C29.0351 7.19003 28.8014 7.44631 28.6205 7.77796C28.4547 8.09454 28.3717 8.45635 28.3717 8.86338V15.5794C28.3717 16.2126 28.4547 16.6422 28.6205 16.8684C28.7863 17.0945 29.0803 17.2076 29.5024 17.2076V17.6824C29.216 17.6674 28.8014 17.6523 28.2587 17.6372C27.716 17.6071 27.1657 17.592 26.6079 17.592C25.9898 17.592 25.3717 17.6071 24.7536 17.6372C24.1355 17.6523 23.6682 17.6674 23.3516 17.6824V17.2076C23.8491 17.2076 24.1958 17.0945 24.3918 16.8684C24.6028 16.6422 24.7084 16.2126 24.7084 15.5794V8.43374C24.7084 7.75535 24.6104 7.25786 24.4144 6.94128C24.2184 6.60963 23.8641 6.4438 23.3516 6.4438V5.96893C23.834 6.01415 24.3013 6.03676 24.7536 6.03676C25.432 6.03676 26.0727 6.01415 26.6757 5.96893C27.2938 5.90862 27.8592 5.82571 28.3717 5.72018V7.55183C28.7336 6.85837 29.2235 6.36842 29.8416 6.08199C30.4748 5.79556 31.1984 5.65234 32.0125 5.65234Z"
        fill="white" />
    <path
        d="M14.3661 17.8407C13.6727 17.8407 13.0998 17.7126 12.6475 17.4563C12.1952 17.185 11.8636 16.8307 11.6525 16.3935C11.4415 15.9563 11.3359 15.489 11.3359 14.9915C11.3359 14.3583 11.4792 13.8382 11.7656 13.4312C12.0671 13.0242 12.4515 12.7001 12.9189 12.4588C13.3862 12.2026 13.8762 11.9915 14.3888 11.8257C14.9013 11.6599 15.3913 11.5016 15.8586 11.3508C16.326 11.185 16.7029 10.9965 16.9893 10.7855C17.2757 10.5594 17.419 10.2729 17.419 9.92619V8.04932C17.419 7.71766 17.3662 7.40862 17.2607 7.12219C17.1702 6.82068 16.9968 6.57948 16.7406 6.39857C16.4993 6.20259 16.1601 6.1046 15.7229 6.1046C15.4516 6.1046 15.1878 6.14229 14.9315 6.21767C14.6752 6.29304 14.4491 6.41365 14.2531 6.57947C14.7355 6.7453 15.0898 6.99405 15.3159 7.3257C15.5571 7.65736 15.6777 8.02671 15.6777 8.43374C15.6777 8.99153 15.4817 9.43625 15.0898 9.7679C14.7129 10.0845 14.2606 10.2428 13.733 10.2428C13.1601 10.2428 12.7154 10.0619 12.3988 9.70007C12.0973 9.33826 11.9465 8.90107 11.9465 8.38851C11.9465 7.93625 12.0596 7.55937 12.2857 7.25786C12.5118 6.94128 12.8435 6.65485 13.2807 6.39857C13.7179 6.14229 14.2455 5.95385 14.8636 5.83325C15.4817 5.71264 16.1375 5.65234 16.831 5.65234C17.5396 5.65234 18.1878 5.72772 18.7758 5.87847C19.3788 6.01415 19.8914 6.29304 20.3135 6.71515C20.6451 7.06189 20.8562 7.48399 20.9467 7.98148C21.0371 8.47896 21.0823 9.11213 21.0823 9.88097V15.9865C21.0823 16.3634 21.1125 16.6272 21.1728 16.7779C21.2482 16.9136 21.3612 16.9814 21.512 16.9814C21.6477 16.9814 21.7758 16.9438 21.8964 16.8684C22.017 16.793 22.1376 16.7101 22.2582 16.6196L22.507 17.0041C22.1753 17.2754 21.7833 17.4865 21.3311 17.6372C20.8788 17.7729 20.3889 17.8407 19.8612 17.8407C19.2582 17.8407 18.7833 17.7654 18.4366 17.6146C18.1049 17.4488 17.8637 17.2302 17.7129 16.9588C17.5772 16.6875 17.5019 16.386 17.4868 16.0543C17.1551 16.597 16.7406 17.0342 16.2431 17.3659C15.7456 17.6824 15.1199 17.8407 14.3661 17.8407ZM16.2431 16.2126C16.4843 16.2126 16.6953 16.1674 16.8762 16.0769C17.0722 15.9714 17.2531 15.798 17.419 15.5568V10.8533C17.2983 11.0644 17.1325 11.2679 16.9215 11.4639C16.7255 11.6448 16.5144 11.8332 16.2883 12.0292C16.0621 12.2101 15.8436 12.4136 15.6325 12.6398C15.4365 12.8659 15.2707 13.1372 15.135 13.4538C15.0144 13.7553 14.9541 14.1247 14.9541 14.5619C14.9541 15.1498 15.0747 15.5719 15.3159 15.8282C15.5571 16.0845 15.8662 16.2126 16.2431 16.2126Z"
        fill="white" />
    <path
        d="M5.69859 5.65234C6.33177 5.65234 6.8971 5.72018 7.3946 5.85586C7.89209 5.97646 8.29914 6.13475 8.61572 6.33073C9.00769 6.57194 9.32428 6.88098 9.56549 7.25786C9.8067 7.63475 9.9273 8.07193 9.9273 8.56942C9.9273 9.14228 9.73886 9.62469 9.36197 10.0166C8.98508 10.3935 8.51019 10.582 7.93732 10.582C7.34937 10.582 6.88203 10.4086 6.53529 10.0619C6.20362 9.71514 6.03779 9.27042 6.03779 8.72771C6.03779 8.20007 6.20362 7.75535 6.53529 7.39354C6.86695 7.03173 7.25892 6.79053 7.71119 6.66993C7.59058 6.54932 7.43229 6.45133 7.2363 6.37596C7.0554 6.30058 6.8368 6.26289 6.58051 6.26289C6.06794 6.26289 5.63829 6.41365 5.29155 6.71515C4.94481 7.00158 4.65837 7.40108 4.43224 7.91364C4.22118 8.41113 4.06288 8.97645 3.95735 9.60961C3.8669 10.2277 3.82167 10.8684 3.82167 11.5317C3.82167 12.6473 3.96489 13.5217 4.25133 14.1548C4.55284 14.7729 4.92219 15.2101 5.35939 15.4664C5.81166 15.7076 6.27146 15.8282 6.73881 15.8282C6.98002 15.8282 7.25892 15.7905 7.57551 15.7151C7.89209 15.6397 8.22376 15.4815 8.5705 15.2402C8.93231 14.999 9.27151 14.6372 9.5881 14.1548L9.97253 14.2905C9.8067 14.8784 9.5278 15.4588 9.13583 16.0317C8.74387 16.6046 8.23883 17.0794 7.62073 17.4563C7.00263 17.8181 6.24885 17.999 5.35939 17.999C4.3644 17.999 3.45986 17.7955 2.64577 17.3885C1.84677 16.9814 1.20605 16.3257 0.72363 15.4212C0.24121 14.5166 0 13.3332 0 11.8709C0 10.4538 0.248748 9.29303 0.746244 8.38851C1.24374 7.46892 1.92214 6.78299 2.78145 6.33073C3.65584 5.87847 4.62822 5.65234 5.69859 5.65234Z"
        fill="white" />
</svg>