<svg width="22" height="22" viewBox="0 0 22 22" fill="none" xmlns="http://www.w3.org/2000/svg">
    <circle cx="11.0016" cy="11.0016" r="9.61098" stroke="black" stroke-width="1.25" stroke-linecap="round"
        stroke-linejoin="round" />
    <path
        d="M7.5 9.75C8.19036 9.75 8.75 9.19033 8.75 8.5C8.75 7.80964 8.19036 7.25 7.5 7.25C6.80964 7.25 6.25 7.80964 6.25 8.5C6.25 9.19033 6.80964 9.75 7.5 9.75Z"
        fill="#0F0F0F" />
    <path
        d="M15.75 8.5C15.75 9.19033 15.1903 9.75 14.5 9.75C13.8097 9.75 13.25 9.19033 13.25 8.5C13.25 7.80964 13.8097 7.25 14.5 7.25C15.1903 7.25 15.75 7.80964 15.75 8.5Z"
        fill="#0F0F0F" />
    <path d="M7.25 13.25C9.25 15.25 13.25 15.25 15.25 13.25" stroke="black" stroke-width="1.25"
        stroke-linecap="round" />
</svg>