<svg width="44" height="44" viewBox="0 0 44 44" fill="none" xmlns="http://www.w3.org/2000/svg">
    <path
        d="M5.15367 16.392C5.08587 16.392 5.01696 16.3793 4.95027 16.3524C4.67131 16.24 4.53603 15.923 4.64821 15.6439C4.68634 15.549 5.60525 13.2968 7.59069 11.2882C10.2617 8.58608 13.5731 7.64904 17.1669 8.57896L23.3037 10.0875C23.5961 10.1593 23.7747 10.4546 23.7028 10.7469C23.631 11.0392 23.3358 11.2176 23.0435 11.146L16.9003 9.63578C13.6627 8.79833 10.8015 9.60469 8.38959 12.0306C6.54845 13.8824 5.66815 16.0294 5.65944 16.0509C5.57369 16.2631 5.36941 16.392 5.15367 16.392Z"
        fill="#444444" />
    <path
        d="M3.37223 28.9427C3.26487 28.9427 3.1564 28.9112 3.06155 28.8456C2.77397 28.6465 1.89912 28.0409 1.76336 21.993C1.7477 21.295 1.79612 20.6874 1.91131 20.1354C2.77879 15.9791 6.35482 13.4522 12.2526 12.8279C16.5904 12.3684 20.6096 13.0833 20.7786 13.1139C21.0747 13.1676 21.2711 13.4511 21.2176 13.7472C21.1639 14.0433 20.8803 14.24 20.5842 14.1864C20.5441 14.1792 16.5315 13.4673 12.3467 13.914C6.9015 14.4953 3.74952 16.6634 2.9784 20.3581C2.8803 20.8278 2.83939 21.3546 2.85316 21.9685C2.94232 25.9406 3.39873 27.7222 3.68386 27.9506C3.93132 28.122 3.99216 28.4608 3.8208 28.7083C3.71511 28.861 3.54501 28.9427 3.37223 28.9427Z"
        fill="#444444" />
    <path
        d="M6.67842 38.8303C6.28672 38.8303 5.95033 38.8135 5.67525 38.7912C4.98435 38.735 4.39851 38.2435 4.2175 37.5686L2.19258 30.0186C2.00136 29.3054 2.31481 28.5422 2.95484 28.1626C13.1514 22.1175 20.6868 12.9485 22.7534 10.2823C23.2362 9.65949 24.0993 9.46448 24.8051 9.81873L33.0181 13.9379C33.4461 14.1527 33.7607 14.5415 33.8808 15.0048C34.0005 15.4665 33.9151 15.957 33.6466 16.3508C32.6447 17.82 30.2504 21.1035 24.5343 28.4028C21.0758 32.8193 17.2188 35.8917 13.0707 37.5347C10.3964 38.5941 8.14946 38.8303 6.67842 38.8303ZM23.615 10.9501C21.5185 13.6546 13.873 22.9568 3.51077 29.1001C3.28933 29.2314 3.18016 29.4931 3.24543 29.7362L5.27035 37.2861C5.33237 37.5175 5.53063 37.6857 5.7637 37.7047C6.97755 37.8036 9.48862 37.7811 12.6694 36.5213C16.6353 34.9504 20.3385 31.9928 23.6762 27.7307C29.374 20.4547 31.7534 17.1922 32.7461 15.7366C32.8389 15.6006 32.8671 15.4378 32.8257 15.2783C32.784 15.1171 32.6787 14.987 32.5294 14.9121L24.3164 10.7929C24.0745 10.6716 23.7796 10.7377 23.615 10.9501Z"
        fill="#444444" />
    <path
        d="M37.023 37.3525C36.9921 37.3525 36.9614 37.3521 36.9304 37.3513C34.7857 37.2939 31.5285 36.4762 28.1872 32.9071L23.7319 28.4521C23.519 28.2393 23.519 27.8942 23.7319 27.6815C23.9447 27.4686 24.2899 27.4686 24.5026 27.6815L28.9642 32.1428C28.9686 32.1471 28.9728 32.1514 28.9769 32.1559C32.063 35.4554 35.0213 36.2099 36.9594 36.2616C37.9875 36.2885 38.9033 35.6331 39.236 34.629C40.9247 29.5319 39.4713 24.2609 39.4565 24.2083C39.4405 24.1519 39.4337 24.093 39.4364 24.0345C39.5814 20.9095 38.5993 18.5837 36.5172 17.1217C34.959 16.0278 33.3591 15.8458 33.343 15.8441C33.0438 15.8121 32.8271 15.5436 32.8592 15.2443C32.8912 14.945 33.1605 14.7286 33.459 14.7604C33.5357 14.7687 35.3575 14.9757 37.1436 16.2298C38.7877 17.3842 40.7035 19.6676 40.529 23.9984C40.7287 24.7507 41.9659 29.8551 40.2707 34.9717C39.7959 36.4055 38.4979 37.3524 37.023 37.3525Z"
        fill="#444444" />
    <path
        d="M36.0031 25.2024C32.9616 25.2024 30.3917 24.1446 28.5677 22.1411C28.365 21.9186 28.3812 21.5739 28.6038 21.3712C28.8262 21.1686 29.171 21.1848 29.3736 21.4074C31.0079 23.2024 33.238 24.1124 36.0022 24.1124C36.0067 24.1124 36.0111 24.1124 36.0156 24.1124C38.1254 24.1102 39.7678 23.5512 39.7841 23.5456C40.0683 23.447 40.3788 23.598 40.4773 23.8821C40.5758 24.1663 40.4258 24.4764 40.1416 24.5752C40.069 24.6005 38.3375 25.1936 36.0527 25.2022C36.0364 25.2024 36.0194 25.2024 36.0031 25.2024Z"
        fill="#444444" />
    <path
        d="M3.66003 33.9034C3.42498 33.9034 3.20805 33.75 3.1378 33.5133C3.05212 33.2248 3.2166 32.9215 3.5052 32.8358C3.55995 32.8195 8.02815 31.467 13.1058 28.1638C17.7732 25.1276 23.9308 19.7699 26.7599 11.4881C26.8571 11.2034 27.1668 11.0511 27.4518 11.1486C27.7366 11.2458 27.8887 11.5556 27.7914 11.8405C26.4948 15.6362 24.4249 19.1582 21.6391 22.3088C19.4163 24.8228 16.7356 27.1064 13.6716 29.0962C8.45932 32.4811 4.00259 33.8252 3.81549 33.8807C3.76367 33.896 3.71145 33.9034 3.66003 33.9034Z"
        fill="#444444" />
    <path
        d="M2.30615 22.5264C2.11145 22.5264 1.92316 22.4219 1.82498 22.2383C1.68313 21.9729 1.78313 21.6428 2.0484 21.5009C2.35575 21.3364 9.62901 17.5027 14.3594 19.9367C14.627 20.0744 14.7323 20.4029 14.5946 20.6706C14.4569 20.9383 14.1284 21.0436 13.8606 20.9058C9.63945 18.7338 2.63273 22.4245 2.56248 22.462C2.48067 22.5057 2.39278 22.5264 2.30615 22.5264Z"
        fill="#444444" />
    <path
        d="M36.0742 16.7579C35.9405 16.7579 35.8067 16.7091 35.7015 16.6105C35.482 16.4046 35.4709 16.0597 35.6767 15.8402L40.2363 10.9781C40.3404 10.8665 40.3746 10.6995 40.3226 10.5533C39.0298 6.92666 35.4578 6.34355 33.982 6.2612C33.803 6.25115 33.6409 6.35787 33.5768 6.52653L30.9618 13.4146C30.8549 13.696 30.5404 13.8375 30.2588 13.7308C29.9774 13.6239 29.8359 13.3093 29.9427 13.0279L32.5578 6.13977C32.7911 5.52501 33.39 5.13627 34.0427 5.17306C35.7358 5.26759 39.8371 5.94532 41.3493 10.1875C41.5396 10.7212 41.4181 11.3095 41.0324 11.7228L36.4719 16.5859C36.3646 16.7001 36.2195 16.7579 36.0742 16.7579Z"
        fill="#444444" />
    <path
        d="M38.3174 18.6436C38.1841 18.6436 38.0507 18.5951 37.9457 18.4971C37.7256 18.2917 37.7136 17.9469 37.919 17.7268L41.0494 14.3719C41.1543 14.2594 41.1885 14.0923 41.1364 13.9463C40.8763 13.2165 40.509 12.5668 40.0446 12.0151C39.8507 11.7849 39.8802 11.441 40.1105 11.2472C40.3409 11.0534 40.6846 11.0828 40.8785 11.3132C41.4271 11.9648 41.8593 12.7275 42.1632 13.5802C42.3535 14.1137 42.2321 14.702 41.8464 15.1153L38.716 18.4703C38.6086 18.5854 38.4631 18.6436 38.3174 18.6436Z"
        fill="#444444" />
    <path
        d="M26.8591 12.0042C26.7948 12.0042 26.7295 11.9927 26.6658 11.9686C26.3844 11.8617 26.2429 11.547 26.3497 11.2657L28.1624 6.49135C28.3958 5.87651 28.9919 5.48769 29.6474 5.52464C30.4992 5.5721 31.7889 5.75366 33.0959 6.3484C33.37 6.47308 33.4909 6.79624 33.3662 7.07019C33.2415 7.34414 32.9184 7.46518 32.6443 7.34043C31.4915 6.81578 30.3452 6.65518 29.5867 6.61294C29.4075 6.6025 29.2455 6.70961 29.1814 6.87827L27.3688 11.6526C27.286 11.8702 27.0789 12.0042 26.8591 12.0042Z"
        fill="#444444" />
</svg>