<svg width="20" height="21" viewBox="0 0 20 21" fill="none" xmlns="http://www.w3.org/2000/svg">
<path fill-rule="evenodd" clip-rule="evenodd" d="M13.5857 2.79297H6.37567C3.86567 2.79297 2.2915 4.5713 2.2915 7.08797V13.8763C2.2915 16.393 3.859 18.1713 6.37567 18.1713H13.5815C16.1023 18.1713 17.669 16.393 17.669 13.8763V7.08797C17.6723 4.5713 16.1048 2.79297 13.5857 2.79297Z" stroke="black" stroke-width="1.25" stroke-linecap="round" stroke-linejoin="round"/>
<path fill-rule="evenodd" clip-rule="evenodd" d="M8.91944 7.82349C8.91944 8.67349 8.23111 9.36182 7.38111 9.36182C6.53194 9.36182 5.84277 8.67349 5.84277 7.82349C5.84277 6.97349 6.53194 6.28516 7.38111 6.28516C8.23027 6.28599 8.91861 6.97432 8.91944 7.82349Z" stroke="black" stroke-width="1.25" stroke-linecap="round" stroke-linejoin="round"/>
<path d="M17.6725 12.9611C16.9033 12.1695 15.4242 10.5703 13.8158 10.5703C12.2067 10.5703 11.2792 14.0978 9.73167 14.0978C8.18417 14.0978 6.77833 12.5028 5.53833 13.5253C4.29833 14.547 3.125 16.6361 3.125 16.6361" stroke="black" stroke-width="1.25" stroke-linecap="round" stroke-linejoin="round"/>
</svg>

