<svg width="207" height="837" viewBox="0 0 207 837" fill="none" xmlns="http://www.w3.org/2000/svg">
<mask id="mask0_309_4441" style="mask-type:alpha" maskUnits="userSpaceOnUse" x="0" y="0" width="207" height="837">
<rect width="207" height="837" fill="#F4B544"/>
</mask>
<g mask="url(#mask0_309_4441)">
<mask id="mask1_309_4441" style="mask-type:luminance" maskUnits="userSpaceOnUse" x="91" y="649" width="81" height="268">
<path d="M91.8828 649.485H171.201V916.218H91.8828V649.485Z" fill="white"/>
</mask>
<g mask="url(#mask1_309_4441)">
<g opacity="0.149994">
<path d="M115.695 649.709C115.695 649.709 113.05 648.68 111.286 651.033C109.521 653.384 105.259 656.619 104.23 657.206C103.201 657.794 98.056 658.529 97.4682 659.999C96.8805 661.469 94.3811 665.879 93.7933 668.084C93.2056 670.288 91.8828 673.375 91.8828 682.489C91.8828 691.603 92.9112 694.542 94.0877 696.012C95.2633 697.483 115.107 713.945 118.635 717.326C122.163 720.708 123.78 724.677 123.926 728.203C124.074 731.732 126.003 767.649 124.039 796.849C122.169 824.645 116.874 916.219 116.874 916.219H171.202C171.202 916.219 168.24 796.703 166.529 781.857C164.816 767.01 162.578 725.481 163.165 720.923C163.753 716.366 161.219 711.749 160.779 703.37C160.338 694.992 159.137 681.652 155.616 679.17L153.362 675.838C153.362 675.838 154.244 672.09 154.17 671.905C154.097 671.722 151.488 667.239 147.85 665.511C144.211 663.784 140.757 666.54 140.757 666.54L140.096 663.49C140.096 663.49 135.962 658.897 132.222 658.64C128.483 658.382 125.287 662.903 125.14 662.793C124.992 662.681 121.465 659.559 121.465 659.559L117.422 657.537C117.422 657.537 117.495 650.665 115.695 649.709Z" fill="#7DABF8"/>
<path d="M94.9703 670.949C94.9703 670.949 96.4038 681.532 98.1671 684.729C99.9314 687.927 102.246 691.124 102.246 691.124C102.246 691.124 99.9863 693.936 100.207 696.525C100.427 699.116 98.7183 696.746 100.372 692.061C102.026 687.376 98.0016 694.663 97.2301 695.092C96.2383 695.643 95.08 692.282 97.8372 688.367C97.8372 688.367 94.0882 677.729 94.9703 670.949Z" fill="#215CBE"/>
<path d="M116.933 657.472C116.933 657.257 116.023 662.653 113.873 663.949C111.724 665.244 105.798 662.433 105.44 663.039C105.082 663.645 110.125 664.556 110.951 666.209C111.779 667.862 112.936 675.47 114.646 676.738C116.354 678.006 123.575 678.336 129.528 682.856C135.481 687.376 135.646 688.974 138.513 689.801C141.38 690.627 147.497 689.085 150.199 691.675C152.9 694.266 154.332 694.928 155.27 694.928C156.207 694.928 155.27 693.549 151.852 691.4C148.435 689.25 141.048 690.352 138.623 688.644C136.197 686.934 133.441 682.084 127.323 679.879C121.205 677.674 115.472 677.674 114.81 675.194C114.149 672.714 111.889 667.422 112.441 666.319C112.992 665.217 116.905 665.326 116.933 657.472Z" fill="#215CBE"/>
<path d="M124.516 663.177C124.516 663.177 126.444 672.107 126.5 674.752C126.555 677.399 125.342 679.713 125.508 679.824C125.674 679.935 126.502 680.1 126.502 680.1C126.502 680.1 127.492 680.265 127.492 676.957C127.492 673.65 125.122 660.807 124.516 663.177Z" fill="#D38C00"/>
<path d="M140.116 666.483C140.116 666.483 139.895 680.76 139.179 682.248C138.462 683.736 135.868 685.984 136.061 686.188C136.254 686.392 136.979 687.152 136.979 687.152C136.979 687.152 139.123 685.555 139.785 683.296C140.446 681.036 140.887 664.223 140.116 666.483Z" fill="#D38C00"/>
<path d="M153.363 675.837C152.587 676.832 151.471 681.588 149.872 683.571C148.273 685.556 144.039 689.789 144.039 689.789L145.796 689.935C145.796 689.935 148.99 687.155 150.314 684.674C151.636 682.194 154.539 674.33 153.363 675.837Z" fill="#215CBE"/>
</g>
</g>
<mask id="mask2_309_4441" style="mask-type:luminance" maskUnits="userSpaceOnUse" x="5" y="688" width="80" height="267">
<path d="M5 688.267H84.3184V955H5V688.267Z" fill="white"/>
</mask>
<g mask="url(#mask2_309_4441)">
<g opacity="0.380005">
<path d="M51.6874 701.96C51.6874 701.96 49.7586 710.889 49.7028 713.535C49.6479 716.181 50.8611 718.496 50.6956 718.605C50.5301 718.717 49.7007 718.881 49.7007 718.881C49.7007 718.881 48.7109 719.047 48.7109 715.739C48.7109 712.432 51.0813 699.589 51.6874 701.96Z" fill="#D38C00"/>
</g>
</g>
<path d="M193.011 637.39C193.011 637.39 188.853 633.45 188.397 633.558C187.94 633.664 181.069 634.722 176.667 637.573C172.266 640.421 165.343 642.293 164.027 643.706C162.712 645.12 157.986 650.943 156.28 652.058C154.577 653.175 156.474 658.332 158.186 658.85C159.897 659.366 170.138 654.577 170.579 654.06C171.021 653.543 174.84 661.953 174.84 661.953C174.84 661.953 183.218 656.5 183.793 655.992C184.371 655.484 193.011 637.39 193.011 637.39Z" fill="#EBB637"/>
<path d="M159.867 649.948C160.057 649.729 187.074 646.257 187.074 646.257L172.711 571.731C172.711 571.731 143.257 566.725 129.301 575.355C129.301 575.355 145.52 649.459 146.104 653.142L159.867 649.948Z" fill="#FFD87E"/>
<path d="M180.683 633.611C180.683 633.611 180.472 626.974 175.728 625.945C170.985 624.917 170.175 626.226 170.616 629.294C171.054 632.361 168.855 638.39 167.673 639.857C166.49 641.324 165.249 647.959 162.539 652.051C159.828 656.142 157.413 662.703 157.396 662.974C157.379 663.244 156.865 675.422 156.702 679.403C156.538 683.385 157.231 693.993 160.609 697.929C163.988 701.865 168.998 712.243 168.542 714.756C168.404 715.507 169.68 719.337 169.44 734.112C168.714 778.829 165.956 869.446 165.956 869.446C165.956 869.446 211.41 871.088 211.352 871.99C211.294 872.895 200.267 721.964 199.454 717.648C198.641 713.331 199.377 707.481 199.377 707.481C199.377 707.481 204.442 700.636 205.524 697.893C206.606 695.149 211.39 682.751 212.811 680.392C214.231 678.034 215.485 674.03 215.485 674.03C215.485 674.03 214.585 671.069 213.824 670.205C213.063 669.339 214.856 666.822 213.837 664.308C212.818 661.793 210.415 659.644 210.415 659.644C210.415 659.644 210.034 657.078 208.94 655.739C207.846 654.399 202.787 648.358 202.787 648.358C202.787 648.358 206.485 633.08 206.522 631.086C206.557 629.093 206.148 626.98 204.58 625.972C203.01 624.964 190.319 620.525 188.337 620.308C186.355 620.091 182.625 621.667 182.625 621.667L183.315 631.465C183.315 631.465 186.73 631.274 187.832 631.073C188.933 630.871 191.947 632.696 191.947 632.696L190.681 635.474C190.681 635.474 189.085 643.402 188.483 644.316C187.88 645.23 183.54 653.527 179.371 657.004L175.203 660.481C175.203 660.481 175.656 651.239 177.245 647.674C178.833 644.109 180.52 636.867 180.52 636.867L180.683 633.611Z" fill="#4177D1"/>
<path d="M202.791 648.358C202.791 648.358 201.481 656.078 201.368 656.434C201.255 656.79 199.645 663.537 199.645 663.537C199.645 663.537 201.321 661.674 203.186 656.369L205.053 651.063L202.791 648.358Z" fill="#2E68C8"/>
<path d="M210.416 659.643C210.416 659.643 210.345 662.179 210.125 664.207C209.906 666.234 208.162 669.389 207.37 670.428C206.577 671.466 207.171 671.401 207.601 671.598C208.031 671.797 208.158 672.995 207.277 675.083C206.394 677.17 208.465 674.581 210.435 670.385C212.403 666.189 212.021 665.246 212.079 664.332C212.138 663.417 210.606 658.987 210.416 659.643Z" fill="#2E68C8"/>
<path d="M202.503 690.939C202.503 690.939 197.711 700.16 197.027 704.471C196.344 708.783 195.816 710.655 196.509 712.605C197.2 714.554 196.771 712.757 198.1 706.854C199.43 700.95 204.429 687.001 202.503 690.939Z" fill="#2E68C8"/>
<path d="M165.401 705.838C165.401 705.838 164 703.861 163.887 699.226C163.775 694.592 164.001 692.657 164.576 696.452C165.149 700.249 165.37 699.457 166.399 702.517C167.429 705.577 168.061 711.521 168.061 711.521L165.401 705.838Z" fill="#2E68C8"/>
<path d="M187.833 631.072C187.833 631.072 186.345 625.6 186.495 624.318C186.645 623.034 187.126 622.929 187.319 625.255C187.511 627.581 187.72 630.928 188.577 630.712C189.435 630.493 191.047 631.889 192.498 630.485C193.948 629.08 195.721 627.968 194.757 629.2C193.794 630.431 192.403 631.696 191.948 632.695C191.948 632.695 191.238 632.105 187.833 631.072Z" fill="#2E68C8"/>
<path d="M178.4 629.075C178.4 629.075 178.911 631.72 178.155 632.902C177.4 634.082 174.685 635.03 172.659 634.8C170.632 634.567 169.765 635.139 169.765 635.139C169.765 635.139 168.003 635.761 172.704 635.687C177.404 635.612 177.492 635.822 178.745 633.793C179.997 631.763 178.625 626.606 178.4 629.075Z" fill="#2E68C8"/>
<path d="M175.858 657.366C175.858 657.366 172.117 661.613 172.943 666.974C173.771 672.334 173.496 672.384 174.01 667.518C174.525 662.651 175.274 661.981 178.722 657.549C180.433 655.349 176.707 654.726 175.858 657.366Z" fill="#EBB637"/>
<path d="M244.988 603.919C244.988 603.919 240.64 594.898 239.771 593.703C238.901 592.507 222.054 588.921 218.793 588.921C215.533 588.921 213.685 592.289 210.316 596.42C210.316 596.42 208.358 602.18 205.75 608.267C203.142 614.354 196.947 624.353 196.513 626.854C196.077 629.353 196.729 631.853 201.294 642.07C205.859 652.287 210.859 665.656 213.468 674.026C216.077 682.395 216.403 687.502 216.403 687.502H247.922C247.922 687.502 250.096 673.807 251.183 667.612C252.269 661.417 252.488 652.938 251.835 650.439C251.183 647.939 246.618 637.505 246.618 637.505C246.618 637.505 246.618 627.504 246.075 625.984C245.531 624.462 245.096 622.722 245.096 622.722L244.77 613.81C244.77 613.81 246.183 612.398 246.401 611.31C246.618 610.223 244.988 603.919 244.988 603.919Z" fill="#2B64C3"/>
<path d="M207.382 639.352C207.382 639.352 203.33 642.489 203.618 647.442C203.618 647.442 203.089 648.006 203.293 645.357C203.496 642.708 205.277 639.297 207.382 639.352Z" fill="#215CBE"/>
<path d="M205.045 627.179C204.884 627.423 216.639 618.755 222.118 615.766C227.597 612.776 234.391 607.125 237.107 608.592C239.825 610.06 241.509 612.776 241.509 612.776C241.509 612.776 243.031 613.114 238.249 608.353C233.467 603.593 231.62 609.57 231.401 607.451C231.184 605.331 234.173 602.179 232.434 602.505C230.696 602.832 231.252 607.341 228.039 610.249C224.826 613.157 206.892 624.352 205.045 627.179Z" fill="#215CBE"/>
<path d="M124.409 608.859C124.409 608.859 128.974 557.34 122.234 542.993C122.234 542.993 169.406 551.253 170.493 552.775L171.579 554.297C171.579 554.297 168.5 612.222 160.059 629.945L124.409 608.859Z" fill="#FFD150"/>
<path d="M146.366 605.491C146.366 605.491 142.019 596.469 141.149 595.275C140.279 594.079 123.433 590.492 120.172 590.492C116.911 590.492 115.064 593.861 111.695 597.991C111.695 597.991 109.738 603.752 107.129 609.838C104.521 615.925 98.3258 625.925 97.8914 628.425C97.4558 630.925 98.1086 633.425 102.673 643.641C107.239 653.859 112.238 667.227 114.847 675.597C117.456 683.966 117.781 689.074 117.781 689.074H149.301C149.301 689.074 151.475 675.38 152.562 669.183C153.649 662.988 153.866 654.51 153.215 652.01C152.562 649.51 147.997 639.076 147.997 639.076C147.997 639.076 147.997 629.077 147.454 627.555C146.911 626.033 146.475 624.294 146.475 624.294L146.149 615.382C146.149 615.382 147.562 613.969 147.779 612.882C147.997 611.795 146.366 605.491 146.366 605.491Z" fill="#4177D1"/>
<path d="M123.785 655.244C123.785 655.244 129.736 653.042 131.122 650.026C132.508 647.011 132.589 645.217 132.589 645.217C132.589 645.217 128.432 646.439 127.046 645.951C125.66 645.461 129.002 645.053 132.263 644.238C135.524 643.423 137.399 638.37 138.54 636.902C139.681 635.434 140.007 635.978 138.54 639.783C137.073 643.587 135.85 643.505 138.133 645.135C140.415 646.765 144.491 646.358 143.92 647.092C143.35 647.825 137.643 645.787 136.909 648.314C136.177 650.841 134.464 653.124 135.85 655.244C137.236 657.362 140.415 655.978 140.415 655.978C140.415 655.978 144.898 650.189 145.958 648.395C147.017 646.602 142.371 656.14 140.17 657.77C137.969 659.401 143.431 663.395 143.267 664.292C143.105 665.188 136.013 656.873 134.057 655.651C132.1 654.428 132.834 651.004 131.61 651.738C130.388 652.472 121.829 657.526 123.785 655.244Z" fill="#2E68C8"/>
<path d="M119.463 634.051C119.463 634.051 135.603 626.061 136.989 626.061C138.375 626.061 142.125 630.627 143.593 633.072C145.06 635.518 138.62 624.676 138.131 624.512C137.642 624.35 142.044 620.355 140.821 620.681C139.598 621.007 138.049 623.045 138.049 623.045C138.049 623.045 140.7 618.497 140.06 618.119C139.42 617.741 137.56 622.882 136.908 623.371C136.256 623.86 114.622 636.414 119.463 634.051Z" fill="#2E68C8"/>
<path d="M108.757 640.926C108.757 640.926 104.705 644.063 104.993 649.016C104.993 649.016 104.464 649.58 104.668 646.931C104.872 644.282 106.652 640.871 108.757 640.926Z" fill="#2E68C8"/>
<path d="M106.423 628.752C106.263 628.996 118.018 620.328 123.498 617.339C128.976 614.35 135.77 608.698 138.486 610.165C141.204 611.633 142.889 614.35 142.889 614.35C142.889 614.35 144.411 614.688 139.628 609.926C134.846 605.166 132.998 611.144 132.781 609.024C132.564 606.904 135.553 603.753 133.814 604.078C132.075 604.405 132.631 608.914 129.418 611.822C126.205 614.73 108.271 625.926 106.423 628.752Z" fill="#2E68C8"/>
<path d="M114.305 608.262C114.305 608.262 124.63 599.458 126.098 598.534C127.565 597.611 130.989 596.36 134.413 598.534C134.413 598.534 135.88 598.514 133.924 597.328C131.967 596.143 127.602 596.36 125.681 597.665C123.761 598.97 122.403 595.329 121.478 596.552C120.554 597.774 123.489 597.719 121.152 600.871C118.815 604.023 112.892 608.099 114.305 608.262Z" fill="#2E68C8"/>
<path d="M146.151 615.382C146.151 615.382 146.468 618.452 142.392 608.262C138.316 598.073 134.413 598.535 134.413 598.535C134.413 598.535 132.61 595.73 136.686 598.532C140.762 601.334 141.088 602.884 142.718 606.553C144.348 610.219 144.938 615.083 146.151 615.382Z" fill="#2E68C8"/>
<path d="M144.59 666.356C144.59 666.356 146.439 670.269 146.113 676.899C145.785 683.529 148.502 667.66 144.59 666.356Z" fill="#2E68C8"/>
<path d="M131.284 674.835L117.78 689.073L108.758 859.858C108.758 859.858 167.088 863.989 162.957 859.858C158.828 855.728 148.611 723.964 149.046 710.485C149.48 697.008 148.019 697.048 149.299 689.073C150.579 681.1 131.284 674.835 131.284 674.835Z" fill="#4177D1"/>
<path d="M113.824 672.437C113.824 672.437 119.97 684.238 125.676 685.053C131.382 685.867 132.85 685.053 132.85 685.053C132.85 685.053 136.183 685.596 126.981 687.335C117.779 689.075 117.663 691.103 117.663 691.103C117.663 691.103 117.362 685.053 116.873 683.75C116.383 682.444 113.824 672.437 113.824 672.437Z" fill="#2E68C8"/>
<path d="M71.7138 631.821C71.7138 631.821 67.5557 627.88 67.0999 627.988C66.6441 628.094 59.7714 629.153 55.3707 632.003C50.97 634.851 44.0456 636.723 42.7299 638.137C41.4153 639.549 36.6887 645.373 34.9842 646.489C33.2798 647.605 35.1771 652.762 36.8887 653.279C38.6002 653.796 48.8412 649.007 49.2828 648.49C49.7234 647.974 53.5424 656.383 53.5424 656.383C53.5424 656.383 61.9205 650.929 62.4972 650.422C63.0738 649.914 71.7138 631.821 71.7138 631.821Z" fill="#BF8100"/>
<path d="M38.5704 644.379C38.7603 644.159 65.7768 640.686 65.7768 640.686L51.4143 566.162C51.4143 566.162 21.9604 561.156 8.00391 569.785C8.00391 569.785 24.2242 643.888 24.8069 647.572L38.5704 644.379Z" fill="#BA8E1D"/>
<path d="M59.3868 628.04C59.3868 628.04 59.1756 621.403 54.4318 620.374C49.6889 619.346 48.8788 620.655 49.3184 623.722C49.758 626.791 47.5581 632.819 46.3765 634.286C45.1938 635.754 43.9533 642.389 41.2428 646.48C38.5323 650.571 36.1172 657.131 36.1 657.403C36.0817 657.674 35.569 669.852 35.4046 673.832C35.2422 677.815 35.9345 688.422 39.313 692.358C42.6904 696.294 47.7023 706.672 47.2454 709.184C47.1084 709.937 48.3834 713.767 48.1439 728.541C47.417 773.258 44.6598 863.876 44.6598 863.876C44.6598 863.876 90.1137 865.516 90.0559 866.42C89.998 867.323 78.9713 716.393 78.1582 712.077C77.344 707.76 78.081 701.911 78.081 701.911C78.081 701.911 83.1446 695.065 84.2278 692.321C85.31 689.578 90.0934 677.18 91.5136 674.822C92.9349 672.463 94.1886 668.459 94.1886 668.459C94.1886 668.459 93.2892 665.499 92.5278 664.634C91.7664 663.768 93.5602 661.252 92.541 658.736C91.5218 656.222 89.1189 654.073 89.1189 654.073C89.1189 654.073 88.7382 651.507 87.6438 650.167C86.5495 648.827 81.4909 642.788 81.4909 642.788C81.4909 642.788 85.1892 627.51 85.2247 625.515C85.2612 623.521 84.8521 621.409 83.2837 620.402C81.7143 619.393 69.0227 614.954 67.0411 614.737C65.0585 614.52 61.3288 616.096 61.3288 616.096L62.0191 625.895C62.0191 625.895 65.4331 625.704 66.5356 625.502C67.636 625.3 70.65 627.126 70.65 627.126L69.3841 629.903C69.3841 629.903 67.7893 637.831 67.1873 638.745C66.5843 639.659 62.2435 647.955 58.0752 651.433L53.9059 654.91C53.9059 654.91 54.3597 645.668 55.9484 642.104C57.5372 638.538 59.2244 631.295 59.2244 631.295L59.3868 628.04Z" fill="#4177D1"/>
<path d="M81.4947 642.79C81.4947 642.79 80.1851 650.509 80.0724 650.865C79.9587 651.221 78.3477 657.968 78.3477 657.968C78.3477 657.968 80.0247 656.106 81.8906 650.8L83.7564 645.493L81.4947 642.79Z" fill="#2E68C8"/>
<path d="M89.1199 654.073C89.1199 654.073 89.0488 656.609 88.8285 658.636C88.6082 660.664 86.8642 663.82 86.0724 664.857C85.2805 665.896 85.8744 665.832 86.3038 666.029C86.7332 666.227 86.8611 667.426 85.98 669.513C85.0978 671.6 87.1687 669.01 89.1381 664.815C91.1065 660.619 90.7248 659.677 90.7827 658.761C90.8416 657.847 89.3097 653.416 89.1199 654.073Z" fill="#2E68C8"/>
<path d="M92.3387 664.002C92.3387 664.002 91.3926 666.693 90.1652 669.292C88.9379 671.891 86.4995 675.274 86.1097 677.109C85.7209 678.944 88.0263 674.645 90.0668 670.829C92.1073 667.012 93.1478 664.023 92.3387 664.002Z" fill="#2E68C8"/>
<path d="M81.2102 685.37C81.2102 685.37 76.4176 694.592 75.7344 698.903C75.0512 703.215 74.5233 705.087 75.2157 707.036C75.907 708.986 75.4776 707.189 76.8074 701.286C78.1363 695.382 83.135 681.432 81.2102 685.37Z" fill="#2E68C8"/>
<path d="M44.1002 700.269C44.1002 700.269 42.6993 698.292 42.5866 693.656C42.474 689.022 42.7003 687.087 43.2749 690.884C43.8485 694.68 44.0688 693.888 45.0982 696.949C46.1285 700.007 46.76 705.952 46.76 705.952L44.1002 700.269Z" fill="#2E68C8"/>
<path d="M66.5361 625.503C66.5361 625.503 65.0479 620.032 65.1982 618.749C65.3484 617.465 65.8286 617.36 66.0215 619.686C66.2143 622.013 66.4224 625.359 67.2803 625.142C68.1381 624.925 69.7501 626.321 71.2008 624.916C72.6515 623.511 74.424 622.399 73.4606 623.631C72.4972 624.862 71.1064 626.128 70.6516 627.127C70.6516 627.127 69.941 626.537 66.5361 625.503Z" fill="#2E68C8"/>
<path d="M57.1027 623.507C57.1027 623.507 57.6144 626.152 56.8581 627.332C56.1028 628.513 53.3883 629.462 51.361 629.231C49.3347 628.999 48.4678 629.57 48.4678 629.57C48.4678 629.57 46.7065 630.193 51.4067 630.119C56.1069 630.044 56.1952 630.254 57.4479 628.224C58.7006 626.194 57.3281 621.037 57.1027 623.507Z" fill="#2E68C8"/>
<path d="M54.5574 651.797C54.5574 651.797 50.8155 656.044 51.6429 661.404C52.4702 666.764 52.1951 666.815 52.7098 661.948C53.2245 657.082 53.9737 656.412 57.4212 651.98C59.1327 649.78 55.4061 649.156 54.5574 651.797Z" fill="#BF8100"/>
<circle cx="103.5" cy="112" r="18" fill="#66BE65"/>
<path d="M98.8906 112.333L101.74 115.182L108.102 108.82" stroke="white" stroke-width="2.08333" stroke-linecap="round" stroke-linejoin="round"/>
<circle cx="103.5" cy="208" r="18" fill="white"/>
<path d="M100.325 213V211.449L103.95 208.093C104.258 207.795 104.516 207.526 104.725 207.288C104.937 207.049 105.098 206.815 105.207 206.587C105.317 206.355 105.371 206.104 105.371 205.836C105.371 205.538 105.304 205.281 105.168 205.065C105.032 204.847 104.846 204.679 104.611 204.563C104.375 204.444 104.109 204.384 103.81 204.384C103.499 204.384 103.227 204.447 102.995 204.573C102.763 204.699 102.584 204.88 102.458 205.115C102.332 205.35 102.269 205.63 102.269 205.955H100.226C100.226 205.289 100.377 204.711 100.678 204.22C100.98 203.73 101.402 203.35 101.946 203.082C102.49 202.813 103.116 202.679 103.825 202.679C104.554 202.679 105.189 202.808 105.729 203.067C106.273 203.322 106.696 203.677 106.997 204.131C107.299 204.585 107.45 205.105 107.45 205.692C107.45 206.076 107.373 206.456 107.221 206.83C107.072 207.205 106.805 207.621 106.42 208.078C106.036 208.532 105.494 209.077 104.795 209.714L103.308 211.17V211.24H107.584V213H100.325Z" fill="black"/>
<circle cx="103.5" cy="304" r="17.5" fill="#265FBD" stroke="#84A5DC" stroke-dasharray="2 2"/>
<path d="M104.024 309.139C103.341 309.139 102.732 309.022 102.195 308.786C101.661 308.551 101.238 308.224 100.927 307.807C100.619 307.386 100.453 306.899 100.43 306.345H101.991C102.011 306.647 102.112 306.909 102.294 307.131C102.48 307.349 102.722 307.518 103.02 307.638C103.318 307.757 103.65 307.817 104.014 307.817C104.415 307.817 104.77 307.747 105.078 307.608C105.39 307.469 105.633 307.275 105.809 307.026C105.985 306.774 106.072 306.484 106.072 306.156C106.072 305.815 105.985 305.515 105.809 305.256C105.637 304.995 105.383 304.789 105.048 304.64C104.717 304.491 104.316 304.416 103.845 304.416H102.985V303.163H103.845C104.223 303.163 104.554 303.095 104.839 302.96C105.128 302.824 105.353 302.635 105.516 302.393C105.678 302.147 105.759 301.861 105.759 301.533C105.759 301.218 105.688 300.944 105.545 300.712C105.406 300.477 105.207 300.293 104.949 300.161C104.694 300.028 104.392 299.962 104.044 299.962C103.713 299.962 103.403 300.023 103.114 300.146C102.829 300.265 102.597 300.437 102.418 300.663C102.239 300.885 102.143 301.152 102.13 301.463H100.643C100.66 300.913 100.822 300.429 101.131 300.011C101.442 299.594 101.853 299.267 102.364 299.032C102.874 298.797 103.441 298.679 104.064 298.679C104.717 298.679 105.28 298.807 105.754 299.062C106.232 299.314 106.599 299.65 106.858 300.071C107.12 300.492 107.249 300.953 107.246 301.453C107.249 302.023 107.09 302.507 106.768 302.905C106.45 303.303 106.026 303.569 105.496 303.705V303.785C106.172 303.888 106.696 304.156 107.067 304.59C107.441 305.024 107.627 305.563 107.624 306.206C107.627 306.766 107.471 307.268 107.156 307.712C106.845 308.156 106.419 308.506 105.879 308.761C105.338 309.013 104.72 309.139 104.024 309.139Z" fill="#B2CCF5"/>
<line x1="103" y1="140" x2="103" y2="180" stroke="#84A5DC" stroke-dasharray="1 2"/>
<line x1="103" y1="236" x2="103" y2="276" stroke="#84A5DC" stroke-dasharray="1 2"/>
</g>
</svg>
