<svg width="431" height="53" viewBox="0 0 431 53" fill="none" xmlns="http://www.w3.org/2000/svg">
    <path
        d="M16.81 16.888C18.658 16.888 20.308 17.086 21.76 17.482C23.212 17.834 24.4 18.296 25.324 18.868C26.468 19.572 27.392 20.474 28.096 21.574C28.8 22.674 29.152 23.95 29.152 25.402C29.152 27.074 28.602 28.482 27.502 29.626C26.402 30.726 25.016 31.276 23.344 31.276C21.628 31.276 20.264 30.77 19.252 29.758C18.284 28.746 17.8 27.448 17.8 25.864C17.8 24.324 18.284 23.026 19.252 21.97C20.22 20.914 21.364 20.21 22.684 19.858C22.332 19.506 21.87 19.22 21.298 19C20.77 18.78 20.132 18.67 19.384 18.67C17.888 18.67 16.634 19.11 15.622 19.99C14.61 20.826 13.774 21.992 13.114 23.488C12.498 24.94 12.036 26.59 11.728 28.438C11.464 30.242 11.332 32.112 11.332 34.048C11.332 37.304 11.75 39.856 12.586 41.704C13.466 43.508 14.544 44.784 15.82 45.532C17.14 46.236 18.482 46.588 19.846 46.588C20.55 46.588 21.364 46.478 22.288 46.258C23.212 46.038 24.18 45.576 25.192 44.872C26.248 44.168 27.238 43.112 28.162 41.704L29.284 42.1C28.8 43.816 27.986 45.51 26.842 47.182C25.698 48.854 24.224 50.24 22.42 51.34C20.616 52.396 18.416 52.924 15.82 52.924C12.916 52.924 10.276 52.33 7.9 51.142C5.568 49.954 3.698 48.04 2.29 45.4C0.882 42.76 0.178 39.306 0.178 35.038C0.178 30.902 0.904 27.514 2.356 24.874C3.808 22.19 5.788 20.188 8.296 18.868C10.848 17.548 13.686 16.888 16.81 16.888ZM42.094 52.462C40.07 52.462 38.398 52.088 37.078 51.34C35.758 50.548 34.79 49.514 34.174 48.238C33.558 46.962 33.25 45.598 33.25 44.146C33.25 42.298 33.668 40.78 34.504 39.592C35.384 38.404 36.506 37.458 37.87 36.754C39.234 36.006 40.664 35.39 42.16 34.906C43.656 34.422 45.086 33.96 46.45 33.52C47.814 33.036 48.914 32.486 49.75 31.87C50.586 31.21 51.004 30.374 51.004 29.362V23.884C51.004 22.916 50.85 22.014 50.542 21.178C50.278 20.298 49.772 19.594 49.024 19.066C48.32 18.494 47.33 18.208 46.054 18.208C45.262 18.208 44.492 18.318 43.744 18.538C42.996 18.758 42.336 19.11 41.764 19.594C43.172 20.078 44.206 20.804 44.866 21.772C45.57 22.74 45.922 23.818 45.922 25.006C45.922 26.634 45.35 27.932 44.206 28.9C43.106 29.824 41.786 30.286 40.246 30.286C38.574 30.286 37.276 29.758 36.352 28.702C35.472 27.646 35.032 26.37 35.032 24.874C35.032 23.554 35.362 22.454 36.022 21.574C36.682 20.65 37.65 19.814 38.926 19.066C40.202 18.318 41.742 17.768 43.546 17.416C45.35 17.064 47.264 16.888 49.288 16.888C51.356 16.888 53.248 17.108 54.964 17.548C56.724 17.944 58.22 18.758 59.452 19.99C60.42 21.002 61.036 22.234 61.3 23.686C61.564 25.138 61.696 26.986 61.696 29.23V47.05C61.696 48.15 61.784 48.92 61.96 49.36C62.18 49.756 62.51 49.954 62.95 49.954C63.346 49.954 63.72 49.844 64.072 49.624C64.424 49.404 64.776 49.162 65.128 48.898L65.854 50.02C64.886 50.812 63.742 51.428 62.422 51.868C61.102 52.264 59.672 52.462 58.132 52.462C56.372 52.462 54.986 52.242 53.974 51.802C53.006 51.318 52.302 50.68 51.862 49.888C51.466 49.096 51.246 48.216 51.202 47.248C50.234 48.832 49.024 50.108 47.572 51.076C46.12 52 44.294 52.462 42.094 52.462ZM47.572 47.71C48.276 47.71 48.892 47.578 49.42 47.314C49.992 47.006 50.52 46.5 51.004 45.796V32.068C50.652 32.684 50.168 33.278 49.552 33.85C48.98 34.378 48.364 34.928 47.704 35.5C47.044 36.028 46.406 36.622 45.79 37.282C45.218 37.942 44.734 38.734 44.338 39.658C43.986 40.538 43.81 41.616 43.81 42.892C43.81 44.608 44.162 45.84 44.866 46.588C45.57 47.336 46.472 47.71 47.572 47.71ZM93.6073 16.888C95.5433 16.888 97.0833 17.13 98.2273 17.614C99.4153 18.098 100.317 18.714 100.933 19.462C101.637 20.298 102.143 21.376 102.451 22.696C102.803 24.016 102.979 25.798 102.979 28.042V45.862C102.979 47.71 103.265 48.964 103.837 49.624C104.453 50.284 105.487 50.614 106.939 50.614V52C106.059 51.956 104.739 51.912 102.979 51.868C101.263 51.78 99.5913 51.736 97.9633 51.736C96.1593 51.736 94.4213 51.78 92.7493 51.868C91.0773 51.912 89.8233 51.956 88.9873 52V50.614C90.2193 50.614 91.0773 50.284 91.5613 49.624C92.0453 48.964 92.2873 47.71 92.2873 45.862V24.874C92.2873 23.862 92.1773 23.004 91.9573 22.3C91.7373 21.552 91.3633 21.002 90.8353 20.65C90.3073 20.254 89.5593 20.056 88.5913 20.056C87.5793 20.056 86.6333 20.32 85.7533 20.848C84.9173 21.376 84.2353 22.124 83.7073 23.092C83.2233 24.016 82.9813 25.072 82.9813 26.26V45.862C82.9813 47.71 83.2233 48.964 83.7073 49.624C84.1913 50.284 85.0493 50.614 86.2813 50.614V52C85.4453 51.956 84.2353 51.912 82.6513 51.868C81.0673 51.78 79.4613 51.736 77.8333 51.736C76.0293 51.736 74.2253 51.78 72.4213 51.868C70.6173 51.912 69.2533 51.956 68.3293 52V50.614C69.7813 50.614 70.7933 50.284 71.3653 49.624C71.9813 48.964 72.2893 47.71 72.2893 45.862V25.006C72.2893 23.026 72.0033 21.574 71.4313 20.65C70.8593 19.682 69.8253 19.198 68.3293 19.198V17.812C69.7373 17.944 71.1013 18.01 72.4213 18.01C74.4013 18.01 76.2713 17.944 78.0313 17.812C79.8353 17.636 81.4853 17.394 82.9813 17.086V22.432C84.0373 20.408 85.4673 18.978 87.2713 18.142C89.1193 17.306 91.2313 16.888 93.6073 16.888ZM142.991 0.387996V44.74C142.991 46.72 143.277 48.194 143.849 49.162C144.465 50.086 145.499 50.548 146.951 50.548V51.934C145.587 51.802 144.223 51.736 142.859 51.736C140.879 51.736 139.009 51.802 137.249 51.934C135.489 52.066 133.839 52.308 132.299 52.66V8.308C132.299 6.328 132.013 4.876 131.441 3.952C130.913 2.984 129.879 2.5 128.339 2.5V1.114C129.747 1.246 131.111 1.312 132.431 1.312C134.455 1.312 136.347 1.246 138.107 1.114C139.867 0.937998 141.495 0.695997 142.991 0.387996ZM125.237 16.888C127.173 16.888 128.845 17.174 130.253 17.746C131.661 18.274 132.827 19.176 133.751 20.452L132.959 21.112C132.387 20.364 131.683 19.814 130.847 19.462C130.055 19.11 129.219 18.934 128.339 18.934C126.227 18.934 124.577 20.254 123.389 22.894C122.245 25.49 121.673 29.494 121.673 34.906C121.673 38.69 121.893 41.682 122.333 43.882C122.817 46.038 123.455 47.556 124.247 48.436C125.083 49.316 126.007 49.756 127.019 49.756C128.383 49.756 129.593 49.25 130.649 48.238C131.749 47.182 132.321 45.796 132.365 44.08L132.563 46.852C131.771 48.876 130.671 50.394 129.263 51.406C127.899 52.418 126.139 52.924 123.983 52.924C121.431 52.924 119.121 52.286 117.053 51.01C115.029 49.734 113.423 47.776 112.235 45.136C111.091 42.452 110.519 38.976 110.519 34.708C110.519 30.704 111.135 27.404 112.367 24.808C113.643 22.168 115.381 20.188 117.581 18.868C119.825 17.548 122.377 16.888 125.237 16.888ZM159.004 0.585997C161.072 0.585997 162.678 1.048 163.822 1.972C165.01 2.896 165.604 4.238 165.604 5.998C165.604 7.758 165.01 9.1 163.822 10.024C162.678 10.948 161.072 11.41 159.004 11.41C156.936 11.41 155.308 10.948 154.12 10.024C152.976 9.1 152.404 7.758 152.404 5.998C152.404 4.238 152.976 2.896 154.12 1.972C155.308 1.048 156.936 0.585997 159.004 0.585997ZM164.812 17.086V45.862C164.812 47.71 165.098 48.964 165.67 49.624C166.286 50.284 167.32 50.614 168.772 50.614V52C167.892 51.956 166.594 51.912 164.878 51.868C163.162 51.78 161.424 51.736 159.664 51.736C157.904 51.736 156.1 51.78 154.252 51.868C152.448 51.912 151.084 51.956 150.16 52V50.614C151.612 50.614 152.624 50.284 153.196 49.624C153.812 48.964 154.12 47.71 154.12 45.862V25.006C154.12 23.026 153.834 21.574 153.262 20.65C152.69 19.682 151.656 19.198 150.16 19.198V17.812C151.568 17.944 152.932 18.01 154.252 18.01C156.232 18.01 158.102 17.944 159.862 17.812C161.666 17.636 163.316 17.394 164.812 17.086ZM205.292 0.387996V44.74C205.292 46.72 205.578 48.194 206.15 49.162C206.766 50.086 207.8 50.548 209.252 50.548V51.934C207.888 51.802 206.524 51.736 205.16 51.736C203.18 51.736 201.31 51.802 199.55 51.934C197.79 52.066 196.14 52.308 194.6 52.66V8.308C194.6 6.328 194.314 4.876 193.742 3.952C193.214 2.984 192.18 2.5 190.64 2.5V1.114C192.048 1.246 193.412 1.312 194.732 1.312C196.756 1.312 198.648 1.246 200.408 1.114C202.168 0.937998 203.796 0.695997 205.292 0.387996ZM187.538 16.888C189.474 16.888 191.146 17.174 192.554 17.746C193.962 18.274 195.128 19.176 196.052 20.452L195.26 21.112C194.688 20.364 193.984 19.814 193.148 19.462C192.356 19.11 191.52 18.934 190.64 18.934C188.528 18.934 186.878 20.254 185.69 22.894C184.546 25.49 183.974 29.494 183.974 34.906C183.974 38.69 184.194 41.682 184.634 43.882C185.118 46.038 185.756 47.556 186.548 48.436C187.384 49.316 188.308 49.756 189.32 49.756C190.684 49.756 191.894 49.25 192.95 48.238C194.05 47.182 194.622 45.796 194.666 44.08L194.864 46.852C194.072 48.876 192.972 50.394 191.564 51.406C190.2 52.418 188.44 52.924 186.284 52.924C183.732 52.924 181.422 52.286 179.354 51.01C177.33 49.734 175.724 47.776 174.536 45.136C173.392 42.452 172.82 38.976 172.82 34.708C172.82 30.704 173.436 27.404 174.668 24.808C175.944 22.168 177.682 20.188 179.882 18.868C182.126 17.548 184.678 16.888 187.538 16.888ZM221.438 52.462C219.414 52.462 217.742 52.088 216.422 51.34C215.102 50.548 214.134 49.514 213.518 48.238C212.902 46.962 212.594 45.598 212.594 44.146C212.594 42.298 213.012 40.78 213.848 39.592C214.728 38.404 215.85 37.458 217.214 36.754C218.578 36.006 220.008 35.39 221.504 34.906C223 34.422 224.43 33.96 225.794 33.52C227.158 33.036 228.258 32.486 229.094 31.87C229.93 31.21 230.348 30.374 230.348 29.362V23.884C230.348 22.916 230.194 22.014 229.886 21.178C229.622 20.298 229.116 19.594 228.368 19.066C227.664 18.494 226.674 18.208 225.398 18.208C224.606 18.208 223.836 18.318 223.088 18.538C222.34 18.758 221.68 19.11 221.108 19.594C222.516 20.078 223.55 20.804 224.21 21.772C224.914 22.74 225.266 23.818 225.266 25.006C225.266 26.634 224.694 27.932 223.55 28.9C222.45 29.824 221.13 30.286 219.59 30.286C217.918 30.286 216.62 29.758 215.696 28.702C214.816 27.646 214.376 26.37 214.376 24.874C214.376 23.554 214.706 22.454 215.366 21.574C216.026 20.65 216.994 19.814 218.27 19.066C219.546 18.318 221.086 17.768 222.89 17.416C224.694 17.064 226.608 16.888 228.632 16.888C230.7 16.888 232.592 17.108 234.308 17.548C236.068 17.944 237.564 18.758 238.796 19.99C239.764 21.002 240.38 22.234 240.644 23.686C240.908 25.138 241.04 26.986 241.04 29.23V47.05C241.04 48.15 241.128 48.92 241.304 49.36C241.524 49.756 241.854 49.954 242.294 49.954C242.69 49.954 243.064 49.844 243.416 49.624C243.768 49.404 244.12 49.162 244.472 48.898L245.198 50.02C244.23 50.812 243.086 51.428 241.766 51.868C240.446 52.264 239.016 52.462 237.476 52.462C235.716 52.462 234.33 52.242 233.318 51.802C232.35 51.318 231.646 50.68 231.206 49.888C230.81 49.096 230.59 48.216 230.546 47.248C229.578 48.832 228.368 50.108 226.916 51.076C225.464 52 223.638 52.462 221.438 52.462ZM226.916 47.71C227.62 47.71 228.236 47.578 228.764 47.314C229.336 47.006 229.864 46.5 230.348 45.796V32.068C229.996 32.684 229.512 33.278 228.896 33.85C228.324 34.378 227.708 34.928 227.048 35.5C226.388 36.028 225.75 36.622 225.134 37.282C224.562 37.942 224.078 38.734 223.682 39.658C223.33 40.538 223.154 41.616 223.154 42.892C223.154 44.608 223.506 45.84 224.21 46.588C224.914 47.336 225.816 47.71 226.916 47.71ZM261.995 7.054V17.812H269.123V19.132H261.995V46.126C261.995 47.226 262.193 48.018 262.589 48.502C262.985 48.942 263.579 49.162 264.371 49.162C265.031 49.162 265.713 48.942 266.417 48.502C267.165 48.062 267.847 47.314 268.463 46.258L269.519 46.918C268.683 48.722 267.517 50.174 266.021 51.274C264.569 52.374 262.655 52.924 260.279 52.924C258.827 52.924 257.529 52.726 256.385 52.33C255.285 51.978 254.361 51.428 253.613 50.68C252.645 49.712 252.007 48.524 251.699 47.116C251.435 45.664 251.303 43.794 251.303 41.506V19.132H246.023V17.812H251.303V9.562C253.371 9.562 255.263 9.364 256.979 8.968C258.739 8.572 260.411 7.934 261.995 7.054ZM288.381 16.888C292.253 16.888 295.289 18.032 297.489 20.32C299.689 22.608 300.789 26.37 300.789 31.606H279.603L279.537 30.352H291.813C291.901 28.196 291.813 26.216 291.549 24.412C291.285 22.564 290.845 21.09 290.229 19.99C289.657 18.89 288.887 18.34 287.919 18.34C286.599 18.34 285.477 19.286 284.553 21.178C283.629 23.07 283.057 26.282 282.837 30.814L283.101 31.276C283.013 31.76 282.969 32.266 282.969 32.794C282.969 33.278 282.969 33.806 282.969 34.378C282.969 37.414 283.365 39.834 284.157 41.638C284.993 43.442 286.027 44.718 287.259 45.466C288.491 46.214 289.767 46.588 291.087 46.588C291.835 46.588 292.671 46.478 293.595 46.258C294.519 46.038 295.487 45.576 296.499 44.872C297.511 44.168 298.479 43.134 299.403 41.77L300.525 42.166C300.041 43.882 299.205 45.576 298.017 47.248C296.873 48.876 295.399 50.24 293.595 51.34C291.791 52.396 289.613 52.924 287.061 52.924C284.157 52.924 281.561 52.33 279.273 51.142C276.985 49.91 275.159 47.996 273.795 45.4C272.475 42.76 271.815 39.328 271.815 35.104C271.815 30.924 272.541 27.492 273.993 24.808C275.445 22.124 277.425 20.144 279.933 18.868C282.441 17.548 285.257 16.888 288.381 16.888ZM338.176 0.387996V45.862C338.176 47.71 338.462 48.964 339.034 49.624C339.65 50.284 340.684 50.614 342.136 50.614V52C341.3 51.956 340.024 51.912 338.308 51.868C336.592 51.78 334.832 51.736 333.028 51.736C331.268 51.736 329.464 51.78 327.616 51.868C325.812 51.912 324.448 51.956 323.524 52V50.614C324.976 50.614 325.988 50.284 326.56 49.624C327.176 48.964 327.484 47.71 327.484 45.862V8.242C327.484 6.306 327.198 4.876 326.626 3.952C326.098 2.984 325.064 2.5 323.524 2.5V1.114C324.932 1.246 326.296 1.312 327.616 1.312C329.64 1.312 331.532 1.246 333.292 1.114C335.052 0.937998 336.68 0.695997 338.176 0.387996ZM354.372 0.585997C356.44 0.585997 358.046 1.048 359.19 1.972C360.378 2.896 360.972 4.238 360.972 5.998C360.972 7.758 360.378 9.1 359.19 10.024C358.046 10.948 356.44 11.41 354.372 11.41C352.304 11.41 350.676 10.948 349.488 10.024C348.344 9.1 347.772 7.758 347.772 5.998C347.772 4.238 348.344 2.896 349.488 1.972C350.676 1.048 352.304 0.585997 354.372 0.585997ZM360.18 17.086V45.862C360.18 47.71 360.466 48.964 361.038 49.624C361.654 50.284 362.688 50.614 364.14 50.614V52C363.26 51.956 361.962 51.912 360.246 51.868C358.53 51.78 356.792 51.736 355.032 51.736C353.272 51.736 351.468 51.78 349.62 51.868C347.816 51.912 346.452 51.956 345.528 52V50.614C346.98 50.614 347.992 50.284 348.564 49.624C349.18 48.964 349.488 47.71 349.488 45.862V25.006C349.488 23.026 349.202 21.574 348.63 20.65C348.058 19.682 347.024 19.198 345.528 19.198V17.812C346.936 17.944 348.3 18.01 349.62 18.01C351.6 18.01 353.47 17.944 355.23 17.812C357.034 17.636 358.684 17.394 360.18 17.086ZM399.546 17.812V19.198C398.71 19.462 397.918 20.012 397.17 20.848C396.422 21.684 395.674 23.136 394.926 25.204L385.62 52.066C384.74 51.978 383.86 51.934 382.98 51.934C382.1 51.934 381.198 51.978 380.274 52.066L368.658 22.894C367.998 21.222 367.316 20.188 366.612 19.792C365.908 19.396 365.314 19.198 364.83 19.198V17.812C366.414 17.9 368.064 17.988 369.78 18.076C371.496 18.12 373.366 18.142 375.39 18.142C376.754 18.142 378.184 18.12 379.68 18.076C381.22 17.988 382.65 17.9 383.97 17.812V19.198C383.134 19.198 382.364 19.242 381.66 19.33C381 19.418 380.516 19.66 380.208 20.056C379.944 20.452 379.966 21.178 380.274 22.234L387.798 42.76L387.072 43.882L391.494 31.144C392.418 28.46 392.814 26.26 392.682 24.544C392.55 22.828 392.044 21.53 391.164 20.65C390.328 19.77 389.206 19.286 387.798 19.198V17.812C388.458 17.856 389.184 17.9 389.976 17.944C390.812 17.988 391.626 18.032 392.418 18.076C393.254 18.076 393.936 18.076 394.464 18.076C395.3 18.076 396.224 18.054 397.236 18.01C398.248 17.966 399.018 17.9 399.546 17.812ZM417.839 16.888C421.711 16.888 424.747 18.032 426.947 20.32C429.147 22.608 430.247 26.37 430.247 31.606H409.061L408.995 30.352H421.271C421.359 28.196 421.271 26.216 421.007 24.412C420.743 22.564 420.303 21.09 419.687 19.99C419.115 18.89 418.345 18.34 417.377 18.34C416.057 18.34 414.935 19.286 414.011 21.178C413.087 23.07 412.515 26.282 412.295 30.814L412.559 31.276C412.471 31.76 412.427 32.266 412.427 32.794C412.427 33.278 412.427 33.806 412.427 34.378C412.427 37.414 412.823 39.834 413.615 41.638C414.451 43.442 415.485 44.718 416.717 45.466C417.949 46.214 419.225 46.588 420.545 46.588C421.293 46.588 422.129 46.478 423.053 46.258C423.977 46.038 424.945 45.576 425.957 44.872C426.969 44.168 427.937 43.134 428.861 41.77L429.983 42.166C429.499 43.882 428.663 45.576 427.475 47.248C426.331 48.876 424.857 50.24 423.053 51.34C421.249 52.396 419.071 52.924 416.519 52.924C413.615 52.924 411.019 52.33 408.731 51.142C406.443 49.91 404.617 47.996 403.253 45.4C401.933 42.76 401.273 39.328 401.273 35.104C401.273 30.924 401.999 27.492 403.451 24.808C404.903 22.124 406.883 20.144 409.391 18.868C411.899 17.548 414.715 16.888 417.839 16.888Z"
        fill="#1D58BA" />
    <path
        d="M312.537 42.166C314.429 42.166 315.903 42.628 316.959 43.552C318.059 44.476 318.609 45.796 318.609 47.512C318.609 49.272 318.059 50.614 316.959 51.538C315.903 52.462 314.429 52.924 312.537 52.924C310.601 52.924 309.105 52.462 308.049 51.538C306.993 50.614 306.465 49.272 306.465 47.512C306.465 45.796 306.993 44.476 308.049 43.552C309.105 42.628 310.601 42.166 312.537 42.166Z"
        fill="#FF343E" />
</svg>