<svg width="44" height="44" viewBox="0 0 44 44" fill="none" xmlns="http://www.w3.org/2000/svg">
    <mask id="mask0_1903_2941" style="mask-type:alpha" maskUnits="userSpaceOnUse" x="3" y="5" width="38" height="34">
        <rect x="3" y="5" width="38" height="34" fill="#D9D9D9" />
    </mask>
    <g mask="url(#mask0_1903_2941)">
        <path fill-rule="evenodd" clip-rule="evenodd"
            d="M24.5782 8.75993C23.7721 8.47553 22.9498 8.57033 22.1438 8.7284C21.5591 8.83917 20.9743 8.90223 20.3897 8.7284C20.1997 8.66534 20.0576 8.60207 20.0576 8.34899C20.0416 8.11209 19.8678 7.98555 19.6149 8.00132C19.378 8.01729 19.2517 8.15939 19.2357 8.38073C19.22 8.47553 19.22 8.57054 19.22 8.66534C19.22 9.62015 19.2223 10.5752 19.2285 11.5302V16.12H19.7781V11.5643C20.3946 11.8035 21.3043 11.8708 21.8912 11.7473C22.2071 11.6998 22.5233 11.6523 22.8394 11.605C23.4874 11.5102 24.1355 11.5892 24.7835 11.8103C24.7835 10.7989 24.7835 9.83468 24.7835 8.85472C24.7045 8.8232 24.6412 8.79167 24.5782 8.75993Z"
            fill="#444444" />
        <path d="M60.5 38.5V32C60.5 32 46 16 22 16C-2 16 -16.5 32 -16.5 32V38.5H60.5Z" stroke="#444444" />
        <path d="M29 22.5L29 34" stroke="#444444" />
        <path d="M15.2734 22.5L15.2734 34" stroke="#444444" />
        <path d="M22.14 22L22.14 34" stroke="#444444" />
        <path d="M9.27344 23.5L9.27344 34" stroke="#444444" />
        <path d="M3.5 19L3.5 38" stroke="#444444" />
        <path d="M34.7266 23.5L34.7266 34" stroke="#444444" />
        <path d="M40.5 19L40.5 38" stroke="#444444" />
        <path d="M-16.5 36V34.5H60.5V36C60.5 36 46 22 22 22C-2 22 -16.5 36 -16.5 36Z" stroke="#444444" />
    </g>
</svg>