<svg width="160" height="47" viewBox="0 0 160 47" fill="none" xmlns="http://www.w3.org/2000/svg">
<path fill-rule="evenodd" clip-rule="evenodd" d="M15.8928 27.8914C13.346 30.4385 9.57483 30.9888 6.4887 29.5615C6.03311 29.3781 5.65959 29.2298 5.3045 29.2298C4.31543 29.2357 3.08432 30.1947 2.44449 29.5557C1.80465 28.9157 2.76441 27.6837 2.76441 26.6886C2.76441 26.3335 2.62203 25.9666 2.43862 25.5102C1.01071 22.4245 1.56178 18.6521 4.10857 16.1058C7.35968 12.8535 12.6417 12.8535 15.8928 16.105C19.1498 19.3623 19.1439 24.6399 15.8928 27.8914Z" stroke="white" stroke-opacity="0.55" stroke-width="1.25" stroke-linecap="round" stroke-linejoin="round"/>
<path d="M13.283 22.3439H13.2905" stroke="white" stroke-opacity="0.55" stroke-width="1.66667" stroke-linecap="round" stroke-linejoin="round"/>
<path d="M9.94234 22.3439H9.94984" stroke="white" stroke-opacity="0.55" stroke-width="1.66667" stroke-linecap="round" stroke-linejoin="round"/>
<path d="M6.60127 22.3439H6.60877" stroke="white" stroke-opacity="0.55" stroke-width="1.66667" stroke-linecap="round" stroke-linejoin="round"/>
<g filter="url(#filter0_d_365_1962)">
<path d="M37.1186 16.8182H38.983L42.2244 24.733H42.3438L45.5852 16.8182H47.4496V27H45.9879V19.6321H45.8935L42.8906 26.9851H41.6776L38.6747 19.6271H38.5803V27H37.1186V16.8182ZM52.8549 27.1541C52.1026 27.1541 51.4546 26.9934 50.911 26.6719C50.3708 26.3471 49.9532 25.8913 49.6582 25.3047C49.3665 24.7147 49.2207 24.0237 49.2207 23.2315C49.2207 22.4493 49.3665 21.7599 49.6582 21.1634C49.9532 20.5668 50.3642 20.1011 50.8912 19.7663C51.4215 19.4316 52.0413 19.2642 52.7505 19.2642C53.1814 19.2642 53.599 19.3355 54.0034 19.478C54.4077 19.6205 54.7707 19.8442 55.0922 20.1491C55.4136 20.4541 55.6672 20.8501 55.8528 21.3374C56.0384 21.8213 56.1312 22.4096 56.1312 23.1023V23.6293H50.0609V22.5156H54.6745C54.6745 22.1245 54.595 21.7782 54.4359 21.4766C54.2768 21.1716 54.0531 20.9313 53.7647 20.7557C53.4797 20.58 53.1449 20.4922 52.7605 20.4922C52.3429 20.4922 51.9783 20.5949 51.6667 20.8004C51.3585 21.0026 51.1199 21.2678 50.9508 21.5959C50.7851 21.9207 50.7022 22.2737 50.7022 22.6548V23.5249C50.7022 24.0353 50.7917 24.4695 50.9707 24.8274C51.153 25.1854 51.4065 25.4588 51.7314 25.6477C52.0562 25.8333 52.4357 25.9261 52.8699 25.9261C53.1516 25.9261 53.4084 25.8864 53.6404 25.8068C53.8725 25.724 54.073 25.6013 54.242 25.4389C54.411 25.2765 54.5403 25.076 54.6298 24.8374L56.0368 25.0909C55.9241 25.5052 55.7219 25.8681 55.4302 26.1797C55.1419 26.4879 54.7789 26.7282 54.3414 26.9006C53.9073 27.0696 53.4118 27.1541 52.8549 27.1541ZM63.5028 21.228L62.1555 21.4666C62.0992 21.2943 62.0097 21.1302 61.8871 20.9744C61.7678 20.8187 61.6054 20.6911 61.3999 20.5916C61.1944 20.4922 60.9375 20.4425 60.6293 20.4425C60.2083 20.4425 59.857 20.5369 59.5753 20.7259C59.2936 20.9115 59.1527 21.1518 59.1527 21.4467C59.1527 21.7019 59.2472 21.9074 59.4361 22.0632C59.625 22.219 59.9299 22.3466 60.3509 22.446L61.5639 22.7244C62.2666 22.8868 62.7902 23.1371 63.1349 23.4751C63.4796 23.8132 63.652 24.2524 63.652 24.7926C63.652 25.25 63.5194 25.6577 63.2543 26.0156C62.9924 26.3703 62.6262 26.6487 62.1555 26.8509C61.6882 27.053 61.1463 27.1541 60.5298 27.1541C59.6747 27.1541 58.977 26.9718 58.4368 26.6072C57.8965 26.2393 57.5651 25.7173 57.4425 25.0412L58.8793 24.8224C58.9688 25.197 59.1527 25.4804 59.4311 25.6726C59.7095 25.8615 60.0724 25.956 60.5199 25.956C61.0071 25.956 61.3965 25.8549 61.6882 25.6527C61.9799 25.4472 62.1257 25.197 62.1257 24.902C62.1257 24.6634 62.0362 24.4628 61.8572 24.3004C61.6816 24.138 61.4115 24.0154 61.0469 23.9325L59.7543 23.6491C59.0417 23.4867 58.5147 23.2282 58.1733 22.8736C57.8352 22.5189 57.6662 22.0698 57.6662 21.5263C57.6662 21.0755 57.7921 20.6811 58.044 20.343C58.2959 20.005 58.6439 19.7415 59.0881 19.5526C59.5322 19.3603 60.041 19.2642 60.6143 19.2642C61.4396 19.2642 62.0893 19.4432 62.5632 19.8011C63.0372 20.1558 63.3504 20.6314 63.5028 21.228ZM71.0087 21.228L69.6614 21.4666C69.6051 21.2943 69.5156 21.1302 69.3929 20.9744C69.2736 20.8187 69.1112 20.6911 68.9057 20.5916C68.7002 20.4922 68.4434 20.4425 68.1351 20.4425C67.7142 20.4425 67.3629 20.5369 67.0811 20.7259C66.7994 20.9115 66.6586 21.1518 66.6586 21.4467C66.6586 21.7019 66.753 21.9074 66.9419 22.0632C67.1309 22.219 67.4358 22.3466 67.8567 22.446L69.0698 22.7244C69.7724 22.8868 70.2961 23.1371 70.6408 23.4751C70.9855 23.8132 71.1578 24.2524 71.1578 24.7926C71.1578 25.25 71.0253 25.6577 70.7601 26.0156C70.4983 26.3703 70.132 26.6487 69.6614 26.8509C69.1941 27.053 68.6522 27.1541 68.0357 27.1541C67.1806 27.1541 66.4829 26.9718 65.9426 26.6072C65.4024 26.2393 65.071 25.7173 64.9483 25.0412L66.3851 24.8224C66.4746 25.197 66.6586 25.4804 66.937 25.6726C67.2154 25.8615 67.5783 25.956 68.0257 25.956C68.513 25.956 68.9024 25.8549 69.1941 25.6527C69.4857 25.4472 69.6316 25.197 69.6316 24.902C69.6316 24.6634 69.5421 24.4628 69.3631 24.3004C69.1874 24.138 68.9173 24.0154 68.5527 23.9325L67.2601 23.6491C66.5475 23.4867 66.0205 23.2282 65.6792 22.8736C65.3411 22.5189 65.1721 22.0698 65.1721 21.5263C65.1721 21.0755 65.298 20.6811 65.5499 20.343C65.8018 20.005 66.1498 19.7415 66.5939 19.5526C67.0381 19.3603 67.5468 19.2642 68.1202 19.2642C68.9455 19.2642 69.5951 19.4432 70.0691 19.8011C70.543 20.1558 70.8562 20.6314 71.0087 21.228ZM75.0146 27.169C74.5307 27.169 74.0932 27.0795 73.7021 26.9006C73.311 26.7183 73.0011 26.4548 72.7724 26.1101C72.547 25.7654 72.4343 25.3428 72.4343 24.8423C72.4343 24.4115 72.5172 24.0568 72.6829 23.7784C72.8486 23.5 73.0723 23.2796 73.354 23.1172C73.6358 22.9548 73.9506 22.8321 74.2987 22.7493C74.6467 22.6664 75.0013 22.6035 75.3626 22.5604C75.82 22.5073 76.1912 22.4643 76.4762 22.4311C76.7612 22.3946 76.9684 22.3366 77.0977 22.2571C77.2269 22.1776 77.2915 22.0483 77.2915 21.8693V21.8345C77.2915 21.4003 77.1689 21.0639 76.9237 20.8253C76.6817 20.5866 76.3204 20.4673 75.8398 20.4673C75.3394 20.4673 74.945 20.5784 74.6566 20.8004C74.3716 21.0192 74.1744 21.2628 74.065 21.5312L72.668 21.2131C72.8337 20.7491 73.0756 20.3745 73.3938 20.0895C73.7153 19.8011 74.0849 19.5923 74.5025 19.4631C74.9201 19.3305 75.3593 19.2642 75.82 19.2642C76.1249 19.2642 76.448 19.3007 76.7894 19.3736C77.1341 19.4432 77.4556 19.5724 77.7539 19.7614C78.0555 19.9503 78.3024 20.2204 78.4947 20.5717C78.6869 20.9197 78.783 21.3722 78.783 21.929V27H77.3313V25.956H77.2717C77.1755 26.1482 77.0314 26.3371 76.8391 26.5227C76.6469 26.7083 76.4 26.8625 76.0984 26.9851C75.7968 27.1077 75.4355 27.169 75.0146 27.169ZM75.3377 25.9759C75.7487 25.9759 76.1 25.8946 76.3917 25.7322C76.6867 25.5698 76.9104 25.3577 77.0629 25.0959C77.2186 24.8307 77.2965 24.5473 77.2965 24.2457V23.2614C77.2435 23.3144 77.1407 23.3641 76.9883 23.4105C76.8391 23.4536 76.6684 23.4917 76.4762 23.5249C76.284 23.5547 76.0967 23.5829 75.9144 23.6094C75.7321 23.6326 75.5797 23.6525 75.457 23.669C75.1687 23.7055 74.9052 23.7668 74.6665 23.853C74.4312 23.9392 74.2423 24.0634 74.0998 24.2259C73.9606 24.3849 73.891 24.5971 73.891 24.8622C73.891 25.2301 74.0269 25.5085 74.2987 25.6974C74.5704 25.883 74.9168 25.9759 75.3377 25.9759ZM83.9647 30.0227C83.3581 30.0227 82.8361 29.9432 82.3986 29.7841C81.9644 29.625 81.6098 29.4145 81.3347 29.1527C81.0596 28.8909 80.8541 28.6042 80.7182 28.2926L81.9959 27.7656C82.0854 27.9115 82.2047 28.0656 82.3539 28.228C82.5063 28.3937 82.7118 28.5346 82.9703 28.6506C83.2322 28.7666 83.5686 28.8246 83.9796 28.8246C84.543 28.8246 85.0087 28.687 85.3766 28.4119C85.7445 28.1402 85.9284 27.706 85.9284 27.1094V25.608H85.834C85.7445 25.7704 85.6152 25.951 85.4462 26.1499C85.2805 26.3487 85.0518 26.5211 84.7601 26.6669C84.4685 26.8127 84.089 26.8857 83.6216 26.8857C83.0184 26.8857 82.4748 26.7448 81.9909 26.4631C81.5104 26.178 81.1292 25.7588 80.8475 25.2053C80.5691 24.6484 80.4299 23.964 80.4299 23.152C80.4299 22.34 80.5674 21.6439 80.8425 21.0639C81.1209 20.4839 81.5021 20.0398 81.986 19.7315C82.4699 19.42 83.0184 19.2642 83.6316 19.2642C84.1055 19.2642 84.4883 19.3438 84.78 19.5028C85.0717 19.6586 85.2987 19.8409 85.4611 20.0497C85.6268 20.2585 85.7544 20.4425 85.8439 20.6016H85.9533V19.3636H87.41V27.169C87.41 27.8253 87.2575 28.3639 86.9526 28.7848C86.6477 29.2057 86.235 29.5173 85.7147 29.7195C85.1976 29.9216 84.6143 30.0227 83.9647 30.0227ZM83.9498 25.6527C84.3773 25.6527 84.7386 25.5533 85.0336 25.3544C85.3319 25.1522 85.5572 24.8639 85.7097 24.4893C85.8655 24.1115 85.9434 23.6591 85.9434 23.1321C85.9434 22.6184 85.8671 22.166 85.7147 21.7749C85.5622 21.3838 85.3385 21.0788 85.0435 20.8601C84.7485 20.638 84.3839 20.527 83.9498 20.527C83.5023 20.527 83.1294 20.643 82.8311 20.875C82.5328 21.1037 82.3075 21.4152 82.155 21.8097C82.0059 22.2041 81.9313 22.6449 81.9313 23.1321C81.9313 23.6326 82.0075 24.0717 82.16 24.4496C82.3124 24.8274 82.5378 25.1224 82.8361 25.3345C83.1377 25.5466 83.5089 25.6527 83.9498 25.6527ZM92.6948 27.1541C91.9424 27.1541 91.2944 26.9934 90.7509 26.6719C90.2106 26.3471 89.793 25.8913 89.498 25.3047C89.2064 24.7147 89.0605 24.0237 89.0605 23.2315C89.0605 22.4493 89.2064 21.7599 89.498 21.1634C89.793 20.5668 90.204 20.1011 90.731 19.7663C91.2613 19.4316 91.8811 19.2642 92.5904 19.2642C93.0212 19.2642 93.4389 19.3355 93.8432 19.478C94.2476 19.6205 94.6105 19.8442 94.932 20.1491C95.2535 20.4541 95.507 20.8501 95.6926 21.3374C95.8783 21.8213 95.9711 22.4096 95.9711 23.1023V23.6293H89.9007V22.5156H94.5144C94.5144 22.1245 94.4348 21.7782 94.2757 21.4766C94.1167 21.1716 93.8929 20.9313 93.6046 20.7557C93.3195 20.58 92.9848 20.4922 92.6003 20.4922C92.1827 20.4922 91.8181 20.5949 91.5066 20.8004C91.1983 21.0026 90.9597 21.2678 90.7907 21.5959C90.6249 21.9207 90.5421 22.2737 90.5421 22.6548V23.5249C90.5421 24.0353 90.6316 24.4695 90.8105 24.8274C90.9928 25.1854 91.2464 25.4588 91.5712 25.6477C91.896 25.8333 92.2755 25.9261 92.7097 25.9261C92.9914 25.9261 93.2483 25.8864 93.4803 25.8068C93.7123 25.724 93.9128 25.6013 94.0819 25.4389C94.2509 25.2765 94.3801 25.076 94.4696 24.8374L95.8766 25.0909C95.7639 25.5052 95.5617 25.8681 95.2701 26.1797C94.9817 26.4879 94.6188 26.7282 94.1813 26.9006C93.7471 27.0696 93.2516 27.1541 92.6948 27.1541Z" fill="white" fill-opacity="0.55" shape-rendering="crispEdges"/>
</g>
<defs>
<filter id="filter0_d_365_1962" x="21.1186" y="0.818359" width="90.8525" height="45.2046" filterUnits="userSpaceOnUse" color-interpolation-filters="sRGB">
<feFlood flood-opacity="0" result="BackgroundImageFix"/>
<feColorMatrix in="SourceAlpha" type="matrix" values="0 0 0 0 0 0 0 0 0 0 0 0 0 0 0 0 0 0 127 0" result="hardAlpha"/>
<feOffset/>
<feGaussianBlur stdDeviation="8"/>
<feComposite in2="hardAlpha" operator="out"/>
<feColorMatrix type="matrix" values="0 0 0 0 1 0 0 0 0 1 0 0 0 0 1 0 0 0 1 0"/>
<feBlend mode="overlay" in2="BackgroundImageFix" result="effect1_dropShadow_365_1962"/>
<feBlend mode="normal" in="SourceGraphic" in2="effect1_dropShadow_365_1962" result="shape"/>
</filter>
</defs>
</svg>
