<svg width="44" height="44" viewBox="0 0 44 44" fill="none" xmlns="http://www.w3.org/2000/svg">
    <path d="M6.55001 38.5C6.78164 37.3589 7.79052 36.5 9 36.5H36C37.2095 36.5 38.2184 37.3589 38.45 38.5H6.55001Z"
        stroke="#444444" />
    <path
        d="M37.5793 15.3421L23.9515 6.14611C22.9272 5.45495 21.584 5.46249 20.5675 6.1651L7.2733 15.3548C5.6598 16.4701 6.44907 19 8.41055 19H36.4606C38.4336 19 39.2148 16.4458 37.5793 15.3421Z"
        stroke="#444444" />
    <line x1="10.5" y1="19" x2="10.5" y2="36" stroke="#444444" />
    <line x1="16.5" y1="19" x2="16.5" y2="36" stroke="#444444" />
    <line x1="22.5" y1="19" x2="22.5" y2="36" stroke="#444444" />
    <line x1="28.5" y1="19" x2="28.5" y2="36" stroke="#444444" />
    <line x1="34.5" y1="19" x2="34.5" y2="36" stroke="#444444" />
</svg>