<svg width="44" height="44" viewBox="0 0 44 44" fill="none" xmlns="http://www.w3.org/2000/svg">
    <path d="M21.9989 30.5745V25.9233" stroke="#444444" stroke-linecap="round" stroke-linejoin="round" />
    <path fill-rule="evenodd" clip-rule="evenodd"
        d="M33.3621 9.77271C36.4604 9.77271 38.9538 12.2844 38.9538 15.3827V21.6894C34.4438 24.3294 28.4854 25.9244 21.9954 25.9244C15.5054 25.9244 9.56542 24.3294 5.05542 21.6894V15.3644C5.05542 12.266 7.56709 9.77271 10.6654 9.77271H33.3621Z"
        stroke="#444444" stroke-linecap="round" stroke-linejoin="round" />
    <path
        d="M28.4211 9.76466V9.09366C28.4211 6.85699 26.6061 5.04199 24.3694 5.04199H19.6394C17.4028 5.04199 15.5878 6.85699 15.5878 9.09366V9.76466"
        stroke="#444444" stroke-linecap="round" stroke-linejoin="round" />
    <path
        d="M5.09534 28.386L5.44184 32.9858C5.6765 36.086 8.25967 38.4822 11.3672 38.4822H32.632C35.7395 38.4822 38.3227 36.086 38.5573 32.9858L38.9038 28.386"
        stroke="#444444" stroke-linecap="round" stroke-linejoin="round" />
</svg>