<svg width="202" height="246" viewBox="0 0 202 246" fill="none" xmlns="http://www.w3.org/2000/svg">
    <mask id="mask0_1903_3080" style="mask-type:luminance" maskUnits="userSpaceOnUse" x="86" y="124" width="81"
        height="268">
        <path d="M86.8828 124.485H166.201V391.218H86.8828V124.485Z" fill="white" />
    </mask>
    <g mask="url(#mask0_1903_3080)">
        <g opacity="0.149994">
            <path
                d="M110.695 124.709C110.695 124.709 108.05 123.68 106.286 126.033C104.521 128.384 100.259 131.619 99.2302 132.206C98.2009 132.794 93.056 133.529 92.4682 134.999C91.8805 136.469 89.3811 140.879 88.7933 143.084C88.2056 145.288 86.8828 148.375 86.8828 157.489C86.8828 166.603 87.9112 169.542 89.0877 171.012C90.2633 172.483 110.107 188.945 113.635 192.326C117.163 195.708 118.78 199.677 118.926 203.203C119.074 206.732 121.003 242.649 119.039 271.849C117.169 299.645 111.874 391.219 111.874 391.219H166.202C166.202 391.219 163.24 271.703 161.529 256.857C159.816 242.01 157.578 200.481 158.165 195.923C158.753 191.366 156.219 186.749 155.779 178.37C155.338 169.992 154.137 156.652 150.616 154.17L148.362 150.838C148.362 150.838 149.244 147.09 149.17 146.905C149.097 146.722 146.488 142.239 142.85 140.511C139.211 138.784 135.757 141.54 135.757 141.54L135.096 138.49C135.096 138.49 130.962 133.897 127.222 133.64C123.483 133.382 120.287 137.903 120.14 137.793C119.992 137.681 116.465 134.559 116.465 134.559L112.422 132.537C112.422 132.537 112.495 125.665 110.695 124.709Z"
                fill="#7DABF8" />
            <path
                d="M89.9703 145.949C89.9703 145.949 91.4038 156.532 93.1671 159.729C94.9314 162.927 97.246 166.124 97.246 166.124C97.246 166.124 94.9863 168.936 95.2066 171.525C95.4268 174.116 93.7183 171.746 95.372 167.061C97.0257 162.376 93.0016 169.663 92.2301 170.092C91.2383 170.643 90.08 167.282 92.8372 163.367C92.8372 163.367 89.0882 152.729 89.9703 145.949Z"
                fill="#215CBE" />
            <path
                d="M111.933 132.472C111.933 132.257 111.023 137.653 108.873 138.949C106.724 140.244 100.798 137.433 100.44 138.039C100.082 138.645 105.125 139.556 105.951 141.209C106.779 142.862 107.936 150.47 109.646 151.738C111.354 153.006 118.575 153.336 124.528 157.856C130.481 162.376 130.646 163.974 133.513 164.801C136.38 165.627 142.497 164.085 145.199 166.675C147.9 169.266 149.332 169.928 150.27 169.928C151.207 169.928 150.27 168.549 146.852 166.4C143.435 164.25 136.048 165.352 133.623 163.644C131.197 161.934 128.441 157.084 122.323 154.879C116.205 152.674 110.472 152.674 109.81 150.194C109.149 147.714 106.889 142.422 107.441 141.319C107.992 140.217 111.905 140.326 111.933 132.472Z"
                fill="#215CBE" />
            <path
                d="M119.516 138.177C119.516 138.177 121.444 147.107 121.5 149.752C121.555 152.399 120.342 154.713 120.508 154.824C120.674 154.935 121.502 155.1 121.502 155.1C121.502 155.1 122.492 155.265 122.492 151.957C122.492 148.65 120.122 135.807 119.516 138.177Z"
                fill="#D38C00" />
            <path
                d="M135.116 141.483C135.116 141.483 134.895 155.76 134.179 157.248C133.462 158.736 130.868 160.984 131.061 161.188C131.254 161.392 131.979 162.152 131.979 162.152C131.979 162.152 134.123 160.555 134.785 158.296C135.446 156.036 135.887 139.223 135.116 141.483Z"
                fill="#D38C00" />
            <path
                d="M148.363 150.837C147.587 151.832 146.471 156.588 144.872 158.571C143.273 160.556 139.039 164.789 139.039 164.789L140.796 164.935C140.796 164.935 143.99 162.155 145.314 159.674C146.636 157.194 149.539 149.33 148.363 150.837Z"
                fill="#215CBE" />
        </g>
    </g>
    <mask id="mask1_1903_3080" style="mask-type:luminance" maskUnits="userSpaceOnUse" x="0" y="163" width="80"
        height="267">
        <path d="M0 163.267H79.3184V430H0V163.267Z" fill="white" />
    </mask>
    <g mask="url(#mask1_1903_3080)">
        <g opacity="0.380005">
            <path
                d="M46.6874 176.96C46.6874 176.96 44.7586 185.889 44.7028 188.535C44.6479 191.181 45.8611 193.496 45.6956 193.605C45.5301 193.717 44.7007 193.881 44.7007 193.881C44.7007 193.881 43.7109 194.047 43.7109 190.739C43.7109 187.432 46.0813 174.589 46.6874 176.96Z"
                fill="#D38C00" />
        </g>
    </g>
    <path
        d="M188.011 112.39C188.011 112.39 183.853 108.45 183.397 108.558C182.94 108.664 176.069 109.722 171.667 112.573C167.266 115.421 160.343 117.293 159.027 118.706C157.712 120.12 152.986 125.943 151.28 127.058C149.577 128.175 151.474 133.332 153.186 133.85C154.897 134.366 165.138 129.577 165.579 129.06C166.021 128.543 169.84 136.953 169.84 136.953C169.84 136.953 178.218 131.5 178.793 130.992C179.371 130.484 188.011 112.39 188.011 112.39Z"
        fill="#EBB637" />
    <path
        d="M154.867 124.948C155.057 124.729 182.074 121.257 182.074 121.257L167.711 46.7311C167.711 46.7311 138.257 41.7253 124.301 50.3553C124.301 50.3553 140.52 124.459 141.104 128.142L154.867 124.948Z"
        fill="#FFD87E" />
    <path
        d="M175.683 108.611C175.683 108.611 175.472 101.974 170.728 100.945C165.985 99.9172 165.175 101.226 165.616 104.294C166.054 107.361 163.855 113.39 162.673 114.857C161.49 116.324 160.249 122.959 157.539 127.051C154.828 131.142 152.413 137.703 152.396 137.974C152.379 138.244 151.865 150.422 151.702 154.403C151.538 158.385 152.231 168.993 155.609 172.929C158.988 176.865 163.998 187.243 163.542 189.756C163.404 190.507 164.68 194.337 164.44 209.112C163.714 253.829 160.956 344.446 160.956 344.446C160.956 344.446 206.41 346.088 206.352 346.99C206.294 347.895 195.267 196.964 194.454 192.648C193.641 188.331 194.377 182.481 194.377 182.481C194.377 182.481 199.442 175.636 200.524 172.893C201.606 170.149 206.39 157.751 207.811 155.392C209.231 153.034 210.485 149.03 210.485 149.03C210.485 149.03 209.585 146.069 208.824 145.205C208.063 144.339 209.856 141.822 208.837 139.308C207.818 136.793 205.415 134.644 205.415 134.644C205.415 134.644 205.034 132.078 203.94 130.739C202.846 129.399 197.787 123.358 197.787 123.358C197.787 123.358 201.485 108.08 201.522 106.086C201.557 104.093 201.148 101.98 199.58 100.972C198.01 99.9639 185.319 95.5245 183.337 95.3083C181.355 95.091 177.625 96.6666 177.625 96.6666L178.315 106.465C178.315 106.465 181.73 106.274 182.832 106.073C183.933 105.871 186.947 107.696 186.947 107.696L185.681 110.474C185.681 110.474 184.085 118.402 183.483 119.316C182.88 120.23 178.54 128.527 174.371 132.004L170.203 135.481C170.203 135.481 170.656 126.239 172.245 122.674C173.833 119.109 175.52 111.867 175.52 111.867L175.683 108.611Z"
        fill="#4177D1" />
    <path
        d="M197.791 123.358C197.791 123.358 196.481 131.078 196.368 131.434C196.255 131.79 194.645 138.537 194.645 138.537C194.645 138.537 196.321 136.674 198.186 131.369L200.053 126.063L197.791 123.358Z"
        fill="#2E68C8" />
    <path
        d="M205.416 134.643C205.416 134.643 205.345 137.179 205.125 139.207C204.906 141.234 203.162 144.389 202.37 145.428C201.577 146.466 202.171 146.401 202.601 146.598C203.031 146.797 203.158 147.995 202.277 150.083C201.394 152.17 203.465 149.581 205.435 145.385C207.403 141.189 207.021 140.246 207.079 139.332C207.138 138.417 205.606 133.987 205.416 134.643Z"
        fill="#2E68C8" />
    <path
        d="M197.503 165.939C197.503 165.939 192.711 175.16 192.027 179.471C191.344 183.783 190.816 185.655 191.509 187.605C192.2 189.554 191.771 187.757 193.1 181.854C194.43 175.95 199.429 162.001 197.503 165.939Z"
        fill="#2E68C8" />
    <path
        d="M160.401 180.838C160.401 180.838 159 178.861 158.887 174.226C158.775 169.592 159.001 167.657 159.576 171.452C160.149 175.249 160.37 174.457 161.399 177.517C162.429 180.577 163.061 186.521 163.061 186.521L160.401 180.838Z"
        fill="#2E68C8" />
    <path
        d="M182.833 106.072C182.833 106.072 181.345 100.6 181.495 99.3181C181.645 98.0339 182.126 97.9294 182.319 100.255C182.511 102.581 182.72 105.928 183.577 105.712C184.435 105.493 186.047 106.889 187.498 105.485C188.948 104.08 190.721 102.968 189.757 104.2C188.794 105.431 187.403 106.696 186.948 107.695C186.948 107.695 186.238 107.105 182.833 106.072Z"
        fill="#2E68C8" />
    <path
        d="M173.4 104.075C173.4 104.075 173.911 106.72 173.155 107.902C172.4 109.082 169.685 110.03 167.659 109.8C165.632 109.567 164.765 110.139 164.765 110.139C164.765 110.139 163.003 110.761 167.704 110.687C172.404 110.612 172.492 110.822 173.745 108.793C174.997 106.763 173.625 101.606 173.4 104.075Z"
        fill="#2E68C8" />
    <path
        d="M170.858 132.366C170.858 132.366 167.117 136.613 167.943 141.974C168.771 147.334 168.496 147.384 169.01 142.518C169.525 137.651 170.274 136.981 173.722 132.549C175.433 130.349 171.707 129.726 170.858 132.366Z"
        fill="#EBB637" />
    <path
        d="M239.988 78.919C239.988 78.919 235.64 69.8982 234.771 68.7034C233.901 67.5075 217.054 63.9209 213.793 63.9209C210.533 63.9209 208.685 67.2892 205.316 71.42C205.316 71.42 203.358 77.18 200.75 83.267C198.142 89.3539 191.947 99.3533 191.513 101.854C191.077 104.353 191.729 106.853 196.294 117.07C200.859 127.287 205.859 140.656 208.468 149.026C211.077 157.395 211.403 162.502 211.403 162.502H242.922C242.922 162.502 245.096 148.807 246.183 142.612C247.269 136.417 247.488 127.938 246.835 125.439C246.183 122.939 241.618 112.505 241.618 112.505C241.618 112.505 241.618 102.504 241.075 100.984C240.531 99.462 240.096 97.722 240.096 97.722L239.77 88.8098C239.77 88.8098 241.183 87.3977 241.401 86.3105C241.618 85.2232 239.988 78.919 239.988 78.919Z"
        fill="#2B64C3" />
    <path
        d="M202.382 114.352C202.382 114.352 198.33 117.489 198.618 122.442C198.618 122.442 198.089 123.006 198.293 120.357C198.496 117.708 200.277 114.297 202.382 114.352Z"
        fill="#215CBE" />
    <path
        d="M200.045 102.179C199.884 102.423 211.639 93.7546 217.118 90.766C222.597 87.7763 229.391 82.1249 232.107 83.5918C234.825 85.0597 236.509 87.7763 236.509 87.7763C236.509 87.7763 238.031 88.1144 233.249 83.3532C228.467 78.5931 226.62 84.5704 226.401 82.4507C226.184 80.3311 229.173 77.179 227.434 77.5048C225.696 77.8317 226.252 82.3411 223.039 85.2485C219.826 88.157 201.892 99.3523 200.045 102.179Z"
        fill="#215CBE" />
    <path
        d="M119.409 83.8592C119.409 83.8592 123.974 32.3404 117.234 17.993C117.234 17.993 164.406 26.2535 165.493 27.7752L166.579 29.2969C166.579 29.2969 163.5 87.2225 155.059 104.945L119.409 83.8592Z"
        fill="#FFD150" />
    <path
        d="M141.366 80.4913C141.366 80.4913 137.019 71.4695 136.149 70.2746C135.279 69.0787 118.433 65.4921 115.172 65.4921C111.911 65.4921 110.064 68.8615 106.695 72.9912C106.695 72.9912 104.738 78.7523 102.129 84.8382C99.5214 90.9252 93.3258 100.925 92.8914 103.425C92.4558 105.925 93.1086 108.425 97.6728 118.641C102.239 128.859 107.238 142.227 109.847 150.597C112.456 158.966 112.781 164.074 112.781 164.074H144.301C144.301 164.074 146.475 150.38 147.562 144.183C148.649 137.988 148.866 129.51 148.215 127.01C147.562 124.51 142.997 114.076 142.997 114.076C142.997 114.076 142.997 104.077 142.454 102.555C141.911 101.033 141.475 99.2942 141.475 99.2942L141.149 90.3821C141.149 90.3821 142.562 88.9689 142.779 87.8817C142.997 86.7955 141.366 80.4913 141.366 80.4913Z"
        fill="#4177D1" />
    <path
        d="M118.785 130.244C118.785 130.244 124.736 128.042 126.122 125.026C127.508 122.011 127.589 120.217 127.589 120.217C127.589 120.217 123.432 121.439 122.046 120.951C120.66 120.461 124.002 120.053 127.263 119.238C130.524 118.423 132.399 113.37 133.54 111.902C134.681 110.434 135.007 110.978 133.54 114.783C132.073 118.587 130.85 118.505 133.133 120.135C135.415 121.765 139.491 121.358 138.92 122.092C138.35 122.825 132.643 120.787 131.909 123.314C131.177 125.841 129.464 128.124 130.85 130.244C132.236 132.362 135.415 130.978 135.415 130.978C135.415 130.978 139.898 125.189 140.958 123.395C142.017 121.602 137.371 131.14 135.17 132.77C132.969 134.401 138.431 138.395 138.267 139.292C138.105 140.188 131.013 131.873 129.057 130.651C127.1 129.428 127.834 126.004 126.61 126.738C125.388 127.472 116.829 132.526 118.785 130.244Z"
        fill="#2E68C8" />
    <path
        d="M114.463 109.051C114.463 109.051 130.603 101.061 131.989 101.061C133.375 101.061 137.125 105.627 138.593 108.072C140.06 110.518 133.62 99.6757 133.131 99.5122C132.642 99.3498 137.044 95.3551 135.821 95.681C134.598 96.0069 133.049 98.0453 133.049 98.0453C133.049 98.0453 135.7 93.4974 135.06 93.1187C134.42 92.7411 132.56 97.8819 131.908 98.3712C131.256 98.8605 109.622 111.414 114.463 109.051Z"
        fill="#2E68C8" />
    <path
        d="M103.757 115.926C103.757 115.926 99.7055 119.063 99.9928 124.016C99.9928 124.016 99.4639 124.58 99.6679 121.931C99.872 119.282 101.652 115.871 103.757 115.926Z"
        fill="#2E68C8" />
    <path
        d="M101.423 103.752C101.263 103.996 113.018 95.3279 118.498 92.3392C123.976 89.3496 130.77 83.6981 133.486 85.165C136.204 86.633 137.889 89.3496 137.889 89.3496C137.889 89.3496 139.411 89.6876 134.628 84.9265C129.846 80.1663 127.998 86.1437 127.781 84.024C127.564 81.9043 130.553 78.7532 128.814 79.0781C127.075 79.405 127.631 83.9143 124.418 86.8218C121.205 89.7302 103.271 100.926 101.423 103.752Z"
        fill="#2E68C8" />
    <path
        d="M109.305 83.2617C109.305 83.2617 119.63 74.4582 121.098 73.5344C122.565 72.6106 125.989 71.3599 129.413 73.5344C129.413 73.5344 130.88 73.5141 128.924 72.3283C126.967 71.1426 122.602 71.3599 120.681 72.6654C118.761 73.9699 117.403 70.3295 116.478 71.5517C115.554 72.774 118.489 72.7192 116.152 75.8713C113.815 79.0234 107.892 83.0993 109.305 83.2617Z"
        fill="#2E68C8" />
    <path
        d="M141.151 90.3824C141.151 90.3824 141.468 93.4523 137.392 83.2621C133.316 73.0728 129.413 73.5347 129.413 73.5347C129.413 73.5347 127.61 70.7298 131.686 73.5317C135.762 76.3335 136.088 77.8837 137.718 81.5525C139.348 85.2193 139.938 90.083 141.151 90.3824Z"
        fill="#2E68C8" />
    <path
        d="M139.59 141.356C139.59 141.356 141.439 145.269 141.113 151.899C140.785 158.529 143.502 142.66 139.59 141.356Z"
        fill="#2E68C8" />
    <path
        d="M126.284 149.835L112.78 164.073L103.758 334.858C103.758 334.858 162.088 338.989 157.957 334.858C153.828 330.728 143.611 198.964 144.046 185.485C144.48 172.008 143.019 172.048 144.299 164.073C145.579 156.1 126.284 149.835 126.284 149.835Z"
        fill="#4177D1" />
    <path
        d="M108.824 147.437C108.824 147.437 114.97 159.238 120.676 160.053C126.382 160.867 127.85 160.053 127.85 160.053C127.85 160.053 131.183 160.596 121.981 162.335C112.779 164.075 112.663 166.103 112.663 166.103C112.663 166.103 112.362 160.053 111.873 158.75C111.383 157.444 108.824 147.437 108.824 147.437Z"
        fill="#2E68C8" />
    <path
        d="M66.7138 106.821C66.7138 106.821 62.5557 102.88 62.0999 102.988C61.6441 103.094 54.7714 104.153 50.3707 107.003C45.97 109.851 39.0456 111.723 37.7299 113.137C36.4153 114.549 31.6887 120.373 29.9842 121.489C28.2798 122.605 30.1771 127.762 31.8887 128.279C33.6002 128.796 43.8412 124.007 44.2828 123.49C44.7234 122.974 48.5424 131.383 48.5424 131.383C48.5424 131.383 56.9205 125.929 57.4972 125.422C58.0738 124.914 66.7138 106.821 66.7138 106.821Z"
        fill="#BF8100" />
    <path
        d="M33.5704 119.379C33.7603 119.159 60.7768 115.686 60.7768 115.686L46.4143 41.1618C46.4143 41.1618 16.9604 36.156 3.00391 44.7849C3.00391 44.7849 19.2242 118.888 19.8069 122.572L33.5704 119.379Z"
        fill="#BA8E1D" />
    <path
        d="M54.3868 103.04C54.3868 103.04 54.1756 96.4026 49.4318 95.3742C44.6889 94.3459 43.8788 95.6554 44.3184 98.7223C44.758 101.791 42.5581 107.819 41.3765 109.286C40.1938 110.754 38.9533 117.389 36.2428 121.48C33.5323 125.571 31.1172 132.131 31.1 132.403C31.0817 132.674 30.569 144.852 30.4046 148.832C30.2422 152.815 30.9345 163.422 34.313 167.358C37.6904 171.294 42.7023 181.672 42.2454 184.184C42.1084 184.937 43.3834 188.767 43.1439 203.541C42.417 248.258 39.6598 338.876 39.6598 338.876C39.6598 338.876 85.1137 340.516 85.0559 341.42C84.998 342.323 73.9713 191.393 73.1582 187.077C72.344 182.76 73.081 176.911 73.081 176.911C73.081 176.911 78.1446 170.065 79.2278 167.321C80.31 164.578 85.0934 152.18 86.5136 149.822C87.9349 147.463 89.1886 143.459 89.1886 143.459C89.1886 143.459 88.2892 140.499 87.5278 139.634C86.7664 138.768 88.5602 136.252 87.541 133.736C86.5218 131.222 84.1189 129.073 84.1189 129.073C84.1189 129.073 83.7382 126.507 82.6438 125.167C81.5495 123.827 76.4909 117.788 76.4909 117.788C76.4909 117.788 80.1892 102.51 80.2247 100.515C80.2612 98.5213 79.8521 96.4087 78.2837 95.4016C76.7143 94.3926 64.0227 89.9542 62.0411 89.737C60.0585 89.5197 56.3288 91.0963 56.3288 91.0963L57.0191 100.895C57.0191 100.895 60.4331 100.704 61.5356 100.502C62.636 100.3 65.65 102.126 65.65 102.126L64.3841 104.903C64.3841 104.903 62.7893 112.831 62.1873 113.745C61.5843 114.659 57.2435 122.955 53.0752 126.433L48.9059 129.91C48.9059 129.91 49.3597 120.668 50.9484 117.104C52.5372 113.538 54.2244 106.295 54.2244 106.295L54.3868 103.04Z"
        fill="#4177D1" />
    <path
        d="M76.4947 117.79C76.4947 117.79 75.1851 125.509 75.0724 125.865C74.9587 126.221 73.3477 132.968 73.3477 132.968C73.3477 132.968 75.0247 131.106 76.8906 125.8L78.7564 120.493L76.4947 117.79Z"
        fill="#2E68C8" />
    <path
        d="M84.1199 129.073C84.1199 129.073 84.0488 131.609 83.8285 133.636C83.6082 135.664 81.8642 138.82 81.0724 139.857C80.2805 140.896 80.8744 140.832 81.3038 141.029C81.7332 141.227 81.8611 142.426 80.98 144.513C80.0978 146.6 82.1687 144.01 84.1381 139.815C86.1065 135.619 85.7248 134.677 85.7827 133.761C85.8416 132.847 84.3097 128.416 84.1199 129.073Z"
        fill="#2E68C8" />
    <path
        d="M87.3387 139.002C87.3387 139.002 86.3926 141.693 85.1652 144.292C83.9379 146.891 81.4995 150.274 81.1097 152.109C80.7209 153.944 83.0263 149.645 85.0668 145.829C87.1073 142.012 88.1478 139.023 87.3387 139.002Z"
        fill="#2E68C8" />
    <path
        d="M76.2102 160.37C76.2102 160.37 71.4176 169.592 70.7344 173.903C70.0512 178.215 69.5233 180.087 70.2157 182.036C70.907 183.986 70.4776 182.189 71.8074 176.286C73.1363 170.382 78.135 156.432 76.2102 160.37Z"
        fill="#2E68C8" />
    <path
        d="M39.1002 175.269C39.1002 175.269 37.6993 173.292 37.5866 168.656C37.474 164.022 37.7003 162.087 38.2749 165.884C38.8485 169.68 39.0688 168.888 40.0982 171.949C41.1285 175.007 41.76 180.952 41.76 180.952L39.1002 175.269Z"
        fill="#2E68C8" />
    <path
        d="M61.5361 100.503C61.5361 100.503 60.0479 95.0319 60.1982 93.7488C60.3484 92.4646 60.8286 92.36 61.0215 94.6858C61.2143 97.0125 61.4224 100.359 62.2803 100.142C63.1381 99.9251 64.7501 101.321 66.2008 99.9159C67.6515 98.5109 69.424 97.3993 68.4606 98.6307C67.4972 99.8621 66.1064 101.128 65.6516 102.127C65.6516 102.127 64.941 101.537 61.5361 100.503Z"
        fill="#2E68C8" />
    <path
        d="M52.1027 98.5071C52.1027 98.5071 52.6144 101.152 51.8581 102.332C51.1028 103.513 48.3883 104.462 46.361 104.231C44.3347 103.999 43.4678 104.57 43.4678 104.57C43.4678 104.57 41.7065 105.193 46.4067 105.119C51.1069 105.044 51.1952 105.254 52.4479 103.224C53.7006 101.194 52.3281 96.0372 52.1027 98.5071Z"
        fill="#2E68C8" />
    <path
        d="M49.5574 126.797C49.5574 126.797 45.8155 131.044 46.6429 136.404C47.4702 141.764 47.1951 141.815 47.7098 136.948C48.2245 132.082 48.9737 131.412 52.4212 126.98C54.1327 124.78 50.4061 124.156 49.5574 126.797Z"
        fill="#BF8100" />
</svg>