<svg width="14" height="14" viewBox="0 0 14 14" fill="none" xmlns="http://www.w3.org/2000/svg">
<g clip-path="url(#clip0_485_5336)">
<path fill-rule="evenodd" clip-rule="evenodd" d="M7.3772 1.76043C7.24837 1.66022 7.06061 1.75204 7.06061 1.91527V4.97966C7.06061 5.088 6.97226 5.17555 6.86398 5.17846C3.99352 5.25557 1.55082 7.0156 0.521257 9.4904C0.366324 9.86279 0.243396 10.2513 0.155824 10.6528C0.0582944 11.1 0.00461785 11.5631 -0.000560706 12.0376C-0.000835326 12.0629 -0.000976562 12.0882 -0.000976562 12.1136C-0.000968716 12.2194 0.143536 12.2595 0.201819 12.1712C0.214538 12.1519 0.227358 12.1327 0.240273 12.1136C0.496839 11.7335 0.791962 11.3821 1.121 11.0615C1.34456 10.8438 1.58378 10.6404 1.83722 10.452C3.18369 9.45133 4.93153 8.8758 6.86422 8.83924C6.97257 8.8372 7.06069 8.92523 7.06069 9.03359V12.0979C7.06069 12.2612 7.24845 12.353 7.37728 12.2528L13.9233 7.16139C14.0243 7.08292 14.0243 6.93031 13.9233 6.85177L7.3772 1.76043Z" fill="#B7B6B6"/>
</g>
<defs>
<clipPath id="clip0_485_5336">
<rect width="14" height="14" fill="white"/>
</clipPath>
</defs>
</svg>
