<svg width="51" height="25" viewBox="0 0 51 25" fill="none" xmlns="http://www.w3.org/2000/svg">
    <path
        d="M3.38037 0.757812L5.08154 4.76953L6.78906 0.757812H9.18848L6.21777 6.68018V10H3.95166V6.68018L0.974609 0.757812H3.38037ZM17.4976 5.19482V5.56934C17.4976 6.27604 17.3981 6.91081 17.1992 7.47363C17.0046 8.03223 16.7274 8.51042 16.3677 8.9082C16.008 9.30176 15.5827 9.60433 15.0918 9.81592C14.6009 10.0233 14.0592 10.127 13.4668 10.127C12.8701 10.127 12.3242 10.0233 11.8291 9.81592C11.3382 9.60433 10.9108 9.30176 10.5469 8.9082C10.1872 8.51042 9.90788 8.03223 9.70898 7.47363C9.51432 6.91081 9.41699 6.27604 9.41699 5.56934V5.19482C9.41699 4.48812 9.51432 3.85335 9.70898 3.29053C9.90788 2.7277 10.1851 2.24951 10.5405 1.85596C10.9002 1.45817 11.3255 1.1556 11.8164 0.948242C12.3115 0.736654 12.8574 0.630859 13.4541 0.630859C14.0465 0.630859 14.5882 0.736654 15.0791 0.948242C15.5742 1.1556 16.0016 1.45817 16.3613 1.85596C16.721 2.24951 17.0003 2.7277 17.1992 3.29053C17.3981 3.85335 17.4976 4.48812 17.4976 5.19482ZM15.2378 5.56934V5.18213C15.2378 4.7251 15.1976 4.32308 15.1172 3.97607C15.041 3.62484 14.9268 3.33073 14.7744 3.09375C14.6221 2.85677 14.4338 2.67904 14.2095 2.56055C13.9894 2.43783 13.7376 2.37646 13.4541 2.37646C13.1579 2.37646 12.8997 2.43783 12.6797 2.56055C12.4596 2.67904 12.2756 2.85677 12.1274 3.09375C11.9793 3.33073 11.8672 3.62484 11.791 3.97607C11.7191 4.32308 11.6831 4.7251 11.6831 5.18213V5.56934C11.6831 6.02214 11.7191 6.42415 11.791 6.77539C11.8672 7.1224 11.9793 7.4165 12.1274 7.65771C12.2798 7.89893 12.466 8.08089 12.686 8.20361C12.9103 8.32633 13.1706 8.3877 13.4668 8.3877C13.7503 8.3877 14.0021 8.32633 14.2222 8.20361C14.4422 8.08089 14.6263 7.89893 14.7744 7.65771C14.9268 7.4165 15.041 7.1224 15.1172 6.77539C15.1976 6.42415 15.2378 6.02214 15.2378 5.56934ZM23.6675 0.757812H25.8955V6.79443C25.8955 7.51383 25.7453 8.12321 25.4448 8.62256C25.1444 9.11768 24.7233 9.49219 24.1816 9.74609C23.64 10 23.0031 10.127 22.271 10.127C21.5474 10.127 20.9105 10 20.3604 9.74609C19.8145 9.49219 19.387 9.11768 19.0781 8.62256C18.7734 8.12321 18.6211 7.51383 18.6211 6.79443V0.757812H20.8555V6.79443C20.8555 7.17529 20.9105 7.48633 21.0205 7.72754C21.1305 7.96452 21.2913 8.13802 21.5029 8.24805C21.7145 8.35807 21.9705 8.41309 22.271 8.41309C22.5757 8.41309 22.8317 8.35807 23.0391 8.24805C23.2464 8.13802 23.403 7.96452 23.5088 7.72754C23.6146 7.48633 23.6675 7.17529 23.6675 6.79443V0.757812ZM27.2983 0.757812H30.9355C31.6465 0.757812 32.2643 0.863607 32.7891 1.0752C33.3138 1.28678 33.7179 1.59993 34.0015 2.01465C34.2892 2.42936 34.4331 2.94141 34.4331 3.55078C34.4331 4.07975 34.3506 4.52197 34.1855 4.87744C34.0205 5.23291 33.7899 5.52702 33.4937 5.75977C33.2017 5.98828 32.861 6.1766 32.4717 6.32471L31.7417 6.7373H28.6885L28.6758 5.01709H30.9355C31.2191 5.01709 31.4539 4.96631 31.6401 4.86475C31.8263 4.76318 31.966 4.6193 32.0591 4.43311C32.1564 4.24268 32.2051 4.01628 32.2051 3.75391C32.2051 3.4873 32.1564 3.25879 32.0591 3.06836C31.9618 2.87793 31.8179 2.73193 31.6274 2.63037C31.4412 2.52881 31.2106 2.47803 30.9355 2.47803H29.5264V10H27.2983V0.757812ZM32.3574 10L30.3135 5.91211L32.6748 5.89941L34.7441 9.90479V10H32.3574ZM43.7769 7.54346C43.7769 7.39958 43.7557 7.27051 43.7134 7.15625C43.6711 7.03776 43.5928 6.92773 43.4785 6.82617C43.3643 6.72461 43.1992 6.62305 42.9834 6.52148C42.7718 6.41569 42.4925 6.30566 42.1455 6.19141C41.7393 6.05599 41.3478 5.90365 40.9712 5.73438C40.5946 5.56087 40.2581 5.35986 39.9619 5.13135C39.6657 4.8986 39.4308 4.62777 39.2573 4.31885C39.0838 4.0057 38.9971 3.64176 38.9971 3.22705C38.9971 2.82926 39.0859 2.47168 39.2637 2.1543C39.4414 1.83268 39.689 1.55973 40.0063 1.33545C40.328 1.10693 40.7046 0.933431 41.1362 0.814941C41.5679 0.69222 42.0397 0.630859 42.5518 0.630859C43.2288 0.630859 43.8255 0.749349 44.3418 0.986328C44.8623 1.21908 45.2686 1.55127 45.5605 1.98291C45.8568 2.41032 46.0049 2.91602 46.0049 3.5H43.7896C43.7896 3.26725 43.7409 3.06201 43.6436 2.88428C43.5505 2.70654 43.4087 2.56689 43.2183 2.46533C43.0278 2.36377 42.7887 2.31299 42.501 2.31299C42.2217 2.31299 41.9868 2.35531 41.7964 2.43994C41.606 2.52458 41.4621 2.63883 41.3647 2.78271C41.2674 2.92236 41.2188 3.07682 41.2188 3.24609C41.2188 3.38574 41.2568 3.5127 41.333 3.62695C41.4134 3.73698 41.5256 3.84066 41.6694 3.93799C41.8175 4.03532 41.9953 4.12842 42.2026 4.21729C42.4142 4.30615 42.6512 4.3929 42.9136 4.47754C43.4045 4.63411 43.8403 4.80973 44.2212 5.00439C44.6063 5.19482 44.93 5.41276 45.1924 5.6582C45.459 5.89941 45.66 6.17448 45.7954 6.4834C45.9351 6.79232 46.0049 7.14144 46.0049 7.53076C46.0049 7.94548 45.9245 8.31364 45.7637 8.63525C45.6029 8.95687 45.3722 9.22982 45.0718 9.4541C44.7713 9.67415 44.4116 9.84131 43.9927 9.95557C43.5737 10.0698 43.1061 10.127 42.5898 10.127C42.1159 10.127 41.6483 10.0677 41.187 9.94922C40.73 9.8265 40.3153 9.6403 39.9429 9.39062C39.5705 9.13672 39.2721 8.81299 39.0479 8.41943C38.8278 8.02165 38.7178 7.5498 38.7178 7.00391H40.9521C40.9521 7.27474 40.9881 7.50326 41.0601 7.68945C41.132 7.87565 41.2378 8.02588 41.3774 8.14014C41.5171 8.25016 41.6885 8.33057 41.8916 8.38135C42.0947 8.4279 42.3275 8.45117 42.5898 8.45117C42.8734 8.45117 43.1019 8.41097 43.2754 8.33057C43.4489 8.24593 43.5758 8.1359 43.6562 8.00049C43.7367 7.86084 43.7769 7.7085 43.7769 7.54346ZM49.5215 0.757812V10H47.2998V0.757812H49.5215Z"
        fill="#C6C6C6" />
    <path
        d="M6.88574 21.3545C6.88574 21.1995 6.86296 21.0605 6.81738 20.9375C6.77181 20.8099 6.6875 20.6914 6.56445 20.582C6.44141 20.4727 6.26367 20.3633 6.03125 20.2539C5.80339 20.14 5.5026 20.0215 5.12891 19.8984C4.69141 19.7526 4.26986 19.5885 3.86426 19.4062C3.45866 19.2194 3.09635 19.0029 2.77734 18.7568C2.45833 18.5062 2.2054 18.2145 2.01855 17.8818C1.83171 17.5446 1.73828 17.1527 1.73828 16.7061C1.73828 16.2777 1.83398 15.8926 2.02539 15.5508C2.2168 15.2044 2.4834 14.9105 2.8252 14.6689C3.17155 14.4229 3.57715 14.236 4.04199 14.1084C4.50684 13.9762 5.01497 13.9102 5.56641 13.9102C6.29557 13.9102 6.93815 14.0378 7.49414 14.293C8.05469 14.5436 8.49219 14.9014 8.80664 15.3662C9.12565 15.8265 9.28516 16.3711 9.28516 17H6.89941C6.89941 16.7493 6.84701 16.5283 6.74219 16.3369C6.64193 16.1455 6.48926 15.9951 6.28418 15.8857C6.0791 15.7764 5.82161 15.7217 5.51172 15.7217C5.21094 15.7217 4.95801 15.7673 4.75293 15.8584C4.54785 15.9495 4.3929 16.0726 4.28809 16.2275C4.18327 16.3779 4.13086 16.5443 4.13086 16.7266C4.13086 16.877 4.17188 17.0137 4.25391 17.1367C4.34049 17.2552 4.46126 17.3669 4.61621 17.4717C4.77572 17.5765 4.96712 17.6768 5.19043 17.7725C5.41829 17.8682 5.6735 17.9616 5.95605 18.0527C6.4847 18.2214 6.9541 18.4105 7.36426 18.6201C7.77897 18.8252 8.1276 19.0599 8.41016 19.3242C8.69727 19.584 8.91374 19.8802 9.05957 20.2129C9.20996 20.5456 9.28516 20.9215 9.28516 21.3408C9.28516 21.7874 9.19857 22.1839 9.02539 22.5303C8.85221 22.8766 8.60384 23.1706 8.28027 23.4121C7.95671 23.6491 7.56934 23.8291 7.11816 23.9521C6.66699 24.0752 6.16341 24.1367 5.60742 24.1367C5.09701 24.1367 4.59342 24.0729 4.09668 23.9453C3.60449 23.8132 3.15788 23.6126 2.75684 23.3438C2.35579 23.0703 2.03451 22.7217 1.79297 22.2979C1.55599 21.8695 1.4375 21.3613 1.4375 20.7734H3.84375C3.84375 21.0651 3.88249 21.3112 3.95996 21.5117C4.03743 21.7122 4.15137 21.874 4.30176 21.9971C4.45215 22.1156 4.63672 22.2021 4.85547 22.2568C5.07422 22.307 5.32487 22.332 5.60742 22.332C5.91276 22.332 6.15885 22.2887 6.3457 22.2021C6.53255 22.111 6.66927 21.9925 6.75586 21.8467C6.84245 21.6963 6.88574 21.5322 6.88574 21.3545ZM17.1626 20.6299H19.5552C19.5233 21.3226 19.3364 21.9333 18.9946 22.4619C18.6529 22.9906 18.1789 23.403 17.5728 23.6992C16.9712 23.9909 16.2603 24.1367 15.44 24.1367C14.7746 24.1367 14.1799 24.0251 13.6558 23.8018C13.1362 23.5785 12.6942 23.2572 12.3296 22.8379C11.9696 22.4186 11.6939 21.9105 11.5025 21.3135C11.3156 20.7165 11.2222 20.0443 11.2222 19.2969V18.7568C11.2222 18.0094 11.3202 17.3372 11.5161 16.7402C11.7167 16.1387 11.9992 15.6283 12.3638 15.209C12.7329 14.7852 13.175 14.4616 13.69 14.2383C14.2049 14.015 14.7769 13.9033 15.4058 13.9033C16.2717 13.9033 17.0031 14.0583 17.6001 14.3682C18.1971 14.6781 18.6597 15.1042 18.9878 15.6465C19.3159 16.1842 19.5096 16.7972 19.5689 17.4854H17.1763C17.1672 17.1117 17.1034 16.7995 16.9849 16.5488C16.8664 16.2936 16.6795 16.1022 16.4243 15.9746C16.1691 15.847 15.8296 15.7832 15.4058 15.7832C15.1096 15.7832 14.8521 15.8379 14.6333 15.9473C14.4146 16.0566 14.2323 16.2298 14.0864 16.4668C13.9406 16.7038 13.8312 17.0114 13.7583 17.3896C13.69 17.7633 13.6558 18.2145 13.6558 18.7432V19.2969C13.6558 19.8255 13.6877 20.2767 13.7515 20.6504C13.8153 21.0241 13.9178 21.3294 14.0591 21.5664C14.2004 21.8034 14.3827 21.9788 14.606 22.0928C14.8338 22.2021 15.1118 22.2568 15.44 22.2568C15.8045 22.2568 16.1122 22.1999 16.3628 22.0859C16.6135 21.9674 16.8071 21.7897 16.9439 21.5527C17.0806 21.3112 17.1535 21.0036 17.1626 20.6299ZM30.0918 18.8252V19.2285C30.0918 19.9896 29.9847 20.6732 29.7705 21.2793C29.5609 21.8809 29.2624 22.3958 28.875 22.8242C28.4877 23.248 28.0297 23.5739 27.501 23.8018C26.9724 24.0251 26.389 24.1367 25.751 24.1367C25.1084 24.1367 24.5205 24.0251 23.9873 23.8018C23.4587 23.5739 22.9984 23.248 22.6065 22.8242C22.2191 22.3958 21.9183 21.8809 21.7041 21.2793C21.4945 20.6732 21.3897 19.9896 21.3897 19.2285V18.8252C21.3897 18.0641 21.4945 17.3805 21.7041 16.7744C21.9183 16.1683 22.2168 15.6533 22.5996 15.2295C22.987 14.8011 23.445 14.4753 23.9737 14.252C24.5069 14.0241 25.0948 13.9102 25.7373 13.9102C26.3754 13.9102 26.9587 14.0241 27.4873 14.252C28.0205 14.4753 28.4808 14.8011 28.8682 15.2295C29.2556 15.6533 29.5564 16.1683 29.7705 16.7744C29.9847 17.3805 30.0918 18.0641 30.0918 18.8252ZM27.6582 19.2285V18.8115C27.6582 18.3193 27.6149 17.8864 27.5284 17.5127C27.4463 17.1344 27.3233 16.8177 27.1592 16.5625C26.9952 16.3073 26.7924 16.1159 26.5508 15.9883C26.3138 15.8561 26.0427 15.79 25.7373 15.79C25.4183 15.79 25.1403 15.8561 24.9034 15.9883C24.6664 16.1159 24.4681 16.3073 24.3086 16.5625C24.1491 16.8177 24.0284 17.1344 23.9463 17.5127C23.8689 17.8864 23.8301 18.3193 23.8301 18.8115V19.2285C23.8301 19.7161 23.8689 20.1491 23.9463 20.5273C24.0284 20.901 24.1491 21.2178 24.3086 21.4775C24.4727 21.7373 24.6732 21.9333 24.9102 22.0654C25.1517 22.1976 25.432 22.2637 25.751 22.2637C26.0564 22.2637 26.3275 22.1976 26.5645 22.0654C26.8015 21.9333 26.9997 21.7373 27.1592 21.4775C27.3233 21.2178 27.4463 20.901 27.5284 20.5273C27.6149 20.1491 27.6582 19.7161 27.6582 19.2285ZM32.316 14.0469H36.233C36.9986 14.0469 37.664 14.1608 38.2291 14.3887C38.7942 14.6165 39.2294 14.9538 39.5347 15.4004C39.8446 15.847 39.9996 16.3984 39.9996 17.0547C39.9996 17.6243 39.9107 18.1006 39.733 18.4834C39.5552 18.8662 39.3069 19.1829 38.9879 19.4336C38.6734 19.6797 38.3065 19.8825 37.8873 20.042L37.1011 20.4863H33.813L33.7994 18.6338H36.233C36.5383 18.6338 36.7912 18.5791 36.9918 18.4697C37.1923 18.3604 37.3427 18.2054 37.4429 18.0049C37.5477 17.7998 37.6002 17.556 37.6002 17.2734C37.6002 16.9863 37.5477 16.7402 37.4429 16.5352C37.3381 16.3301 37.1832 16.1729 36.9781 16.0635C36.7776 15.9541 36.5292 15.8994 36.233 15.8994H34.7154V24H32.316V14.0469ZM37.7642 24L35.563 19.5977L38.106 19.584L40.3345 23.8975V24H37.7642ZM49.2784 22.1543V24H43.9737V22.1543H49.2784ZM44.8282 14.0469V24H42.4288V14.0469H44.8282ZM48.5948 17.998V19.7822H43.9737V17.998H48.5948ZM49.2989 14.0469V15.8994H43.9737V14.0469H49.2989Z"
        fill="#C6C6C6" />
</svg>