<svg width="178" height="46" viewBox="0 0 178 46" fill="none" xmlns="http://www.w3.org/2000/svg">
<path d="M6.13901 20.5V26.2168" stroke="white" stroke-opacity="0.55" stroke-width="1.25" stroke-linecap="round" stroke-linejoin="round"/>
<path d="M10.0296 17.7656V26.2179" stroke="white" stroke-opacity="0.55" stroke-width="1.25" stroke-linecap="round" stroke-linejoin="round"/>
<path d="M13.8539 23.5215V26.2173" stroke="white" stroke-opacity="0.55" stroke-width="1.25" stroke-linecap="round" stroke-linejoin="round"/>
<path fill-rule="evenodd" clip-rule="evenodd" d="M13.9022 13.666H6.09263C3.37041 13.666 1.66406 15.5928 1.66406 18.3203V25.6784C1.66406 28.4059 3.36248 30.3327 6.09263 30.3327H13.9022C16.6323 30.3327 18.3307 28.4059 18.3307 25.6784V18.3203C18.3307 15.5928 16.6323 13.666 13.9022 13.666Z" stroke="white" stroke-opacity="0.55" stroke-width="1.25" stroke-linecap="round" stroke-linejoin="round"/>
<g filter="url(#filter0_d_365_1925)">
<path d="M40.6719 19.4929C40.6188 19.0223 40.4001 18.6577 40.0156 18.3991C39.6312 18.1373 39.1473 18.0064 38.5639 18.0064C38.1463 18.0064 37.785 18.0727 37.4801 18.2053C37.1752 18.3345 36.9382 18.5135 36.7692 18.7422C36.6035 18.9676 36.5206 19.2244 36.5206 19.5128C36.5206 19.7547 36.5769 19.9635 36.6896 20.1392C36.8056 20.3149 36.9564 20.4624 37.142 20.5817C37.331 20.6977 37.5331 20.7955 37.7486 20.875C37.964 20.9512 38.1712 21.0142 38.37 21.0639L39.3643 21.3224C39.6892 21.402 40.0223 21.5097 40.3636 21.6456C40.705 21.7815 41.0215 21.9605 41.3132 22.1825C41.6049 22.4046 41.8402 22.6797 42.0192 23.0078C42.2015 23.3359 42.2926 23.7287 42.2926 24.1861C42.2926 24.7628 42.1435 25.2749 41.8452 25.7223C41.5502 26.1697 41.121 26.5227 40.5575 26.7812C39.9974 27.0398 39.3196 27.169 38.5241 27.169C37.7618 27.169 37.1023 27.0481 36.5455 26.8061C35.9886 26.5642 35.5528 26.2211 35.2379 25.777C34.9231 25.3295 34.7491 24.7992 34.7159 24.1861H36.2571C36.2869 24.554 36.4063 24.8606 36.6151 25.1058C36.8272 25.3478 37.0973 25.5284 37.4254 25.6477C37.7569 25.7637 38.1198 25.8217 38.5142 25.8217C38.9484 25.8217 39.3345 25.7538 39.6726 25.6179C40.014 25.4787 40.2824 25.2865 40.478 25.0412C40.6735 24.7926 40.7713 24.5026 40.7713 24.1712C40.7713 23.8696 40.6851 23.6226 40.5128 23.4304C40.3438 23.2382 40.1134 23.0791 39.8217 22.9531C39.5334 22.8272 39.2069 22.7161 38.8423 22.62L37.6392 22.2919C36.8239 22.0698 36.1776 21.7434 35.7003 21.3125C35.2263 20.8816 34.9893 20.3116 34.9893 19.6023C34.9893 19.0156 35.1484 18.5036 35.4666 18.0661C35.7848 17.6286 36.2157 17.2888 36.7592 17.0469C37.3028 16.8016 37.916 16.679 38.5987 16.679C39.2881 16.679 39.8963 16.8 40.4233 17.0419C40.9536 17.2839 41.3712 17.617 41.6761 18.0412C41.9811 18.4621 42.1402 18.946 42.1534 19.4929H40.6719ZM48.8464 23.8331V19.3636H50.3379V27H48.8762V25.6776H48.7967C48.621 26.0852 48.3393 26.425 47.9515 26.6967C47.5671 26.9652 47.0881 27.0994 46.5147 27.0994C46.0242 27.0994 45.59 26.9917 45.2122 26.7763C44.8377 26.5575 44.5427 26.2344 44.3272 25.8068C44.1151 25.3793 44.0091 24.8506 44.0091 24.2209V19.3636H45.4956V24.0419C45.4956 24.5623 45.6397 24.9766 45.9281 25.2848C46.2164 25.593 46.591 25.7472 47.0517 25.7472C47.3301 25.7472 47.6068 25.6776 47.8819 25.5384C48.1603 25.3991 48.3907 25.1887 48.573 24.907C48.7586 24.6252 48.8497 24.2673 48.8464 23.8331ZM52.3352 27V19.3636H53.772V20.5767H53.8516C53.9908 20.1657 54.236 19.8426 54.5874 19.6072C54.942 19.3686 55.343 19.2493 55.7905 19.2493C55.8833 19.2493 55.9927 19.2526 56.1186 19.2592C56.2479 19.2659 56.349 19.2741 56.4219 19.2841V20.706C56.3622 20.6894 56.2562 20.6712 56.1037 20.6513C55.9512 20.6281 55.7988 20.6165 55.6463 20.6165C55.295 20.6165 54.9818 20.6911 54.7067 20.8402C54.4349 20.986 54.2195 21.1899 54.0604 21.4517C53.9013 21.7102 53.8217 22.0052 53.8217 22.3366V27H52.3352ZM64.4734 19.3636L61.7042 27H60.1133L57.3391 19.3636H58.935L60.869 25.2401H60.9485L62.8775 19.3636H64.4734ZM68.9018 27.1541C68.1494 27.1541 67.5015 26.9934 66.9579 26.6719C66.4177 26.3471 66.0001 25.8913 65.7051 25.3047C65.4134 24.7147 65.2676 24.0237 65.2676 23.2315C65.2676 22.4493 65.4134 21.7599 65.7051 21.1634C66.0001 20.5668 66.411 20.1011 66.938 19.7663C67.4683 19.4316 68.0881 19.2642 68.7974 19.2642C69.2283 19.2642 69.6459 19.3355 70.0502 19.478C70.4546 19.6205 70.8175 19.8442 71.139 20.1491C71.4605 20.4541 71.7141 20.8501 71.8997 21.3374C72.0853 21.8213 72.1781 22.4096 72.1781 23.1023V23.6293H66.1078V22.5156H70.7214C70.7214 22.1245 70.6419 21.7782 70.4828 21.4766C70.3237 21.1716 70.1 20.9313 69.8116 20.7557C69.5266 20.58 69.1918 20.4922 68.8074 20.4922C68.3897 20.4922 68.0252 20.5949 67.7136 20.8004C67.4054 21.0026 67.1667 21.2678 66.9977 21.5959C66.832 21.9207 66.7491 22.2737 66.7491 22.6548V23.5249C66.7491 24.0353 66.8386 24.4695 67.0176 24.8274C67.1999 25.1854 67.4534 25.4588 67.7782 25.6477C68.103 25.8333 68.4825 25.9261 68.9167 25.9261C69.1984 25.9261 69.4553 25.8864 69.6873 25.8068C69.9193 25.724 70.1199 25.6013 70.2889 25.4389C70.4579 25.2765 70.5872 25.076 70.6767 24.8374L72.0836 25.0909C71.9709 25.5052 71.7688 25.8681 71.4771 26.1797C71.1887 26.4879 70.8258 26.7282 70.3883 26.9006C69.9541 27.0696 69.4586 27.1541 68.9018 27.1541ZM74.5483 29.8636C74.3262 29.8636 74.1241 29.8454 73.9418 29.8089C73.7595 29.7758 73.6236 29.7393 73.5341 29.6996L73.892 28.4815C74.1638 28.5545 74.4058 28.5859 74.6179 28.576C74.83 28.5661 75.0173 28.4865 75.1797 28.3374C75.3454 28.1882 75.4912 27.9446 75.6172 27.6065L75.8011 27.0994L73.0071 19.3636H74.598L76.532 25.2898H76.6115L78.5455 19.3636H80.1413L76.9943 28.0192C76.8485 28.4169 76.6629 28.7533 76.4375 29.0284C76.2121 29.3068 75.9437 29.5156 75.6321 29.6548C75.3205 29.794 74.9593 29.8636 74.5483 29.8636Z" fill="white" fill-opacity="0.55" shape-rendering="crispEdges"/>
</g>
<path d="M158.635 19.5292C158.798 19.366 159.053 19.3511 159.233 19.4847L159.285 19.5292L163.25 23.4942L167.215 19.5292C167.378 19.366 167.634 19.3511 167.814 19.4847L167.865 19.5292C168.029 19.6924 168.043 19.9477 167.91 20.1277L167.865 20.1792L163.575 24.4696C163.412 24.6328 163.156 24.6476 162.977 24.5141L162.925 24.4696L158.635 20.1792C158.455 19.9997 158.455 19.7087 158.635 19.5292Z" fill="white" fill-opacity="0.56"/>
<defs>
<filter id="filter0_d_365_1925" x="18.7159" y="0.679199" width="77.4255" height="45.1846" filterUnits="userSpaceOnUse" color-interpolation-filters="sRGB">
<feFlood flood-opacity="0" result="BackgroundImageFix"/>
<feColorMatrix in="SourceAlpha" type="matrix" values="0 0 0 0 0 0 0 0 0 0 0 0 0 0 0 0 0 0 127 0" result="hardAlpha"/>
<feOffset/>
<feGaussianBlur stdDeviation="8"/>
<feComposite in2="hardAlpha" operator="out"/>
<feColorMatrix type="matrix" values="0 0 0 0 1 0 0 0 0 1 0 0 0 0 1 0 0 0 1 0"/>
<feBlend mode="overlay" in2="BackgroundImageFix" result="effect1_dropShadow_365_1925"/>
<feBlend mode="normal" in="SourceGraphic" in2="effect1_dropShadow_365_1925" result="shape"/>
</filter>
</defs>
</svg>
