<svg width="20" height="20" viewBox="0 0 20 20" fill="none" xmlns="http://www.w3.org/2000/svg">
<path fill-rule="evenodd" clip-rule="evenodd" d="M14.881 17.0142C16.4418 17.0142 17.7076 15.7492 17.7085 14.1883V14.1867V11.9367C16.6776 11.9367 15.8426 11.1017 15.8418 10.0708C15.8418 9.04083 16.6768 8.205 17.7076 8.205H17.7085V5.955C17.7101 4.39333 16.446 3.12667 14.8851 3.125H14.8801H5.12014C3.55848 3.125 2.29264 4.39 2.29181 5.95167V5.9525V8.2775C3.28681 8.2425 4.12098 9.02083 4.15598 10.0158C4.15681 10.0342 4.15764 10.0525 4.15764 10.0708C4.15848 11.1 3.32598 11.935 2.29681 11.9367H2.29181V14.1867C2.29098 15.7475 3.55681 17.0142 5.11764 17.0142H5.11848H14.881Z" stroke="white" stroke-opacity="0.55" stroke-width="1.25" stroke-linecap="round" stroke-linejoin="round"/>
<path fill-rule="evenodd" clip-rule="evenodd" d="M10.3094 7.55236L10.8227 8.59153C10.8727 8.6932 10.9694 8.76403 11.0819 8.7807L12.2294 8.9482C12.5136 8.98986 12.6261 9.3382 12.4211 9.53736L11.5911 10.3457C11.5094 10.4249 11.4727 10.539 11.4911 10.6515L11.6869 11.7932C11.7352 12.0757 11.4394 12.2907 11.1861 12.1574L10.1602 11.6182C10.0594 11.5649 9.93939 11.5649 9.83855 11.6182L8.81355 12.1574C8.55939 12.2907 8.26355 12.0757 8.31189 11.7932L8.50772 10.6515C8.52689 10.539 8.48939 10.4249 8.40772 10.3457L7.57855 9.53736C7.37355 9.3382 7.48605 8.98986 7.76939 8.9482L8.91689 8.7807C9.02939 8.76403 9.12689 8.6932 9.17689 8.59153L9.68939 7.55236C9.81605 7.2957 10.1827 7.2957 10.3094 7.55236Z" stroke="white" stroke-opacity="0.55" stroke-width="1.25" stroke-linecap="round" stroke-linejoin="round"/>
</svg>
