<svg width="14" height="14" viewBox="0 0 14 14" fill="none" xmlns="http://www.w3.org/2000/svg">
<path fill-rule="evenodd" clip-rule="evenodd" d="M6.99628 5.59517C6.22045 5.59517 5.58928 6.22634 5.58928 7.00217C5.58928 7.778 6.22045 8.40917 6.99628 8.40917C7.77212 8.40917 8.40328 7.778 8.40328 7.00217C8.40328 6.22634 7.77212 5.59517 6.99628 5.59517Z" fill="#B7B6B6"/>
<path fill-rule="evenodd" clip-rule="evenodd" d="M6.99628 9.28434C5.73803 9.28434 4.71428 8.26059 4.71428 7.00234C4.71428 5.74409 5.73803 4.72034 6.99628 4.72034C8.25453 4.72034 9.27828 5.74409 9.27828 7.00234C9.27828 8.26059 8.25453 9.28434 6.99628 9.28434ZM6.99628 2.45117C3.84512 2.45117 1.30762 4.94084 1.30762 7.00234C1.30762 9.06384 3.84512 11.5535 6.99628 11.5535C10.1475 11.5535 12.685 9.06384 12.685 7.00234C12.685 4.94084 10.1475 2.45117 6.99628 2.45117Z" fill="#B7B6B6"/>
</svg>
